%TF.GenerationSoftware,KiCad,Pcbnew,(6.0.8)*%
%TF.CreationDate,2022-12-05T17:54:35+01:00*%
%TF.ProjectId,FMC-HPC-BRK,464d432d-4850-4432-9d42-524b2e6b6963,rev?*%
%TF.SameCoordinates,Original*%
%TF.FileFunction,Soldermask,Bot*%
%TF.FilePolarity,Negative*%
%FSLAX46Y46*%
G04 Gerber Fmt 4.6, Leading zero omitted, Abs format (unit mm)*
G04 Created by KiCad (PCBNEW (6.0.8)) date 2022-12-05 17:54:35*
%MOMM*%
%LPD*%
G01*
G04 APERTURE LIST*
%ADD10C,0.640000*%
%ADD11C,1.270000*%
G04 APERTURE END LIST*
D10*
%TO.C,J1*%
X157910000Y-42545000D03*
X156640000Y-42545000D03*
X155370000Y-42545000D03*
X154100000Y-42545000D03*
X152830000Y-42545000D03*
X151560000Y-42545000D03*
X150290000Y-42545000D03*
X149020000Y-42545000D03*
X147750000Y-42545000D03*
X146480000Y-42545000D03*
X145210000Y-42545000D03*
X143940000Y-42545000D03*
X142670000Y-42545000D03*
X141400000Y-42545000D03*
X140130000Y-42545000D03*
X138860000Y-42545000D03*
X137590000Y-42545000D03*
X136320000Y-42545000D03*
X135050000Y-42545000D03*
X133780000Y-42545000D03*
X132510000Y-42545000D03*
X131240000Y-42545000D03*
X129970000Y-42545000D03*
X128700000Y-42545000D03*
X127430000Y-42545000D03*
X126160000Y-42545000D03*
X124890000Y-42545000D03*
X123620000Y-42545000D03*
X122350000Y-42545000D03*
X121080000Y-42545000D03*
X119810000Y-42545000D03*
X118540000Y-42545000D03*
X117270000Y-42545000D03*
X116000000Y-42545000D03*
X114730000Y-42545000D03*
X113460000Y-42545000D03*
X112190000Y-42545000D03*
X110920000Y-42545000D03*
X109650000Y-42545000D03*
X108380000Y-42545000D03*
X157910000Y-41275000D03*
X156640000Y-41275000D03*
X155370000Y-41275000D03*
X154100000Y-41275000D03*
X152830000Y-41275000D03*
X151560000Y-41275000D03*
X150290000Y-41275000D03*
X149020000Y-41275000D03*
X147750000Y-41275000D03*
X146480000Y-41275000D03*
X145210000Y-41275000D03*
X143940000Y-41275000D03*
X142670000Y-41275000D03*
X141400000Y-41275000D03*
X140130000Y-41275000D03*
X138860000Y-41275000D03*
X137590000Y-41275000D03*
X136320000Y-41275000D03*
X135050000Y-41275000D03*
X133780000Y-41275000D03*
X132510000Y-41275000D03*
X131240000Y-41275000D03*
X129970000Y-41275000D03*
X128700000Y-41275000D03*
X127430000Y-41275000D03*
X126160000Y-41275000D03*
X124890000Y-41275000D03*
X123620000Y-41275000D03*
X122350000Y-41275000D03*
X121080000Y-41275000D03*
X119810000Y-41275000D03*
X118540000Y-41275000D03*
X117270000Y-41275000D03*
X116000000Y-41275000D03*
X114730000Y-41275000D03*
X113460000Y-41275000D03*
X112190000Y-41275000D03*
X110920000Y-41275000D03*
X109650000Y-41275000D03*
X108380000Y-41275000D03*
X157910000Y-40005000D03*
X156640000Y-40005000D03*
X155370000Y-40005000D03*
X154100000Y-40005000D03*
X152830000Y-40005000D03*
X151560000Y-40005000D03*
X150290000Y-40005000D03*
X149020000Y-40005000D03*
X147750000Y-40005000D03*
X146480000Y-40005000D03*
X145210000Y-40005000D03*
X143940000Y-40005000D03*
X142670000Y-40005000D03*
X141400000Y-40005000D03*
X140130000Y-40005000D03*
X138860000Y-40005000D03*
X137590000Y-40005000D03*
X136320000Y-40005000D03*
X135050000Y-40005000D03*
X133780000Y-40005000D03*
X132510000Y-40005000D03*
X131240000Y-40005000D03*
X129970000Y-40005000D03*
X128700000Y-40005000D03*
X127430000Y-40005000D03*
X126160000Y-40005000D03*
X124890000Y-40005000D03*
X123620000Y-40005000D03*
X122350000Y-40005000D03*
X121080000Y-40005000D03*
X119810000Y-40005000D03*
X118540000Y-40005000D03*
X117270000Y-40005000D03*
X116000000Y-40005000D03*
X114730000Y-40005000D03*
X113460000Y-40005000D03*
X112190000Y-40005000D03*
X110920000Y-40005000D03*
X109650000Y-40005000D03*
X108380000Y-40005000D03*
X157910000Y-38735000D03*
X156640000Y-38735000D03*
X155370000Y-38735000D03*
X154100000Y-38735000D03*
X152830000Y-38735000D03*
X151560000Y-38735000D03*
X150290000Y-38735000D03*
X149020000Y-38735000D03*
X147750000Y-38735000D03*
X146480000Y-38735000D03*
X145210000Y-38735000D03*
X143940000Y-38735000D03*
X142670000Y-38735000D03*
X141400000Y-38735000D03*
X140130000Y-38735000D03*
X138860000Y-38735000D03*
X137590000Y-38735000D03*
X136320000Y-38735000D03*
X135050000Y-38735000D03*
X133780000Y-38735000D03*
X132510000Y-38735000D03*
X131240000Y-38735000D03*
X129970000Y-38735000D03*
X128700000Y-38735000D03*
X127430000Y-38735000D03*
X126160000Y-38735000D03*
X124890000Y-38735000D03*
X123620000Y-38735000D03*
X122350000Y-38735000D03*
X121080000Y-38735000D03*
X119810000Y-38735000D03*
X118540000Y-38735000D03*
X117270000Y-38735000D03*
X116000000Y-38735000D03*
X114730000Y-38735000D03*
X113460000Y-38735000D03*
X112190000Y-38735000D03*
X110920000Y-38735000D03*
X109650000Y-38735000D03*
X108380000Y-38735000D03*
X157910000Y-37465000D03*
X156640000Y-37465000D03*
X155370000Y-37465000D03*
X154100000Y-37465000D03*
X152830000Y-37465000D03*
X151560000Y-37465000D03*
X150290000Y-37465000D03*
X149020000Y-37465000D03*
X147750000Y-37465000D03*
X146480000Y-37465000D03*
X145210000Y-37465000D03*
X143940000Y-37465000D03*
X142670000Y-37465000D03*
X141400000Y-37465000D03*
X140130000Y-37465000D03*
X138860000Y-37465000D03*
X137590000Y-37465000D03*
X136320000Y-37465000D03*
X135050000Y-37465000D03*
X133780000Y-37465000D03*
X132510000Y-37465000D03*
X131240000Y-37465000D03*
X129970000Y-37465000D03*
X128700000Y-37465000D03*
X127430000Y-37465000D03*
X126160000Y-37465000D03*
X124890000Y-37465000D03*
X123620000Y-37465000D03*
X122350000Y-37465000D03*
X121080000Y-37465000D03*
X119810000Y-37465000D03*
X118540000Y-37465000D03*
X117270000Y-37465000D03*
X116000000Y-37465000D03*
X114730000Y-37465000D03*
X113460000Y-37465000D03*
X112190000Y-37465000D03*
X110920000Y-37465000D03*
X109650000Y-37465000D03*
X108380000Y-37465000D03*
X157910000Y-36195000D03*
X156640000Y-36195000D03*
X155370000Y-36195000D03*
X154100000Y-36195000D03*
X152830000Y-36195000D03*
X151560000Y-36195000D03*
X150290000Y-36195000D03*
X149020000Y-36195000D03*
X147750000Y-36195000D03*
X146480000Y-36195000D03*
X145210000Y-36195000D03*
X143940000Y-36195000D03*
X142670000Y-36195000D03*
X141400000Y-36195000D03*
X140130000Y-36195000D03*
X138860000Y-36195000D03*
X137590000Y-36195000D03*
X136320000Y-36195000D03*
X135050000Y-36195000D03*
X133780000Y-36195000D03*
X132510000Y-36195000D03*
X131240000Y-36195000D03*
X129970000Y-36195000D03*
X128700000Y-36195000D03*
X127430000Y-36195000D03*
X126160000Y-36195000D03*
X124890000Y-36195000D03*
X123620000Y-36195000D03*
X122350000Y-36195000D03*
X121080000Y-36195000D03*
X119810000Y-36195000D03*
X118540000Y-36195000D03*
X117270000Y-36195000D03*
X116000000Y-36195000D03*
X114730000Y-36195000D03*
X113460000Y-36195000D03*
X112190000Y-36195000D03*
X110920000Y-36195000D03*
X109650000Y-36195000D03*
X108380000Y-36195000D03*
X157910000Y-34925000D03*
X156640000Y-34925000D03*
X155370000Y-34925000D03*
X154100000Y-34925000D03*
X152830000Y-34925000D03*
X151560000Y-34925000D03*
X150290000Y-34925000D03*
X149020000Y-34925000D03*
X147750000Y-34925000D03*
X146480000Y-34925000D03*
X145210000Y-34925000D03*
X143940000Y-34925000D03*
X142670000Y-34925000D03*
X141400000Y-34925000D03*
X140130000Y-34925000D03*
X138860000Y-34925000D03*
X137590000Y-34925000D03*
X136320000Y-34925000D03*
X135050000Y-34925000D03*
X133780000Y-34925000D03*
X132510000Y-34925000D03*
X131240000Y-34925000D03*
X129970000Y-34925000D03*
X128700000Y-34925000D03*
X127430000Y-34925000D03*
X126160000Y-34925000D03*
X124890000Y-34925000D03*
X123620000Y-34925000D03*
X122350000Y-34925000D03*
X121080000Y-34925000D03*
X119810000Y-34925000D03*
X118540000Y-34925000D03*
X117270000Y-34925000D03*
X116000000Y-34925000D03*
X114730000Y-34925000D03*
X113460000Y-34925000D03*
X112190000Y-34925000D03*
X110920000Y-34925000D03*
X109650000Y-34925000D03*
X108380000Y-34925000D03*
X157910000Y-33655000D03*
X156640000Y-33655000D03*
X155370000Y-33655000D03*
X154100000Y-33655000D03*
X152830000Y-33655000D03*
X151560000Y-33655000D03*
X150290000Y-33655000D03*
X149020000Y-33655000D03*
X147750000Y-33655000D03*
X146480000Y-33655000D03*
X145210000Y-33655000D03*
X143940000Y-33655000D03*
X142670000Y-33655000D03*
X141400000Y-33655000D03*
X140130000Y-33655000D03*
X138860000Y-33655000D03*
X137590000Y-33655000D03*
X136320000Y-33655000D03*
X135050000Y-33655000D03*
X133780000Y-33655000D03*
X132510000Y-33655000D03*
X131240000Y-33655000D03*
X129970000Y-33655000D03*
X128700000Y-33655000D03*
X127430000Y-33655000D03*
X126160000Y-33655000D03*
X124890000Y-33655000D03*
X123620000Y-33655000D03*
X122350000Y-33655000D03*
X121080000Y-33655000D03*
X119810000Y-33655000D03*
X118540000Y-33655000D03*
X117270000Y-33655000D03*
X116000000Y-33655000D03*
X114730000Y-33655000D03*
X113460000Y-33655000D03*
X112190000Y-33655000D03*
X110920000Y-33655000D03*
X109650000Y-33655000D03*
X108380000Y-33655000D03*
X157910000Y-32385000D03*
X156640000Y-32385000D03*
X155370000Y-32385000D03*
X154100000Y-32385000D03*
X152830000Y-32385000D03*
X151560000Y-32385000D03*
X150290000Y-32385000D03*
X149020000Y-32385000D03*
X147750000Y-32385000D03*
X146480000Y-32385000D03*
X145210000Y-32385000D03*
X143940000Y-32385000D03*
X142670000Y-32385000D03*
X141400000Y-32385000D03*
X140130000Y-32385000D03*
X138860000Y-32385000D03*
X137590000Y-32385000D03*
X136320000Y-32385000D03*
X135050000Y-32385000D03*
X133780000Y-32385000D03*
X132510000Y-32385000D03*
X131240000Y-32385000D03*
X129970000Y-32385000D03*
X128700000Y-32385000D03*
X127430000Y-32385000D03*
X126160000Y-32385000D03*
X124890000Y-32385000D03*
X123620000Y-32385000D03*
X122350000Y-32385000D03*
X121080000Y-32385000D03*
X119810000Y-32385000D03*
X118540000Y-32385000D03*
X117270000Y-32385000D03*
X116000000Y-32385000D03*
X114730000Y-32385000D03*
X113460000Y-32385000D03*
X112190000Y-32385000D03*
X110920000Y-32385000D03*
X109650000Y-32385000D03*
X108380000Y-32385000D03*
X157910000Y-31115000D03*
X156640000Y-31115000D03*
X155370000Y-31115000D03*
X154100000Y-31115000D03*
X152830000Y-31115000D03*
X151560000Y-31115000D03*
X150290000Y-31115000D03*
X149020000Y-31115000D03*
X147750000Y-31115000D03*
X146480000Y-31115000D03*
X145210000Y-31115000D03*
X143940000Y-31115000D03*
X142670000Y-31115000D03*
X141400000Y-31115000D03*
X140130000Y-31115000D03*
X138860000Y-31115000D03*
X137590000Y-31115000D03*
X136320000Y-31115000D03*
X135050000Y-31115000D03*
X133780000Y-31115000D03*
X132510000Y-31115000D03*
X131240000Y-31115000D03*
X129970000Y-31115000D03*
X128700000Y-31115000D03*
X127430000Y-31115000D03*
X126160000Y-31115000D03*
X124890000Y-31115000D03*
X123620000Y-31115000D03*
X122350000Y-31115000D03*
X121080000Y-31115000D03*
X119810000Y-31115000D03*
X118540000Y-31115000D03*
X117270000Y-31115000D03*
X116000000Y-31115000D03*
X114730000Y-31115000D03*
X113460000Y-31115000D03*
X112190000Y-31115000D03*
X110920000Y-31115000D03*
X109650000Y-31115000D03*
X108380000Y-31115000D03*
D11*
X105954000Y-36830000D03*
X160336000Y-39880000D03*
%TD*%
%TO.C,K1*%
X105956000Y-33780000D03*
X160336000Y-36830000D03*
%TD*%
M02*
