%TF.GenerationSoftware,KiCad,Pcbnew,(6.0.8)*%
%TF.CreationDate,2022-12-05T17:54:35+01:00*%
%TF.ProjectId,FMC-HPC-BRK,464d432d-4850-4432-9d42-524b2e6b6963,rev?*%
%TF.SameCoordinates,Original*%
%TF.FileFunction,OtherDrawing,Comment*%
%FSLAX46Y46*%
G04 Gerber Fmt 4.6, Leading zero omitted, Abs format (unit mm)*
G04 Created by KiCad (PCBNEW (6.0.8)) date 2022-12-05 17:54:35*
%MOMM*%
%LPD*%
G01*
G04 APERTURE LIST*
%ADD10C,0.025000*%
G04 APERTURE END LIST*
D10*
%TO.C,R1*%
X137820000Y-64675000D02*
X138070000Y-64675000D01*
X138570000Y-65175000D02*
X138570000Y-64675000D01*
X138070000Y-64675000D02*
X138070000Y-65175000D01*
X137820000Y-65175000D02*
X137820000Y-64675000D01*
X138570000Y-64675000D02*
X138820000Y-64675000D01*
X138820000Y-65175000D02*
X138570000Y-65175000D01*
X138820000Y-65175000D02*
X137820000Y-65175000D01*
X138070000Y-65175000D02*
X137820000Y-65175000D01*
X137820000Y-65175000D02*
X137820000Y-64675000D01*
X138820000Y-64675000D02*
X138820000Y-65175000D01*
X138820000Y-64675000D02*
X138820000Y-65175000D01*
X137820000Y-64675000D02*
X138820000Y-64675000D01*
%TO.C,R9*%
X153570000Y-64745000D02*
X153820000Y-64745000D01*
X154320000Y-65245000D02*
X154320000Y-64745000D01*
X153820000Y-64745000D02*
X153820000Y-65245000D01*
X153570000Y-65245000D02*
X153570000Y-64745000D01*
X154320000Y-64745000D02*
X154570000Y-64745000D01*
X154570000Y-65245000D02*
X154320000Y-65245000D01*
X154570000Y-65245000D02*
X153570000Y-65245000D01*
X153820000Y-65245000D02*
X153570000Y-65245000D01*
X153570000Y-65245000D02*
X153570000Y-64745000D01*
X154570000Y-64745000D02*
X154570000Y-65245000D01*
X154570000Y-64745000D02*
X154570000Y-65245000D01*
X153570000Y-64745000D02*
X154570000Y-64745000D01*
%TO.C,R4*%
X112895000Y-55920000D02*
X113145000Y-55920000D01*
X113645000Y-56420000D02*
X113645000Y-55920000D01*
X113145000Y-55920000D02*
X113145000Y-56420000D01*
X112895000Y-56420000D02*
X112895000Y-55920000D01*
X113645000Y-55920000D02*
X113895000Y-55920000D01*
X113895000Y-56420000D02*
X113645000Y-56420000D01*
X113895000Y-56420000D02*
X112895000Y-56420000D01*
X113145000Y-56420000D02*
X112895000Y-56420000D01*
X112895000Y-56420000D02*
X112895000Y-55920000D01*
X113895000Y-55920000D02*
X113895000Y-56420000D01*
X113895000Y-55920000D02*
X113895000Y-56420000D01*
X112895000Y-55920000D02*
X113895000Y-55920000D01*
%TO.C,R2*%
X105160000Y-55920000D02*
X105160000Y-56420000D01*
X105160000Y-56420000D02*
X104910000Y-56420000D01*
X104910000Y-56420000D02*
X104910000Y-55920000D01*
X104910000Y-55920000D02*
X105160000Y-55920000D01*
X105660000Y-56420000D02*
X105660000Y-55920000D01*
X105660000Y-55920000D02*
X105910000Y-55920000D01*
X105910000Y-55920000D02*
X105910000Y-56420000D01*
X105910000Y-56420000D02*
X105660000Y-56420000D01*
X104910000Y-56420000D02*
X104910000Y-55920000D01*
X104910000Y-55920000D02*
X105910000Y-55920000D01*
X105910000Y-55920000D02*
X105910000Y-56420000D01*
X105910000Y-56420000D02*
X104910000Y-56420000D01*
%TO.C,R13*%
X110545000Y-48070000D02*
X110545000Y-47570000D01*
X110545000Y-47570000D02*
X110795000Y-47570000D01*
X110795000Y-47570000D02*
X110795000Y-48070000D01*
X110795000Y-48070000D02*
X110545000Y-48070000D01*
X110045000Y-47570000D02*
X110045000Y-48070000D01*
X110045000Y-48070000D02*
X109795000Y-48070000D01*
X109795000Y-48070000D02*
X109795000Y-47570000D01*
X109795000Y-47570000D02*
X110045000Y-47570000D01*
X110795000Y-47570000D02*
X110795000Y-48070000D01*
X110795000Y-48070000D02*
X109795000Y-48070000D01*
X109795000Y-48070000D02*
X109795000Y-47570000D01*
X109795000Y-47570000D02*
X110795000Y-47570000D01*
%TO.C,R10*%
X112370000Y-46645000D02*
X112370000Y-47145000D01*
X112370000Y-47145000D02*
X112120000Y-47145000D01*
X112120000Y-47145000D02*
X112120000Y-46645000D01*
X112120000Y-46645000D02*
X112370000Y-46645000D01*
X112870000Y-47145000D02*
X112870000Y-46645000D01*
X112870000Y-46645000D02*
X113120000Y-46645000D01*
X113120000Y-46645000D02*
X113120000Y-47145000D01*
X113120000Y-47145000D02*
X112870000Y-47145000D01*
X112120000Y-47145000D02*
X112120000Y-46645000D01*
X112120000Y-46645000D02*
X113120000Y-46645000D01*
X113120000Y-46645000D02*
X113120000Y-47145000D01*
X113120000Y-47145000D02*
X112120000Y-47145000D01*
%TO.C,R7*%
X104165000Y-45015000D02*
X104165000Y-45515000D01*
X104165000Y-45515000D02*
X103915000Y-45515000D01*
X103915000Y-45515000D02*
X103915000Y-45015000D01*
X103915000Y-45015000D02*
X104165000Y-45015000D01*
X104665000Y-45515000D02*
X104665000Y-45015000D01*
X104665000Y-45015000D02*
X104915000Y-45015000D01*
X104915000Y-45015000D02*
X104915000Y-45515000D01*
X104915000Y-45515000D02*
X104665000Y-45515000D01*
X103915000Y-45515000D02*
X103915000Y-45015000D01*
X103915000Y-45015000D02*
X104915000Y-45015000D01*
X104915000Y-45015000D02*
X104915000Y-45515000D01*
X104915000Y-45515000D02*
X103915000Y-45515000D01*
%TO.C,R8*%
X108075000Y-44635000D02*
X108075000Y-44135000D01*
X108075000Y-44135000D02*
X108325000Y-44135000D01*
X108325000Y-44135000D02*
X108325000Y-44635000D01*
X108325000Y-44635000D02*
X108075000Y-44635000D01*
X107575000Y-44135000D02*
X107575000Y-44635000D01*
X107575000Y-44635000D02*
X107325000Y-44635000D01*
X107325000Y-44635000D02*
X107325000Y-44135000D01*
X107325000Y-44135000D02*
X107575000Y-44135000D01*
X108325000Y-44135000D02*
X108325000Y-44635000D01*
X108325000Y-44635000D02*
X107325000Y-44635000D01*
X107325000Y-44635000D02*
X107325000Y-44135000D01*
X107325000Y-44135000D02*
X108325000Y-44135000D01*
%TO.C,R5*%
X110380000Y-44125000D02*
X110380000Y-44625000D01*
X110380000Y-44625000D02*
X110130000Y-44625000D01*
X110130000Y-44625000D02*
X110130000Y-44125000D01*
X110130000Y-44125000D02*
X110380000Y-44125000D01*
X110880000Y-44625000D02*
X110880000Y-44125000D01*
X110880000Y-44125000D02*
X111130000Y-44125000D01*
X111130000Y-44125000D02*
X111130000Y-44625000D01*
X111130000Y-44625000D02*
X110880000Y-44625000D01*
X110130000Y-44625000D02*
X110130000Y-44125000D01*
X110130000Y-44125000D02*
X111130000Y-44125000D01*
X111130000Y-44125000D02*
X111130000Y-44625000D01*
X111130000Y-44625000D02*
X110130000Y-44625000D01*
%TO.C,R12*%
X117105000Y-44645000D02*
X118105000Y-44645000D01*
X117105000Y-45145000D02*
X117105000Y-44645000D01*
X118105000Y-45145000D02*
X117105000Y-45145000D01*
X118105000Y-44645000D02*
X118105000Y-45145000D01*
X117105000Y-44645000D02*
X117355000Y-44645000D01*
X117105000Y-45145000D02*
X117105000Y-44645000D01*
X117355000Y-45145000D02*
X117105000Y-45145000D01*
X117355000Y-44645000D02*
X117355000Y-45145000D01*
X118105000Y-45145000D02*
X117855000Y-45145000D01*
X118105000Y-44645000D02*
X118105000Y-45145000D01*
X117855000Y-44645000D02*
X118105000Y-44645000D01*
X117855000Y-45145000D02*
X117855000Y-44645000D01*
%TO.C,R3*%
X136330000Y-47065000D02*
X136330000Y-47565000D01*
X136330000Y-47565000D02*
X136080000Y-47565000D01*
X136080000Y-47565000D02*
X136080000Y-47065000D01*
X136080000Y-47065000D02*
X136330000Y-47065000D01*
X136830000Y-47565000D02*
X136830000Y-47065000D01*
X136830000Y-47065000D02*
X137080000Y-47065000D01*
X137080000Y-47065000D02*
X137080000Y-47565000D01*
X137080000Y-47565000D02*
X136830000Y-47565000D01*
X136080000Y-47565000D02*
X136080000Y-47065000D01*
X136080000Y-47065000D02*
X137080000Y-47065000D01*
X137080000Y-47065000D02*
X137080000Y-47565000D01*
X137080000Y-47565000D02*
X136080000Y-47565000D01*
%TO.C,R11*%
X134095000Y-45870000D02*
X134095000Y-45370000D01*
X134095000Y-45370000D02*
X134345000Y-45370000D01*
X134345000Y-45370000D02*
X134345000Y-45870000D01*
X134345000Y-45870000D02*
X134095000Y-45870000D01*
X133595000Y-45370000D02*
X133595000Y-45870000D01*
X133595000Y-45870000D02*
X133345000Y-45870000D01*
X133345000Y-45870000D02*
X133345000Y-45370000D01*
X133345000Y-45370000D02*
X133595000Y-45370000D01*
X134345000Y-45370000D02*
X134345000Y-45870000D01*
X134345000Y-45870000D02*
X133345000Y-45870000D01*
X133345000Y-45870000D02*
X133345000Y-45370000D01*
X133345000Y-45370000D02*
X134345000Y-45370000D01*
%TO.C,R6*%
X127640000Y-45405000D02*
X127640000Y-45905000D01*
X127640000Y-45905000D02*
X127390000Y-45905000D01*
X127390000Y-45905000D02*
X127390000Y-45405000D01*
X127390000Y-45405000D02*
X127640000Y-45405000D01*
X128140000Y-45905000D02*
X128140000Y-45405000D01*
X128140000Y-45405000D02*
X128390000Y-45405000D01*
X128390000Y-45405000D02*
X128390000Y-45905000D01*
X128390000Y-45905000D02*
X128140000Y-45905000D01*
X127390000Y-45905000D02*
X127390000Y-45405000D01*
X127390000Y-45405000D02*
X128390000Y-45405000D01*
X128390000Y-45405000D02*
X128390000Y-45905000D01*
X128390000Y-45905000D02*
X127390000Y-45905000D01*
%TD*%
M02*
