%TF.GenerationSoftware,KiCad,Pcbnew,(6.0.8)*%
%TF.CreationDate,2022-12-05T17:54:35+01:00*%
%TF.ProjectId,FMC-HPC-BRK,464d432d-4850-4432-9d42-524b2e6b6963,rev?*%
%TF.SameCoordinates,Original*%
%TF.FileFunction,Legend,Top*%
%TF.FilePolarity,Positive*%
%FSLAX46Y46*%
G04 Gerber Fmt 4.6, Leading zero omitted, Abs format (unit mm)*
G04 Created by KiCad (PCBNEW (6.0.8)) date 2022-12-05 17:54:35*
%MOMM*%
%LPD*%
G01*
G04 APERTURE LIST*
%ADD10C,0.150000*%
%ADD11C,0.100000*%
%ADD12C,0.200000*%
%ADD13C,0.120000*%
%ADD14C,0.127000*%
%ADD15C,0.300000*%
G04 APERTURE END LIST*
D10*
%TO.C,K1*%
X108285674Y-29026723D02*
X108285674Y-28023125D01*
X108859158Y-29026723D02*
X108429045Y-28453239D01*
X108859158Y-28023125D02*
X108285674Y-28596610D01*
X109814966Y-29026723D02*
X109241481Y-29026723D01*
X109528224Y-29026723D02*
X109528224Y-28023125D01*
X109432643Y-28166496D01*
X109337062Y-28262077D01*
X109241481Y-28309867D01*
D11*
%TO.C,R1*%
X138220000Y-64096428D02*
X138020000Y-63810714D01*
X137877142Y-64096428D02*
X137877142Y-63496428D01*
X138105714Y-63496428D01*
X138162857Y-63525000D01*
X138191428Y-63553571D01*
X138220000Y-63610714D01*
X138220000Y-63696428D01*
X138191428Y-63753571D01*
X138162857Y-63782142D01*
X138105714Y-63810714D01*
X137877142Y-63810714D01*
X138791428Y-64096428D02*
X138448571Y-64096428D01*
X138620000Y-64096428D02*
X138620000Y-63496428D01*
X138562857Y-63582142D01*
X138505714Y-63639285D01*
X138448571Y-63667857D01*
%TO.C,R9*%
X153970000Y-64166428D02*
X153770000Y-63880714D01*
X153627142Y-64166428D02*
X153627142Y-63566428D01*
X153855714Y-63566428D01*
X153912857Y-63595000D01*
X153941428Y-63623571D01*
X153970000Y-63680714D01*
X153970000Y-63766428D01*
X153941428Y-63823571D01*
X153912857Y-63852142D01*
X153855714Y-63880714D01*
X153627142Y-63880714D01*
X154255714Y-64166428D02*
X154370000Y-64166428D01*
X154427142Y-64137857D01*
X154455714Y-64109285D01*
X154512857Y-64023571D01*
X154541428Y-63909285D01*
X154541428Y-63680714D01*
X154512857Y-63623571D01*
X154484285Y-63595000D01*
X154427142Y-63566428D01*
X154312857Y-63566428D01*
X154255714Y-63595000D01*
X154227142Y-63623571D01*
X154198571Y-63680714D01*
X154198571Y-63823571D01*
X154227142Y-63880714D01*
X154255714Y-63909285D01*
X154312857Y-63937857D01*
X154427142Y-63937857D01*
X154484285Y-63909285D01*
X154512857Y-63880714D01*
X154541428Y-63823571D01*
%TO.C,R4*%
X113295000Y-55341428D02*
X113095000Y-55055714D01*
X112952142Y-55341428D02*
X112952142Y-54741428D01*
X113180714Y-54741428D01*
X113237857Y-54770000D01*
X113266428Y-54798571D01*
X113295000Y-54855714D01*
X113295000Y-54941428D01*
X113266428Y-54998571D01*
X113237857Y-55027142D01*
X113180714Y-55055714D01*
X112952142Y-55055714D01*
X113809285Y-54941428D02*
X113809285Y-55341428D01*
X113666428Y-54712857D02*
X113523571Y-55141428D01*
X113895000Y-55141428D01*
%TO.C,R2*%
X105360000Y-55366428D02*
X105160000Y-55080714D01*
X105017142Y-55366428D02*
X105017142Y-54766428D01*
X105245714Y-54766428D01*
X105302857Y-54795000D01*
X105331428Y-54823571D01*
X105360000Y-54880714D01*
X105360000Y-54966428D01*
X105331428Y-55023571D01*
X105302857Y-55052142D01*
X105245714Y-55080714D01*
X105017142Y-55080714D01*
X105588571Y-54823571D02*
X105617142Y-54795000D01*
X105674285Y-54766428D01*
X105817142Y-54766428D01*
X105874285Y-54795000D01*
X105902857Y-54823571D01*
X105931428Y-54880714D01*
X105931428Y-54937857D01*
X105902857Y-55023571D01*
X105560000Y-55366428D01*
X105931428Y-55366428D01*
%TO.C,R13*%
X109929285Y-47041428D02*
X109729285Y-46755714D01*
X109586428Y-47041428D02*
X109586428Y-46441428D01*
X109815000Y-46441428D01*
X109872142Y-46470000D01*
X109900714Y-46498571D01*
X109929285Y-46555714D01*
X109929285Y-46641428D01*
X109900714Y-46698571D01*
X109872142Y-46727142D01*
X109815000Y-46755714D01*
X109586428Y-46755714D01*
X110500714Y-47041428D02*
X110157857Y-47041428D01*
X110329285Y-47041428D02*
X110329285Y-46441428D01*
X110272142Y-46527142D01*
X110215000Y-46584285D01*
X110157857Y-46612857D01*
X110700714Y-46441428D02*
X111072142Y-46441428D01*
X110872142Y-46670000D01*
X110957857Y-46670000D01*
X111015000Y-46698571D01*
X111043571Y-46727142D01*
X111072142Y-46784285D01*
X111072142Y-46927142D01*
X111043571Y-46984285D01*
X111015000Y-47012857D01*
X110957857Y-47041428D01*
X110786428Y-47041428D01*
X110729285Y-47012857D01*
X110700714Y-46984285D01*
%TO.C,R10*%
X112269285Y-46116428D02*
X112069285Y-45830714D01*
X111926428Y-46116428D02*
X111926428Y-45516428D01*
X112155000Y-45516428D01*
X112212142Y-45545000D01*
X112240714Y-45573571D01*
X112269285Y-45630714D01*
X112269285Y-45716428D01*
X112240714Y-45773571D01*
X112212142Y-45802142D01*
X112155000Y-45830714D01*
X111926428Y-45830714D01*
X112840714Y-46116428D02*
X112497857Y-46116428D01*
X112669285Y-46116428D02*
X112669285Y-45516428D01*
X112612142Y-45602142D01*
X112555000Y-45659285D01*
X112497857Y-45687857D01*
X113212142Y-45516428D02*
X113269285Y-45516428D01*
X113326428Y-45545000D01*
X113355000Y-45573571D01*
X113383571Y-45630714D01*
X113412142Y-45745000D01*
X113412142Y-45887857D01*
X113383571Y-46002142D01*
X113355000Y-46059285D01*
X113326428Y-46087857D01*
X113269285Y-46116428D01*
X113212142Y-46116428D01*
X113155000Y-46087857D01*
X113126428Y-46059285D01*
X113097857Y-46002142D01*
X113069285Y-45887857D01*
X113069285Y-45745000D01*
X113097857Y-45630714D01*
X113126428Y-45573571D01*
X113155000Y-45545000D01*
X113212142Y-45516428D01*
%TO.C,R7*%
X104425000Y-44471428D02*
X104225000Y-44185714D01*
X104082142Y-44471428D02*
X104082142Y-43871428D01*
X104310714Y-43871428D01*
X104367857Y-43900000D01*
X104396428Y-43928571D01*
X104425000Y-43985714D01*
X104425000Y-44071428D01*
X104396428Y-44128571D01*
X104367857Y-44157142D01*
X104310714Y-44185714D01*
X104082142Y-44185714D01*
X104625000Y-43871428D02*
X105025000Y-43871428D01*
X104767857Y-44471428D01*
%TO.C,R8*%
X107720000Y-45761428D02*
X107520000Y-45475714D01*
X107377142Y-45761428D02*
X107377142Y-45161428D01*
X107605714Y-45161428D01*
X107662857Y-45190000D01*
X107691428Y-45218571D01*
X107720000Y-45275714D01*
X107720000Y-45361428D01*
X107691428Y-45418571D01*
X107662857Y-45447142D01*
X107605714Y-45475714D01*
X107377142Y-45475714D01*
X108062857Y-45418571D02*
X108005714Y-45390000D01*
X107977142Y-45361428D01*
X107948571Y-45304285D01*
X107948571Y-45275714D01*
X107977142Y-45218571D01*
X108005714Y-45190000D01*
X108062857Y-45161428D01*
X108177142Y-45161428D01*
X108234285Y-45190000D01*
X108262857Y-45218571D01*
X108291428Y-45275714D01*
X108291428Y-45304285D01*
X108262857Y-45361428D01*
X108234285Y-45390000D01*
X108177142Y-45418571D01*
X108062857Y-45418571D01*
X108005714Y-45447142D01*
X107977142Y-45475714D01*
X107948571Y-45532857D01*
X107948571Y-45647142D01*
X107977142Y-45704285D01*
X108005714Y-45732857D01*
X108062857Y-45761428D01*
X108177142Y-45761428D01*
X108234285Y-45732857D01*
X108262857Y-45704285D01*
X108291428Y-45647142D01*
X108291428Y-45532857D01*
X108262857Y-45475714D01*
X108234285Y-45447142D01*
X108177142Y-45418571D01*
%TO.C,R5*%
X110495000Y-45721428D02*
X110295000Y-45435714D01*
X110152142Y-45721428D02*
X110152142Y-45121428D01*
X110380714Y-45121428D01*
X110437857Y-45150000D01*
X110466428Y-45178571D01*
X110495000Y-45235714D01*
X110495000Y-45321428D01*
X110466428Y-45378571D01*
X110437857Y-45407142D01*
X110380714Y-45435714D01*
X110152142Y-45435714D01*
X111037857Y-45121428D02*
X110752142Y-45121428D01*
X110723571Y-45407142D01*
X110752142Y-45378571D01*
X110809285Y-45350000D01*
X110952142Y-45350000D01*
X111009285Y-45378571D01*
X111037857Y-45407142D01*
X111066428Y-45464285D01*
X111066428Y-45607142D01*
X111037857Y-45664285D01*
X111009285Y-45692857D01*
X110952142Y-45721428D01*
X110809285Y-45721428D01*
X110752142Y-45692857D01*
X110723571Y-45664285D01*
%TO.C,R12*%
X117199285Y-46266428D02*
X116999285Y-45980714D01*
X116856428Y-46266428D02*
X116856428Y-45666428D01*
X117085000Y-45666428D01*
X117142142Y-45695000D01*
X117170714Y-45723571D01*
X117199285Y-45780714D01*
X117199285Y-45866428D01*
X117170714Y-45923571D01*
X117142142Y-45952142D01*
X117085000Y-45980714D01*
X116856428Y-45980714D01*
X117770714Y-46266428D02*
X117427857Y-46266428D01*
X117599285Y-46266428D02*
X117599285Y-45666428D01*
X117542142Y-45752142D01*
X117485000Y-45809285D01*
X117427857Y-45837857D01*
X117999285Y-45723571D02*
X118027857Y-45695000D01*
X118085000Y-45666428D01*
X118227857Y-45666428D01*
X118285000Y-45695000D01*
X118313571Y-45723571D01*
X118342142Y-45780714D01*
X118342142Y-45837857D01*
X118313571Y-45923571D01*
X117970714Y-46266428D01*
X118342142Y-46266428D01*
%TO.C,R3*%
X136505000Y-46531428D02*
X136305000Y-46245714D01*
X136162142Y-46531428D02*
X136162142Y-45931428D01*
X136390714Y-45931428D01*
X136447857Y-45960000D01*
X136476428Y-45988571D01*
X136505000Y-46045714D01*
X136505000Y-46131428D01*
X136476428Y-46188571D01*
X136447857Y-46217142D01*
X136390714Y-46245714D01*
X136162142Y-46245714D01*
X136705000Y-45931428D02*
X137076428Y-45931428D01*
X136876428Y-46160000D01*
X136962142Y-46160000D01*
X137019285Y-46188571D01*
X137047857Y-46217142D01*
X137076428Y-46274285D01*
X137076428Y-46417142D01*
X137047857Y-46474285D01*
X137019285Y-46502857D01*
X136962142Y-46531428D01*
X136790714Y-46531428D01*
X136733571Y-46502857D01*
X136705000Y-46474285D01*
%TO.C,R11*%
X133514285Y-44841428D02*
X133314285Y-44555714D01*
X133171428Y-44841428D02*
X133171428Y-44241428D01*
X133400000Y-44241428D01*
X133457142Y-44270000D01*
X133485714Y-44298571D01*
X133514285Y-44355714D01*
X133514285Y-44441428D01*
X133485714Y-44498571D01*
X133457142Y-44527142D01*
X133400000Y-44555714D01*
X133171428Y-44555714D01*
X134085714Y-44841428D02*
X133742857Y-44841428D01*
X133914285Y-44841428D02*
X133914285Y-44241428D01*
X133857142Y-44327142D01*
X133800000Y-44384285D01*
X133742857Y-44412857D01*
X134657142Y-44841428D02*
X134314285Y-44841428D01*
X134485714Y-44841428D02*
X134485714Y-44241428D01*
X134428571Y-44327142D01*
X134371428Y-44384285D01*
X134314285Y-44412857D01*
%TO.C,R6*%
X127820000Y-44861428D02*
X127620000Y-44575714D01*
X127477142Y-44861428D02*
X127477142Y-44261428D01*
X127705714Y-44261428D01*
X127762857Y-44290000D01*
X127791428Y-44318571D01*
X127820000Y-44375714D01*
X127820000Y-44461428D01*
X127791428Y-44518571D01*
X127762857Y-44547142D01*
X127705714Y-44575714D01*
X127477142Y-44575714D01*
X128334285Y-44261428D02*
X128220000Y-44261428D01*
X128162857Y-44290000D01*
X128134285Y-44318571D01*
X128077142Y-44404285D01*
X128048571Y-44518571D01*
X128048571Y-44747142D01*
X128077142Y-44804285D01*
X128105714Y-44832857D01*
X128162857Y-44861428D01*
X128277142Y-44861428D01*
X128334285Y-44832857D01*
X128362857Y-44804285D01*
X128391428Y-44747142D01*
X128391428Y-44604285D01*
X128362857Y-44547142D01*
X128334285Y-44518571D01*
X128277142Y-44490000D01*
X128162857Y-44490000D01*
X128105714Y-44518571D01*
X128077142Y-44547142D01*
X128048571Y-44604285D01*
%TO.C,C1*%
X129115000Y-55134285D02*
X129086428Y-55162857D01*
X129000714Y-55191428D01*
X128943571Y-55191428D01*
X128857857Y-55162857D01*
X128800714Y-55105714D01*
X128772142Y-55048571D01*
X128743571Y-54934285D01*
X128743571Y-54848571D01*
X128772142Y-54734285D01*
X128800714Y-54677142D01*
X128857857Y-54620000D01*
X128943571Y-54591428D01*
X129000714Y-54591428D01*
X129086428Y-54620000D01*
X129115000Y-54648571D01*
X129686428Y-55191428D02*
X129343571Y-55191428D01*
X129515000Y-55191428D02*
X129515000Y-54591428D01*
X129457857Y-54677142D01*
X129400714Y-54734285D01*
X129343571Y-54762857D01*
%TO.C,LA00_P_CC1*%
X109963053Y-62345719D02*
X109963053Y-62631433D01*
X109363053Y-62631433D01*
X109791625Y-62174290D02*
X109791625Y-61888576D01*
X109963053Y-62231433D02*
X109363053Y-62031433D01*
X109963053Y-61831433D01*
X109363053Y-61517147D02*
X109363053Y-61460005D01*
X109391625Y-61402862D01*
X109420196Y-61374290D01*
X109477339Y-61345719D01*
X109591625Y-61317147D01*
X109734482Y-61317147D01*
X109848767Y-61345719D01*
X109905910Y-61374290D01*
X109934482Y-61402862D01*
X109963053Y-61460005D01*
X109963053Y-61517147D01*
X109934482Y-61574290D01*
X109905910Y-61602862D01*
X109848767Y-61631433D01*
X109734482Y-61660005D01*
X109591625Y-61660005D01*
X109477339Y-61631433D01*
X109420196Y-61602862D01*
X109391625Y-61574290D01*
X109363053Y-61517147D01*
X109363053Y-60945719D02*
X109363053Y-60888576D01*
X109391625Y-60831433D01*
X109420196Y-60802862D01*
X109477339Y-60774290D01*
X109591625Y-60745719D01*
X109734482Y-60745719D01*
X109848767Y-60774290D01*
X109905910Y-60802862D01*
X109934482Y-60831433D01*
X109963053Y-60888576D01*
X109963053Y-60945719D01*
X109934482Y-61002862D01*
X109905910Y-61031433D01*
X109848767Y-61060005D01*
X109734482Y-61088576D01*
X109591625Y-61088576D01*
X109477339Y-61060005D01*
X109420196Y-61031433D01*
X109391625Y-61002862D01*
X109363053Y-60945719D01*
X110020196Y-60631433D02*
X110020196Y-60174290D01*
X109963053Y-60031433D02*
X109363053Y-60031433D01*
X109363053Y-59802862D01*
X109391625Y-59745719D01*
X109420196Y-59717147D01*
X109477339Y-59688576D01*
X109563053Y-59688576D01*
X109620196Y-59717147D01*
X109648767Y-59745719D01*
X109677339Y-59802862D01*
X109677339Y-60031433D01*
X110020196Y-59574290D02*
X110020196Y-59117147D01*
X109905910Y-58631433D02*
X109934482Y-58660005D01*
X109963053Y-58745719D01*
X109963053Y-58802862D01*
X109934482Y-58888576D01*
X109877339Y-58945719D01*
X109820196Y-58974290D01*
X109705910Y-59002862D01*
X109620196Y-59002862D01*
X109505910Y-58974290D01*
X109448767Y-58945719D01*
X109391625Y-58888576D01*
X109363053Y-58802862D01*
X109363053Y-58745719D01*
X109391625Y-58660005D01*
X109420196Y-58631433D01*
X109905910Y-58031433D02*
X109934482Y-58060005D01*
X109963053Y-58145719D01*
X109963053Y-58202862D01*
X109934482Y-58288576D01*
X109877339Y-58345719D01*
X109820196Y-58374290D01*
X109705910Y-58402862D01*
X109620196Y-58402862D01*
X109505910Y-58374290D01*
X109448767Y-58345719D01*
X109391625Y-58288576D01*
X109363053Y-58202862D01*
X109363053Y-58145719D01*
X109391625Y-58060005D01*
X109420196Y-58031433D01*
X109963053Y-57460005D02*
X109963053Y-57802862D01*
X109963053Y-57631433D02*
X109363053Y-57631433D01*
X109448767Y-57688576D01*
X109505910Y-57745719D01*
X109534482Y-57802862D01*
%TO.C,LA32_P1*%
X151898053Y-79517147D02*
X151898053Y-79802862D01*
X151298053Y-79802862D01*
X151726625Y-79345719D02*
X151726625Y-79060005D01*
X151898053Y-79402862D02*
X151298053Y-79202862D01*
X151898053Y-79002862D01*
X151298053Y-78860005D02*
X151298053Y-78488576D01*
X151526625Y-78688576D01*
X151526625Y-78602862D01*
X151555196Y-78545719D01*
X151583767Y-78517147D01*
X151640910Y-78488576D01*
X151783767Y-78488576D01*
X151840910Y-78517147D01*
X151869482Y-78545719D01*
X151898053Y-78602862D01*
X151898053Y-78774290D01*
X151869482Y-78831433D01*
X151840910Y-78860005D01*
X151355196Y-78260005D02*
X151326625Y-78231433D01*
X151298053Y-78174290D01*
X151298053Y-78031433D01*
X151326625Y-77974290D01*
X151355196Y-77945719D01*
X151412339Y-77917147D01*
X151469482Y-77917147D01*
X151555196Y-77945719D01*
X151898053Y-78288576D01*
X151898053Y-77917147D01*
X151955196Y-77802862D02*
X151955196Y-77345719D01*
X151898053Y-77202862D02*
X151298053Y-77202862D01*
X151298053Y-76974290D01*
X151326625Y-76917147D01*
X151355196Y-76888576D01*
X151412339Y-76860005D01*
X151498053Y-76860005D01*
X151555196Y-76888576D01*
X151583767Y-76917147D01*
X151612339Y-76974290D01*
X151612339Y-77202862D01*
X151898053Y-76288576D02*
X151898053Y-76631433D01*
X151898053Y-76460005D02*
X151298053Y-76460005D01*
X151383767Y-76517147D01*
X151440910Y-76574290D01*
X151469482Y-76631433D01*
%TO.C,HA04_P1*%
X111818053Y-79874290D02*
X111218053Y-79874290D01*
X111503767Y-79874290D02*
X111503767Y-79531433D01*
X111818053Y-79531433D02*
X111218053Y-79531433D01*
X111646625Y-79274290D02*
X111646625Y-78988576D01*
X111818053Y-79331433D02*
X111218053Y-79131433D01*
X111818053Y-78931433D01*
X111218053Y-78617147D02*
X111218053Y-78560005D01*
X111246625Y-78502862D01*
X111275196Y-78474290D01*
X111332339Y-78445719D01*
X111446625Y-78417147D01*
X111589482Y-78417147D01*
X111703767Y-78445719D01*
X111760910Y-78474290D01*
X111789482Y-78502862D01*
X111818053Y-78560005D01*
X111818053Y-78617147D01*
X111789482Y-78674290D01*
X111760910Y-78702862D01*
X111703767Y-78731433D01*
X111589482Y-78760005D01*
X111446625Y-78760005D01*
X111332339Y-78731433D01*
X111275196Y-78702862D01*
X111246625Y-78674290D01*
X111218053Y-78617147D01*
X111418053Y-77902862D02*
X111818053Y-77902862D01*
X111189482Y-78045719D02*
X111618053Y-78188576D01*
X111618053Y-77817147D01*
X111875196Y-77731433D02*
X111875196Y-77274290D01*
X111818053Y-77131433D02*
X111218053Y-77131433D01*
X111218053Y-76902862D01*
X111246625Y-76845719D01*
X111275196Y-76817147D01*
X111332339Y-76788576D01*
X111418053Y-76788576D01*
X111475196Y-76817147D01*
X111503767Y-76845719D01*
X111532339Y-76902862D01*
X111532339Y-77131433D01*
X111818053Y-76217147D02*
X111818053Y-76560005D01*
X111818053Y-76388576D02*
X111218053Y-76388576D01*
X111303767Y-76445719D01*
X111360910Y-76502862D01*
X111389482Y-76560005D01*
%TO.C,CLK3_BIDIR_P1*%
X102905910Y-71931433D02*
X102934482Y-71960005D01*
X102963053Y-72045719D01*
X102963053Y-72102862D01*
X102934482Y-72188576D01*
X102877339Y-72245719D01*
X102820196Y-72274290D01*
X102705910Y-72302862D01*
X102620196Y-72302862D01*
X102505910Y-72274290D01*
X102448767Y-72245719D01*
X102391625Y-72188576D01*
X102363053Y-72102862D01*
X102363053Y-72045719D01*
X102391625Y-71960005D01*
X102420196Y-71931433D01*
X102963053Y-71388576D02*
X102963053Y-71674290D01*
X102363053Y-71674290D01*
X102963053Y-71188576D02*
X102363053Y-71188576D01*
X102963053Y-70845719D02*
X102620196Y-71102862D01*
X102363053Y-70845719D02*
X102705910Y-71188576D01*
X102363053Y-70645719D02*
X102363053Y-70274290D01*
X102591625Y-70474290D01*
X102591625Y-70388576D01*
X102620196Y-70331433D01*
X102648767Y-70302862D01*
X102705910Y-70274290D01*
X102848767Y-70274290D01*
X102905910Y-70302862D01*
X102934482Y-70331433D01*
X102963053Y-70388576D01*
X102963053Y-70560005D01*
X102934482Y-70617147D01*
X102905910Y-70645719D01*
X103020196Y-70160005D02*
X103020196Y-69702862D01*
X102648767Y-69360005D02*
X102677339Y-69274290D01*
X102705910Y-69245719D01*
X102763053Y-69217147D01*
X102848767Y-69217147D01*
X102905910Y-69245719D01*
X102934482Y-69274290D01*
X102963053Y-69331433D01*
X102963053Y-69560005D01*
X102363053Y-69560005D01*
X102363053Y-69360005D01*
X102391625Y-69302862D01*
X102420196Y-69274290D01*
X102477339Y-69245719D01*
X102534482Y-69245719D01*
X102591625Y-69274290D01*
X102620196Y-69302862D01*
X102648767Y-69360005D01*
X102648767Y-69560005D01*
X102963053Y-68960005D02*
X102363053Y-68960005D01*
X102963053Y-68674290D02*
X102363053Y-68674290D01*
X102363053Y-68531433D01*
X102391625Y-68445719D01*
X102448767Y-68388576D01*
X102505910Y-68360005D01*
X102620196Y-68331433D01*
X102705910Y-68331433D01*
X102820196Y-68360005D01*
X102877339Y-68388576D01*
X102934482Y-68445719D01*
X102963053Y-68531433D01*
X102963053Y-68674290D01*
X102963053Y-68074290D02*
X102363053Y-68074290D01*
X102963053Y-67445719D02*
X102677339Y-67645719D01*
X102963053Y-67788576D02*
X102363053Y-67788576D01*
X102363053Y-67560005D01*
X102391625Y-67502862D01*
X102420196Y-67474290D01*
X102477339Y-67445719D01*
X102563053Y-67445719D01*
X102620196Y-67474290D01*
X102648767Y-67502862D01*
X102677339Y-67560005D01*
X102677339Y-67788576D01*
X103020196Y-67331433D02*
X103020196Y-66874290D01*
X102963053Y-66731433D02*
X102363053Y-66731433D01*
X102363053Y-66502862D01*
X102391625Y-66445719D01*
X102420196Y-66417147D01*
X102477339Y-66388576D01*
X102563053Y-66388576D01*
X102620196Y-66417147D01*
X102648767Y-66445719D01*
X102677339Y-66502862D01*
X102677339Y-66731433D01*
X102963053Y-65817147D02*
X102963053Y-66160005D01*
X102963053Y-65988576D02*
X102363053Y-65988576D01*
X102448767Y-66045719D01*
X102505910Y-66102862D01*
X102534482Y-66160005D01*
%TO.C,LA13_P1*%
X125748053Y-61512147D02*
X125748053Y-61797862D01*
X125148053Y-61797862D01*
X125576625Y-61340719D02*
X125576625Y-61055005D01*
X125748053Y-61397862D02*
X125148053Y-61197862D01*
X125748053Y-60997862D01*
X125748053Y-60483576D02*
X125748053Y-60826433D01*
X125748053Y-60655005D02*
X125148053Y-60655005D01*
X125233767Y-60712147D01*
X125290910Y-60769290D01*
X125319482Y-60826433D01*
X125148053Y-60283576D02*
X125148053Y-59912147D01*
X125376625Y-60112147D01*
X125376625Y-60026433D01*
X125405196Y-59969290D01*
X125433767Y-59940719D01*
X125490910Y-59912147D01*
X125633767Y-59912147D01*
X125690910Y-59940719D01*
X125719482Y-59969290D01*
X125748053Y-60026433D01*
X125748053Y-60197862D01*
X125719482Y-60255005D01*
X125690910Y-60283576D01*
X125805196Y-59797862D02*
X125805196Y-59340719D01*
X125748053Y-59197862D02*
X125148053Y-59197862D01*
X125148053Y-58969290D01*
X125176625Y-58912147D01*
X125205196Y-58883576D01*
X125262339Y-58855005D01*
X125348053Y-58855005D01*
X125405196Y-58883576D01*
X125433767Y-58912147D01*
X125462339Y-58969290D01*
X125462339Y-59197862D01*
X125748053Y-58283576D02*
X125748053Y-58626433D01*
X125748053Y-58455005D02*
X125148053Y-58455005D01*
X125233767Y-58512147D01*
X125290910Y-58569290D01*
X125319482Y-58626433D01*
%TO.C,HA17_P_CC1*%
X125028053Y-53697862D02*
X124428053Y-53697862D01*
X124713767Y-53697862D02*
X124713767Y-53355005D01*
X125028053Y-53355005D02*
X124428053Y-53355005D01*
X124856625Y-53097862D02*
X124856625Y-52812147D01*
X125028053Y-53155005D02*
X124428053Y-52955005D01*
X125028053Y-52755005D01*
X125028053Y-52240719D02*
X125028053Y-52583576D01*
X125028053Y-52412147D02*
X124428053Y-52412147D01*
X124513767Y-52469290D01*
X124570910Y-52526433D01*
X124599482Y-52583576D01*
X124428053Y-52040719D02*
X124428053Y-51640719D01*
X125028053Y-51897862D01*
X125085196Y-51555005D02*
X125085196Y-51097862D01*
X125028053Y-50955005D02*
X124428053Y-50955005D01*
X124428053Y-50726433D01*
X124456625Y-50669290D01*
X124485196Y-50640719D01*
X124542339Y-50612147D01*
X124628053Y-50612147D01*
X124685196Y-50640719D01*
X124713767Y-50669290D01*
X124742339Y-50726433D01*
X124742339Y-50955005D01*
X125085196Y-50497862D02*
X125085196Y-50040719D01*
X124970910Y-49555005D02*
X124999482Y-49583576D01*
X125028053Y-49669290D01*
X125028053Y-49726433D01*
X124999482Y-49812147D01*
X124942339Y-49869290D01*
X124885196Y-49897862D01*
X124770910Y-49926433D01*
X124685196Y-49926433D01*
X124570910Y-49897862D01*
X124513767Y-49869290D01*
X124456625Y-49812147D01*
X124428053Y-49726433D01*
X124428053Y-49669290D01*
X124456625Y-49583576D01*
X124485196Y-49555005D01*
X124970910Y-48955005D02*
X124999482Y-48983576D01*
X125028053Y-49069290D01*
X125028053Y-49126433D01*
X124999482Y-49212147D01*
X124942339Y-49269290D01*
X124885196Y-49297862D01*
X124770910Y-49326433D01*
X124685196Y-49326433D01*
X124570910Y-49297862D01*
X124513767Y-49269290D01*
X124456625Y-49212147D01*
X124428053Y-49126433D01*
X124428053Y-49069290D01*
X124456625Y-48983576D01*
X124485196Y-48955005D01*
X125028053Y-48383576D02*
X125028053Y-48726433D01*
X125028053Y-48555005D02*
X124428053Y-48555005D01*
X124513767Y-48612147D01*
X124570910Y-48669290D01*
X124599482Y-48726433D01*
%TO.C,LA01_P_CC1*%
X112763053Y-89340719D02*
X112763053Y-89626433D01*
X112163053Y-89626433D01*
X112591625Y-89169290D02*
X112591625Y-88883576D01*
X112763053Y-89226433D02*
X112163053Y-89026433D01*
X112763053Y-88826433D01*
X112163053Y-88512147D02*
X112163053Y-88455005D01*
X112191625Y-88397862D01*
X112220196Y-88369290D01*
X112277339Y-88340719D01*
X112391625Y-88312147D01*
X112534482Y-88312147D01*
X112648767Y-88340719D01*
X112705910Y-88369290D01*
X112734482Y-88397862D01*
X112763053Y-88455005D01*
X112763053Y-88512147D01*
X112734482Y-88569290D01*
X112705910Y-88597862D01*
X112648767Y-88626433D01*
X112534482Y-88655005D01*
X112391625Y-88655005D01*
X112277339Y-88626433D01*
X112220196Y-88597862D01*
X112191625Y-88569290D01*
X112163053Y-88512147D01*
X112763053Y-87740719D02*
X112763053Y-88083576D01*
X112763053Y-87912147D02*
X112163053Y-87912147D01*
X112248767Y-87969290D01*
X112305910Y-88026433D01*
X112334482Y-88083576D01*
X112820196Y-87626433D02*
X112820196Y-87169290D01*
X112763053Y-87026433D02*
X112163053Y-87026433D01*
X112163053Y-86797862D01*
X112191625Y-86740719D01*
X112220196Y-86712147D01*
X112277339Y-86683576D01*
X112363053Y-86683576D01*
X112420196Y-86712147D01*
X112448767Y-86740719D01*
X112477339Y-86797862D01*
X112477339Y-87026433D01*
X112820196Y-86569290D02*
X112820196Y-86112147D01*
X112705910Y-85626433D02*
X112734482Y-85655005D01*
X112763053Y-85740719D01*
X112763053Y-85797862D01*
X112734482Y-85883576D01*
X112677339Y-85940719D01*
X112620196Y-85969290D01*
X112505910Y-85997862D01*
X112420196Y-85997862D01*
X112305910Y-85969290D01*
X112248767Y-85940719D01*
X112191625Y-85883576D01*
X112163053Y-85797862D01*
X112163053Y-85740719D01*
X112191625Y-85655005D01*
X112220196Y-85626433D01*
X112705910Y-85026433D02*
X112734482Y-85055005D01*
X112763053Y-85140719D01*
X112763053Y-85197862D01*
X112734482Y-85283576D01*
X112677339Y-85340719D01*
X112620196Y-85369290D01*
X112505910Y-85397862D01*
X112420196Y-85397862D01*
X112305910Y-85369290D01*
X112248767Y-85340719D01*
X112191625Y-85283576D01*
X112163053Y-85197862D01*
X112163053Y-85140719D01*
X112191625Y-85055005D01*
X112220196Y-85026433D01*
X112763053Y-84455005D02*
X112763053Y-84797862D01*
X112763053Y-84626433D02*
X112163053Y-84626433D01*
X112248767Y-84683576D01*
X112305910Y-84740719D01*
X112334482Y-84797862D01*
%TO.C,HB00_P_CC2*%
X134888053Y-71740719D02*
X134288053Y-71740719D01*
X134573767Y-71740719D02*
X134573767Y-71397862D01*
X134888053Y-71397862D02*
X134288053Y-71397862D01*
X134573767Y-70912147D02*
X134602339Y-70826433D01*
X134630910Y-70797862D01*
X134688053Y-70769290D01*
X134773767Y-70769290D01*
X134830910Y-70797862D01*
X134859482Y-70826433D01*
X134888053Y-70883576D01*
X134888053Y-71112147D01*
X134288053Y-71112147D01*
X134288053Y-70912147D01*
X134316625Y-70855005D01*
X134345196Y-70826433D01*
X134402339Y-70797862D01*
X134459482Y-70797862D01*
X134516625Y-70826433D01*
X134545196Y-70855005D01*
X134573767Y-70912147D01*
X134573767Y-71112147D01*
X134288053Y-70397862D02*
X134288053Y-70340719D01*
X134316625Y-70283576D01*
X134345196Y-70255005D01*
X134402339Y-70226433D01*
X134516625Y-70197862D01*
X134659482Y-70197862D01*
X134773767Y-70226433D01*
X134830910Y-70255005D01*
X134859482Y-70283576D01*
X134888053Y-70340719D01*
X134888053Y-70397862D01*
X134859482Y-70455005D01*
X134830910Y-70483576D01*
X134773767Y-70512147D01*
X134659482Y-70540719D01*
X134516625Y-70540719D01*
X134402339Y-70512147D01*
X134345196Y-70483576D01*
X134316625Y-70455005D01*
X134288053Y-70397862D01*
X134288053Y-69826433D02*
X134288053Y-69769290D01*
X134316625Y-69712147D01*
X134345196Y-69683576D01*
X134402339Y-69655005D01*
X134516625Y-69626433D01*
X134659482Y-69626433D01*
X134773767Y-69655005D01*
X134830910Y-69683576D01*
X134859482Y-69712147D01*
X134888053Y-69769290D01*
X134888053Y-69826433D01*
X134859482Y-69883576D01*
X134830910Y-69912147D01*
X134773767Y-69940719D01*
X134659482Y-69969290D01*
X134516625Y-69969290D01*
X134402339Y-69940719D01*
X134345196Y-69912147D01*
X134316625Y-69883576D01*
X134288053Y-69826433D01*
X134945196Y-69512147D02*
X134945196Y-69055005D01*
X134888053Y-68912147D02*
X134288053Y-68912147D01*
X134288053Y-68683576D01*
X134316625Y-68626433D01*
X134345196Y-68597862D01*
X134402339Y-68569290D01*
X134488053Y-68569290D01*
X134545196Y-68597862D01*
X134573767Y-68626433D01*
X134602339Y-68683576D01*
X134602339Y-68912147D01*
X134945196Y-68455005D02*
X134945196Y-67997862D01*
X134830910Y-67512147D02*
X134859482Y-67540719D01*
X134888053Y-67626433D01*
X134888053Y-67683576D01*
X134859482Y-67769290D01*
X134802339Y-67826433D01*
X134745196Y-67855005D01*
X134630910Y-67883576D01*
X134545196Y-67883576D01*
X134430910Y-67855005D01*
X134373767Y-67826433D01*
X134316625Y-67769290D01*
X134288053Y-67683576D01*
X134288053Y-67626433D01*
X134316625Y-67540719D01*
X134345196Y-67512147D01*
X134830910Y-66912147D02*
X134859482Y-66940719D01*
X134888053Y-67026433D01*
X134888053Y-67083576D01*
X134859482Y-67169290D01*
X134802339Y-67226433D01*
X134745196Y-67255005D01*
X134630910Y-67283576D01*
X134545196Y-67283576D01*
X134430910Y-67255005D01*
X134373767Y-67226433D01*
X134316625Y-67169290D01*
X134288053Y-67083576D01*
X134288053Y-67026433D01*
X134316625Y-66940719D01*
X134345196Y-66912147D01*
X134345196Y-66683576D02*
X134316625Y-66655005D01*
X134288053Y-66597862D01*
X134288053Y-66455005D01*
X134316625Y-66397862D01*
X134345196Y-66369290D01*
X134402339Y-66340719D01*
X134459482Y-66340719D01*
X134545196Y-66369290D01*
X134888053Y-66712147D01*
X134888053Y-66340719D01*
%TO.C,CLK1_M2C_P1*%
X101905910Y-62674290D02*
X101934482Y-62702862D01*
X101963053Y-62788576D01*
X101963053Y-62845719D01*
X101934482Y-62931433D01*
X101877339Y-62988576D01*
X101820196Y-63017147D01*
X101705910Y-63045719D01*
X101620196Y-63045719D01*
X101505910Y-63017147D01*
X101448767Y-62988576D01*
X101391625Y-62931433D01*
X101363053Y-62845719D01*
X101363053Y-62788576D01*
X101391625Y-62702862D01*
X101420196Y-62674290D01*
X101963053Y-62131433D02*
X101963053Y-62417147D01*
X101363053Y-62417147D01*
X101963053Y-61931433D02*
X101363053Y-61931433D01*
X101963053Y-61588576D02*
X101620196Y-61845719D01*
X101363053Y-61588576D02*
X101705910Y-61931433D01*
X101963053Y-61017147D02*
X101963053Y-61360005D01*
X101963053Y-61188576D02*
X101363053Y-61188576D01*
X101448767Y-61245719D01*
X101505910Y-61302862D01*
X101534482Y-61360005D01*
X102020196Y-60902862D02*
X102020196Y-60445719D01*
X101963053Y-60302862D02*
X101363053Y-60302862D01*
X101791625Y-60102862D01*
X101363053Y-59902862D01*
X101963053Y-59902862D01*
X101420196Y-59645719D02*
X101391625Y-59617147D01*
X101363053Y-59560005D01*
X101363053Y-59417147D01*
X101391625Y-59360005D01*
X101420196Y-59331433D01*
X101477339Y-59302862D01*
X101534482Y-59302862D01*
X101620196Y-59331433D01*
X101963053Y-59674290D01*
X101963053Y-59302862D01*
X101905910Y-58702862D02*
X101934482Y-58731433D01*
X101963053Y-58817147D01*
X101963053Y-58874290D01*
X101934482Y-58960005D01*
X101877339Y-59017147D01*
X101820196Y-59045719D01*
X101705910Y-59074290D01*
X101620196Y-59074290D01*
X101505910Y-59045719D01*
X101448767Y-59017147D01*
X101391625Y-58960005D01*
X101363053Y-58874290D01*
X101363053Y-58817147D01*
X101391625Y-58731433D01*
X101420196Y-58702862D01*
X102020196Y-58588576D02*
X102020196Y-58131433D01*
X101963053Y-57988576D02*
X101363053Y-57988576D01*
X101363053Y-57760005D01*
X101391625Y-57702862D01*
X101420196Y-57674290D01*
X101477339Y-57645719D01*
X101563053Y-57645719D01*
X101620196Y-57674290D01*
X101648767Y-57702862D01*
X101677339Y-57760005D01*
X101677339Y-57988576D01*
X101963053Y-57074290D02*
X101963053Y-57417147D01*
X101963053Y-57245719D02*
X101363053Y-57245719D01*
X101448767Y-57302862D01*
X101505910Y-57360005D01*
X101534482Y-57417147D01*
%TO.C,LA17_P_CC1*%
X128963053Y-89345719D02*
X128963053Y-89631433D01*
X128363053Y-89631433D01*
X128791625Y-89174290D02*
X128791625Y-88888576D01*
X128963053Y-89231433D02*
X128363053Y-89031433D01*
X128963053Y-88831433D01*
X128963053Y-88317147D02*
X128963053Y-88660005D01*
X128963053Y-88488576D02*
X128363053Y-88488576D01*
X128448767Y-88545719D01*
X128505910Y-88602862D01*
X128534482Y-88660005D01*
X128363053Y-88117147D02*
X128363053Y-87717147D01*
X128963053Y-87974290D01*
X129020196Y-87631433D02*
X129020196Y-87174290D01*
X128963053Y-87031433D02*
X128363053Y-87031433D01*
X128363053Y-86802862D01*
X128391625Y-86745719D01*
X128420196Y-86717147D01*
X128477339Y-86688576D01*
X128563053Y-86688576D01*
X128620196Y-86717147D01*
X128648767Y-86745719D01*
X128677339Y-86802862D01*
X128677339Y-87031433D01*
X129020196Y-86574290D02*
X129020196Y-86117147D01*
X128905910Y-85631433D02*
X128934482Y-85660005D01*
X128963053Y-85745719D01*
X128963053Y-85802862D01*
X128934482Y-85888576D01*
X128877339Y-85945719D01*
X128820196Y-85974290D01*
X128705910Y-86002862D01*
X128620196Y-86002862D01*
X128505910Y-85974290D01*
X128448767Y-85945719D01*
X128391625Y-85888576D01*
X128363053Y-85802862D01*
X128363053Y-85745719D01*
X128391625Y-85660005D01*
X128420196Y-85631433D01*
X128905910Y-85031433D02*
X128934482Y-85060005D01*
X128963053Y-85145719D01*
X128963053Y-85202862D01*
X128934482Y-85288576D01*
X128877339Y-85345719D01*
X128820196Y-85374290D01*
X128705910Y-85402862D01*
X128620196Y-85402862D01*
X128505910Y-85374290D01*
X128448767Y-85345719D01*
X128391625Y-85288576D01*
X128363053Y-85202862D01*
X128363053Y-85145719D01*
X128391625Y-85060005D01*
X128420196Y-85031433D01*
X128963053Y-84460005D02*
X128963053Y-84802862D01*
X128963053Y-84631433D02*
X128363053Y-84631433D01*
X128448767Y-84688576D01*
X128505910Y-84745719D01*
X128534482Y-84802862D01*
%TO.C,HB21_P1*%
X163654803Y-52792137D02*
X163054803Y-52792137D01*
X163340517Y-52792137D02*
X163340517Y-52449280D01*
X163654803Y-52449280D02*
X163054803Y-52449280D01*
X163340517Y-51963566D02*
X163369089Y-51877852D01*
X163397660Y-51849280D01*
X163454803Y-51820709D01*
X163540517Y-51820709D01*
X163597660Y-51849280D01*
X163626232Y-51877852D01*
X163654803Y-51934995D01*
X163654803Y-52163566D01*
X163054803Y-52163566D01*
X163054803Y-51963566D01*
X163083375Y-51906423D01*
X163111946Y-51877852D01*
X163169089Y-51849280D01*
X163226232Y-51849280D01*
X163283375Y-51877852D01*
X163311946Y-51906423D01*
X163340517Y-51963566D01*
X163340517Y-52163566D01*
X163111946Y-51592137D02*
X163083375Y-51563566D01*
X163054803Y-51506423D01*
X163054803Y-51363566D01*
X163083375Y-51306423D01*
X163111946Y-51277852D01*
X163169089Y-51249280D01*
X163226232Y-51249280D01*
X163311946Y-51277852D01*
X163654803Y-51620709D01*
X163654803Y-51249280D01*
X163654803Y-50677852D02*
X163654803Y-51020709D01*
X163654803Y-50849280D02*
X163054803Y-50849280D01*
X163140517Y-50906423D01*
X163197660Y-50963566D01*
X163226232Y-51020709D01*
X163711946Y-50563566D02*
X163711946Y-50106423D01*
X163654803Y-49963566D02*
X163054803Y-49963566D01*
X163054803Y-49734995D01*
X163083375Y-49677852D01*
X163111946Y-49649280D01*
X163169089Y-49620709D01*
X163254803Y-49620709D01*
X163311946Y-49649280D01*
X163340517Y-49677852D01*
X163369089Y-49734995D01*
X163369089Y-49963566D01*
X163654803Y-49049280D02*
X163654803Y-49392137D01*
X163654803Y-49220709D02*
X163054803Y-49220709D01*
X163140517Y-49277852D01*
X163197660Y-49334995D01*
X163226232Y-49392137D01*
%TO.C,LA21_P1*%
X135963053Y-79517147D02*
X135963053Y-79802862D01*
X135363053Y-79802862D01*
X135791625Y-79345719D02*
X135791625Y-79060005D01*
X135963053Y-79402862D02*
X135363053Y-79202862D01*
X135963053Y-79002862D01*
X135420196Y-78831433D02*
X135391625Y-78802862D01*
X135363053Y-78745719D01*
X135363053Y-78602862D01*
X135391625Y-78545719D01*
X135420196Y-78517147D01*
X135477339Y-78488576D01*
X135534482Y-78488576D01*
X135620196Y-78517147D01*
X135963053Y-78860005D01*
X135963053Y-78488576D01*
X135963053Y-77917147D02*
X135963053Y-78260005D01*
X135963053Y-78088576D02*
X135363053Y-78088576D01*
X135448767Y-78145719D01*
X135505910Y-78202862D01*
X135534482Y-78260005D01*
X136020196Y-77802862D02*
X136020196Y-77345719D01*
X135963053Y-77202862D02*
X135363053Y-77202862D01*
X135363053Y-76974290D01*
X135391625Y-76917147D01*
X135420196Y-76888576D01*
X135477339Y-76860005D01*
X135563053Y-76860005D01*
X135620196Y-76888576D01*
X135648767Y-76917147D01*
X135677339Y-76974290D01*
X135677339Y-77202862D01*
X135963053Y-76288576D02*
X135963053Y-76631433D01*
X135963053Y-76460005D02*
X135363053Y-76460005D01*
X135448767Y-76517147D01*
X135505910Y-76574290D01*
X135534482Y-76631433D01*
%TO.C,HA00_P_CC1*%
X109208053Y-53702862D02*
X108608053Y-53702862D01*
X108893767Y-53702862D02*
X108893767Y-53360005D01*
X109208053Y-53360005D02*
X108608053Y-53360005D01*
X109036625Y-53102862D02*
X109036625Y-52817147D01*
X109208053Y-53160005D02*
X108608053Y-52960005D01*
X109208053Y-52760005D01*
X108608053Y-52445719D02*
X108608053Y-52388576D01*
X108636625Y-52331433D01*
X108665196Y-52302862D01*
X108722339Y-52274290D01*
X108836625Y-52245719D01*
X108979482Y-52245719D01*
X109093767Y-52274290D01*
X109150910Y-52302862D01*
X109179482Y-52331433D01*
X109208053Y-52388576D01*
X109208053Y-52445719D01*
X109179482Y-52502862D01*
X109150910Y-52531433D01*
X109093767Y-52560005D01*
X108979482Y-52588576D01*
X108836625Y-52588576D01*
X108722339Y-52560005D01*
X108665196Y-52531433D01*
X108636625Y-52502862D01*
X108608053Y-52445719D01*
X108608053Y-51874290D02*
X108608053Y-51817147D01*
X108636625Y-51760005D01*
X108665196Y-51731433D01*
X108722339Y-51702862D01*
X108836625Y-51674290D01*
X108979482Y-51674290D01*
X109093767Y-51702862D01*
X109150910Y-51731433D01*
X109179482Y-51760005D01*
X109208053Y-51817147D01*
X109208053Y-51874290D01*
X109179482Y-51931433D01*
X109150910Y-51960005D01*
X109093767Y-51988576D01*
X108979482Y-52017147D01*
X108836625Y-52017147D01*
X108722339Y-51988576D01*
X108665196Y-51960005D01*
X108636625Y-51931433D01*
X108608053Y-51874290D01*
X109265196Y-51560005D02*
X109265196Y-51102862D01*
X109208053Y-50960005D02*
X108608053Y-50960005D01*
X108608053Y-50731433D01*
X108636625Y-50674290D01*
X108665196Y-50645719D01*
X108722339Y-50617147D01*
X108808053Y-50617147D01*
X108865196Y-50645719D01*
X108893767Y-50674290D01*
X108922339Y-50731433D01*
X108922339Y-50960005D01*
X109265196Y-50502862D02*
X109265196Y-50045719D01*
X109150910Y-49560005D02*
X109179482Y-49588576D01*
X109208053Y-49674290D01*
X109208053Y-49731433D01*
X109179482Y-49817147D01*
X109122339Y-49874290D01*
X109065196Y-49902862D01*
X108950910Y-49931433D01*
X108865196Y-49931433D01*
X108750910Y-49902862D01*
X108693767Y-49874290D01*
X108636625Y-49817147D01*
X108608053Y-49731433D01*
X108608053Y-49674290D01*
X108636625Y-49588576D01*
X108665196Y-49560005D01*
X109150910Y-48960005D02*
X109179482Y-48988576D01*
X109208053Y-49074290D01*
X109208053Y-49131433D01*
X109179482Y-49217147D01*
X109122339Y-49274290D01*
X109065196Y-49302862D01*
X108950910Y-49331433D01*
X108865196Y-49331433D01*
X108750910Y-49302862D01*
X108693767Y-49274290D01*
X108636625Y-49217147D01*
X108608053Y-49131433D01*
X108608053Y-49074290D01*
X108636625Y-48988576D01*
X108665196Y-48960005D01*
X109208053Y-48388576D02*
X109208053Y-48731433D01*
X109208053Y-48560005D02*
X108608053Y-48560005D01*
X108693767Y-48617147D01*
X108750910Y-48674290D01*
X108779482Y-48731433D01*
%TO.C,CLK2_BIDIR_P1*%
X104905910Y-89931433D02*
X104934482Y-89960005D01*
X104963053Y-90045719D01*
X104963053Y-90102862D01*
X104934482Y-90188576D01*
X104877339Y-90245719D01*
X104820196Y-90274290D01*
X104705910Y-90302862D01*
X104620196Y-90302862D01*
X104505910Y-90274290D01*
X104448767Y-90245719D01*
X104391625Y-90188576D01*
X104363053Y-90102862D01*
X104363053Y-90045719D01*
X104391625Y-89960005D01*
X104420196Y-89931433D01*
X104963053Y-89388576D02*
X104963053Y-89674290D01*
X104363053Y-89674290D01*
X104963053Y-89188576D02*
X104363053Y-89188576D01*
X104963053Y-88845719D02*
X104620196Y-89102862D01*
X104363053Y-88845719D02*
X104705910Y-89188576D01*
X104420196Y-88617147D02*
X104391625Y-88588576D01*
X104363053Y-88531433D01*
X104363053Y-88388576D01*
X104391625Y-88331433D01*
X104420196Y-88302862D01*
X104477339Y-88274290D01*
X104534482Y-88274290D01*
X104620196Y-88302862D01*
X104963053Y-88645719D01*
X104963053Y-88274290D01*
X105020196Y-88160005D02*
X105020196Y-87702862D01*
X104648767Y-87360005D02*
X104677339Y-87274290D01*
X104705910Y-87245719D01*
X104763053Y-87217147D01*
X104848767Y-87217147D01*
X104905910Y-87245719D01*
X104934482Y-87274290D01*
X104963053Y-87331433D01*
X104963053Y-87560005D01*
X104363053Y-87560005D01*
X104363053Y-87360005D01*
X104391625Y-87302862D01*
X104420196Y-87274290D01*
X104477339Y-87245719D01*
X104534482Y-87245719D01*
X104591625Y-87274290D01*
X104620196Y-87302862D01*
X104648767Y-87360005D01*
X104648767Y-87560005D01*
X104963053Y-86960005D02*
X104363053Y-86960005D01*
X104963053Y-86674290D02*
X104363053Y-86674290D01*
X104363053Y-86531433D01*
X104391625Y-86445719D01*
X104448767Y-86388576D01*
X104505910Y-86360005D01*
X104620196Y-86331433D01*
X104705910Y-86331433D01*
X104820196Y-86360005D01*
X104877339Y-86388576D01*
X104934482Y-86445719D01*
X104963053Y-86531433D01*
X104963053Y-86674290D01*
X104963053Y-86074290D02*
X104363053Y-86074290D01*
X104963053Y-85445719D02*
X104677339Y-85645719D01*
X104963053Y-85788576D02*
X104363053Y-85788576D01*
X104363053Y-85560005D01*
X104391625Y-85502862D01*
X104420196Y-85474290D01*
X104477339Y-85445719D01*
X104563053Y-85445719D01*
X104620196Y-85474290D01*
X104648767Y-85502862D01*
X104677339Y-85560005D01*
X104677339Y-85788576D01*
X105020196Y-85331433D02*
X105020196Y-84874290D01*
X104963053Y-84731433D02*
X104363053Y-84731433D01*
X104363053Y-84502862D01*
X104391625Y-84445719D01*
X104420196Y-84417147D01*
X104477339Y-84388576D01*
X104563053Y-84388576D01*
X104620196Y-84417147D01*
X104648767Y-84445719D01*
X104677339Y-84502862D01*
X104677339Y-84731433D01*
X104963053Y-83817147D02*
X104963053Y-84160005D01*
X104963053Y-83988576D02*
X104363053Y-83988576D01*
X104448767Y-84045719D01*
X104505910Y-84102862D01*
X104534482Y-84160005D01*
%TO.C,HA13_P1*%
X117608053Y-61874290D02*
X117008053Y-61874290D01*
X117293767Y-61874290D02*
X117293767Y-61531433D01*
X117608053Y-61531433D02*
X117008053Y-61531433D01*
X117436625Y-61274290D02*
X117436625Y-60988576D01*
X117608053Y-61331433D02*
X117008053Y-61131433D01*
X117608053Y-60931433D01*
X117608053Y-60417147D02*
X117608053Y-60760005D01*
X117608053Y-60588576D02*
X117008053Y-60588576D01*
X117093767Y-60645719D01*
X117150910Y-60702862D01*
X117179482Y-60760005D01*
X117008053Y-60217147D02*
X117008053Y-59845719D01*
X117236625Y-60045719D01*
X117236625Y-59960005D01*
X117265196Y-59902862D01*
X117293767Y-59874290D01*
X117350910Y-59845719D01*
X117493767Y-59845719D01*
X117550910Y-59874290D01*
X117579482Y-59902862D01*
X117608053Y-59960005D01*
X117608053Y-60131433D01*
X117579482Y-60188576D01*
X117550910Y-60217147D01*
X117665196Y-59731433D02*
X117665196Y-59274290D01*
X117608053Y-59131433D02*
X117008053Y-59131433D01*
X117008053Y-58902862D01*
X117036625Y-58845719D01*
X117065196Y-58817147D01*
X117122339Y-58788576D01*
X117208053Y-58788576D01*
X117265196Y-58817147D01*
X117293767Y-58845719D01*
X117322339Y-58902862D01*
X117322339Y-59131433D01*
X117608053Y-58217147D02*
X117608053Y-58560005D01*
X117608053Y-58388576D02*
X117008053Y-58388576D01*
X117093767Y-58445719D01*
X117150910Y-58502862D01*
X117179482Y-58560005D01*
%TO.C,LA18_P_CC1*%
X133208053Y-53345719D02*
X133208053Y-53631433D01*
X132608053Y-53631433D01*
X133036625Y-53174290D02*
X133036625Y-52888576D01*
X133208053Y-53231433D02*
X132608053Y-53031433D01*
X133208053Y-52831433D01*
X133208053Y-52317147D02*
X133208053Y-52660005D01*
X133208053Y-52488576D02*
X132608053Y-52488576D01*
X132693767Y-52545719D01*
X132750910Y-52602862D01*
X132779482Y-52660005D01*
X132865196Y-51974290D02*
X132836625Y-52031433D01*
X132808053Y-52060005D01*
X132750910Y-52088576D01*
X132722339Y-52088576D01*
X132665196Y-52060005D01*
X132636625Y-52031433D01*
X132608053Y-51974290D01*
X132608053Y-51860005D01*
X132636625Y-51802862D01*
X132665196Y-51774290D01*
X132722339Y-51745719D01*
X132750910Y-51745719D01*
X132808053Y-51774290D01*
X132836625Y-51802862D01*
X132865196Y-51860005D01*
X132865196Y-51974290D01*
X132893767Y-52031433D01*
X132922339Y-52060005D01*
X132979482Y-52088576D01*
X133093767Y-52088576D01*
X133150910Y-52060005D01*
X133179482Y-52031433D01*
X133208053Y-51974290D01*
X133208053Y-51860005D01*
X133179482Y-51802862D01*
X133150910Y-51774290D01*
X133093767Y-51745719D01*
X132979482Y-51745719D01*
X132922339Y-51774290D01*
X132893767Y-51802862D01*
X132865196Y-51860005D01*
X133265196Y-51631433D02*
X133265196Y-51174290D01*
X133208053Y-51031433D02*
X132608053Y-51031433D01*
X132608053Y-50802862D01*
X132636625Y-50745719D01*
X132665196Y-50717147D01*
X132722339Y-50688576D01*
X132808053Y-50688576D01*
X132865196Y-50717147D01*
X132893767Y-50745719D01*
X132922339Y-50802862D01*
X132922339Y-51031433D01*
X133265196Y-50574290D02*
X133265196Y-50117147D01*
X133150910Y-49631433D02*
X133179482Y-49660005D01*
X133208053Y-49745719D01*
X133208053Y-49802862D01*
X133179482Y-49888576D01*
X133122339Y-49945719D01*
X133065196Y-49974290D01*
X132950910Y-50002862D01*
X132865196Y-50002862D01*
X132750910Y-49974290D01*
X132693767Y-49945719D01*
X132636625Y-49888576D01*
X132608053Y-49802862D01*
X132608053Y-49745719D01*
X132636625Y-49660005D01*
X132665196Y-49631433D01*
X133150910Y-49031433D02*
X133179482Y-49060005D01*
X133208053Y-49145719D01*
X133208053Y-49202862D01*
X133179482Y-49288576D01*
X133122339Y-49345719D01*
X133065196Y-49374290D01*
X132950910Y-49402862D01*
X132865196Y-49402862D01*
X132750910Y-49374290D01*
X132693767Y-49345719D01*
X132636625Y-49288576D01*
X132608053Y-49202862D01*
X132608053Y-49145719D01*
X132636625Y-49060005D01*
X132665196Y-49031433D01*
X133208053Y-48460005D02*
X133208053Y-48802862D01*
X133208053Y-48631433D02*
X132608053Y-48631433D01*
X132693767Y-48688576D01*
X132750910Y-48745719D01*
X132779482Y-48802862D01*
%TO.C,HA21_P1*%
X127703053Y-79874290D02*
X127103053Y-79874290D01*
X127388767Y-79874290D02*
X127388767Y-79531433D01*
X127703053Y-79531433D02*
X127103053Y-79531433D01*
X127531625Y-79274290D02*
X127531625Y-78988576D01*
X127703053Y-79331433D02*
X127103053Y-79131433D01*
X127703053Y-78931433D01*
X127160196Y-78760005D02*
X127131625Y-78731433D01*
X127103053Y-78674290D01*
X127103053Y-78531433D01*
X127131625Y-78474290D01*
X127160196Y-78445719D01*
X127217339Y-78417147D01*
X127274482Y-78417147D01*
X127360196Y-78445719D01*
X127703053Y-78788576D01*
X127703053Y-78417147D01*
X127703053Y-77845719D02*
X127703053Y-78188576D01*
X127703053Y-78017147D02*
X127103053Y-78017147D01*
X127188767Y-78074290D01*
X127245910Y-78131433D01*
X127274482Y-78188576D01*
X127760196Y-77731433D02*
X127760196Y-77274290D01*
X127703053Y-77131433D02*
X127103053Y-77131433D01*
X127103053Y-76902862D01*
X127131625Y-76845719D01*
X127160196Y-76817147D01*
X127217339Y-76788576D01*
X127303053Y-76788576D01*
X127360196Y-76817147D01*
X127388767Y-76845719D01*
X127417339Y-76902862D01*
X127417339Y-77131433D01*
X127703053Y-76217147D02*
X127703053Y-76560005D01*
X127703053Y-76388576D02*
X127103053Y-76388576D01*
X127188767Y-76445719D01*
X127245910Y-76502862D01*
X127274482Y-76560005D01*
%TO.C,HB17_P_CC1*%
X150648053Y-71745719D02*
X150048053Y-71745719D01*
X150333767Y-71745719D02*
X150333767Y-71402862D01*
X150648053Y-71402862D02*
X150048053Y-71402862D01*
X150333767Y-70917147D02*
X150362339Y-70831433D01*
X150390910Y-70802862D01*
X150448053Y-70774290D01*
X150533767Y-70774290D01*
X150590910Y-70802862D01*
X150619482Y-70831433D01*
X150648053Y-70888576D01*
X150648053Y-71117147D01*
X150048053Y-71117147D01*
X150048053Y-70917147D01*
X150076625Y-70860005D01*
X150105196Y-70831433D01*
X150162339Y-70802862D01*
X150219482Y-70802862D01*
X150276625Y-70831433D01*
X150305196Y-70860005D01*
X150333767Y-70917147D01*
X150333767Y-71117147D01*
X150648053Y-70202862D02*
X150648053Y-70545719D01*
X150648053Y-70374290D02*
X150048053Y-70374290D01*
X150133767Y-70431433D01*
X150190910Y-70488576D01*
X150219482Y-70545719D01*
X150048053Y-70002862D02*
X150048053Y-69602862D01*
X150648053Y-69860005D01*
X150705196Y-69517147D02*
X150705196Y-69060005D01*
X150648053Y-68917147D02*
X150048053Y-68917147D01*
X150048053Y-68688576D01*
X150076625Y-68631433D01*
X150105196Y-68602862D01*
X150162339Y-68574290D01*
X150248053Y-68574290D01*
X150305196Y-68602862D01*
X150333767Y-68631433D01*
X150362339Y-68688576D01*
X150362339Y-68917147D01*
X150705196Y-68460005D02*
X150705196Y-68002862D01*
X150590910Y-67517147D02*
X150619482Y-67545719D01*
X150648053Y-67631433D01*
X150648053Y-67688576D01*
X150619482Y-67774290D01*
X150562339Y-67831433D01*
X150505196Y-67860005D01*
X150390910Y-67888576D01*
X150305196Y-67888576D01*
X150190910Y-67860005D01*
X150133767Y-67831433D01*
X150076625Y-67774290D01*
X150048053Y-67688576D01*
X150048053Y-67631433D01*
X150076625Y-67545719D01*
X150105196Y-67517147D01*
X150590910Y-66917147D02*
X150619482Y-66945719D01*
X150648053Y-67031433D01*
X150648053Y-67088576D01*
X150619482Y-67174290D01*
X150562339Y-67231433D01*
X150505196Y-67260005D01*
X150390910Y-67288576D01*
X150305196Y-67288576D01*
X150190910Y-67260005D01*
X150133767Y-67231433D01*
X150076625Y-67174290D01*
X150048053Y-67088576D01*
X150048053Y-67031433D01*
X150076625Y-66945719D01*
X150105196Y-66917147D01*
X150648053Y-66345719D02*
X150648053Y-66688576D01*
X150648053Y-66517147D02*
X150048053Y-66517147D01*
X150133767Y-66574290D01*
X150190910Y-66631433D01*
X150219482Y-66688576D01*
%TO.C,LA07_P1*%
X118833053Y-70522147D02*
X118833053Y-70807862D01*
X118233053Y-70807862D01*
X118661625Y-70350719D02*
X118661625Y-70065005D01*
X118833053Y-70407862D02*
X118233053Y-70207862D01*
X118833053Y-70007862D01*
X118233053Y-69693576D02*
X118233053Y-69636433D01*
X118261625Y-69579290D01*
X118290196Y-69550719D01*
X118347339Y-69522147D01*
X118461625Y-69493576D01*
X118604482Y-69493576D01*
X118718767Y-69522147D01*
X118775910Y-69550719D01*
X118804482Y-69579290D01*
X118833053Y-69636433D01*
X118833053Y-69693576D01*
X118804482Y-69750719D01*
X118775910Y-69779290D01*
X118718767Y-69807862D01*
X118604482Y-69836433D01*
X118461625Y-69836433D01*
X118347339Y-69807862D01*
X118290196Y-69779290D01*
X118261625Y-69750719D01*
X118233053Y-69693576D01*
X118233053Y-69293576D02*
X118233053Y-68893576D01*
X118833053Y-69150719D01*
X118890196Y-68807862D02*
X118890196Y-68350719D01*
X118833053Y-68207862D02*
X118233053Y-68207862D01*
X118233053Y-67979290D01*
X118261625Y-67922147D01*
X118290196Y-67893576D01*
X118347339Y-67865005D01*
X118433053Y-67865005D01*
X118490196Y-67893576D01*
X118518767Y-67922147D01*
X118547339Y-67979290D01*
X118547339Y-68207862D01*
X118833053Y-67293576D02*
X118833053Y-67636433D01*
X118833053Y-67465005D02*
X118233053Y-67465005D01*
X118318767Y-67522147D01*
X118375910Y-67579290D01*
X118404482Y-67636433D01*
%TO.C,HB06_P_CC1*%
X142263053Y-62740719D02*
X141663053Y-62740719D01*
X141948767Y-62740719D02*
X141948767Y-62397862D01*
X142263053Y-62397862D02*
X141663053Y-62397862D01*
X141948767Y-61912147D02*
X141977339Y-61826433D01*
X142005910Y-61797862D01*
X142063053Y-61769290D01*
X142148767Y-61769290D01*
X142205910Y-61797862D01*
X142234482Y-61826433D01*
X142263053Y-61883576D01*
X142263053Y-62112147D01*
X141663053Y-62112147D01*
X141663053Y-61912147D01*
X141691625Y-61855005D01*
X141720196Y-61826433D01*
X141777339Y-61797862D01*
X141834482Y-61797862D01*
X141891625Y-61826433D01*
X141920196Y-61855005D01*
X141948767Y-61912147D01*
X141948767Y-62112147D01*
X141663053Y-61397862D02*
X141663053Y-61340719D01*
X141691625Y-61283576D01*
X141720196Y-61255005D01*
X141777339Y-61226433D01*
X141891625Y-61197862D01*
X142034482Y-61197862D01*
X142148767Y-61226433D01*
X142205910Y-61255005D01*
X142234482Y-61283576D01*
X142263053Y-61340719D01*
X142263053Y-61397862D01*
X142234482Y-61455005D01*
X142205910Y-61483576D01*
X142148767Y-61512147D01*
X142034482Y-61540719D01*
X141891625Y-61540719D01*
X141777339Y-61512147D01*
X141720196Y-61483576D01*
X141691625Y-61455005D01*
X141663053Y-61397862D01*
X141663053Y-60683576D02*
X141663053Y-60797862D01*
X141691625Y-60855005D01*
X141720196Y-60883576D01*
X141805910Y-60940719D01*
X141920196Y-60969290D01*
X142148767Y-60969290D01*
X142205910Y-60940719D01*
X142234482Y-60912147D01*
X142263053Y-60855005D01*
X142263053Y-60740719D01*
X142234482Y-60683576D01*
X142205910Y-60655005D01*
X142148767Y-60626433D01*
X142005910Y-60626433D01*
X141948767Y-60655005D01*
X141920196Y-60683576D01*
X141891625Y-60740719D01*
X141891625Y-60855005D01*
X141920196Y-60912147D01*
X141948767Y-60940719D01*
X142005910Y-60969290D01*
X142320196Y-60512147D02*
X142320196Y-60055005D01*
X142263053Y-59912147D02*
X141663053Y-59912147D01*
X141663053Y-59683576D01*
X141691625Y-59626433D01*
X141720196Y-59597862D01*
X141777339Y-59569290D01*
X141863053Y-59569290D01*
X141920196Y-59597862D01*
X141948767Y-59626433D01*
X141977339Y-59683576D01*
X141977339Y-59912147D01*
X142320196Y-59455005D02*
X142320196Y-58997862D01*
X142205910Y-58512147D02*
X142234482Y-58540719D01*
X142263053Y-58626433D01*
X142263053Y-58683576D01*
X142234482Y-58769290D01*
X142177339Y-58826433D01*
X142120196Y-58855005D01*
X142005910Y-58883576D01*
X141920196Y-58883576D01*
X141805910Y-58855005D01*
X141748767Y-58826433D01*
X141691625Y-58769290D01*
X141663053Y-58683576D01*
X141663053Y-58626433D01*
X141691625Y-58540719D01*
X141720196Y-58512147D01*
X142205910Y-57912147D02*
X142234482Y-57940719D01*
X142263053Y-58026433D01*
X142263053Y-58083576D01*
X142234482Y-58169290D01*
X142177339Y-58226433D01*
X142120196Y-58255005D01*
X142005910Y-58283576D01*
X141920196Y-58283576D01*
X141805910Y-58255005D01*
X141748767Y-58226433D01*
X141691625Y-58169290D01*
X141663053Y-58083576D01*
X141663053Y-58026433D01*
X141691625Y-57940719D01*
X141720196Y-57912147D01*
X142263053Y-57340719D02*
X142263053Y-57683576D01*
X142263053Y-57512147D02*
X141663053Y-57512147D01*
X141748767Y-57569290D01*
X141805910Y-57626433D01*
X141834482Y-57683576D01*
%TO.C,HB18_P1*%
X148643053Y-52917147D02*
X148043053Y-52917147D01*
X148328767Y-52917147D02*
X148328767Y-52574290D01*
X148643053Y-52574290D02*
X148043053Y-52574290D01*
X148328767Y-52088576D02*
X148357339Y-52002862D01*
X148385910Y-51974290D01*
X148443053Y-51945719D01*
X148528767Y-51945719D01*
X148585910Y-51974290D01*
X148614482Y-52002862D01*
X148643053Y-52060005D01*
X148643053Y-52288576D01*
X148043053Y-52288576D01*
X148043053Y-52088576D01*
X148071625Y-52031433D01*
X148100196Y-52002862D01*
X148157339Y-51974290D01*
X148214482Y-51974290D01*
X148271625Y-52002862D01*
X148300196Y-52031433D01*
X148328767Y-52088576D01*
X148328767Y-52288576D01*
X148643053Y-51374290D02*
X148643053Y-51717147D01*
X148643053Y-51545719D02*
X148043053Y-51545719D01*
X148128767Y-51602862D01*
X148185910Y-51660005D01*
X148214482Y-51717147D01*
X148300196Y-51031433D02*
X148271625Y-51088576D01*
X148243053Y-51117147D01*
X148185910Y-51145719D01*
X148157339Y-51145719D01*
X148100196Y-51117147D01*
X148071625Y-51088576D01*
X148043053Y-51031433D01*
X148043053Y-50917147D01*
X148071625Y-50860005D01*
X148100196Y-50831433D01*
X148157339Y-50802862D01*
X148185910Y-50802862D01*
X148243053Y-50831433D01*
X148271625Y-50860005D01*
X148300196Y-50917147D01*
X148300196Y-51031433D01*
X148328767Y-51088576D01*
X148357339Y-51117147D01*
X148414482Y-51145719D01*
X148528767Y-51145719D01*
X148585910Y-51117147D01*
X148614482Y-51088576D01*
X148643053Y-51031433D01*
X148643053Y-50917147D01*
X148614482Y-50860005D01*
X148585910Y-50831433D01*
X148528767Y-50802862D01*
X148414482Y-50802862D01*
X148357339Y-50831433D01*
X148328767Y-50860005D01*
X148300196Y-50917147D01*
X148700196Y-50688576D02*
X148700196Y-50231433D01*
X148643053Y-50088576D02*
X148043053Y-50088576D01*
X148043053Y-49860005D01*
X148071625Y-49802862D01*
X148100196Y-49774290D01*
X148157339Y-49745719D01*
X148243053Y-49745719D01*
X148300196Y-49774290D01*
X148328767Y-49802862D01*
X148357339Y-49860005D01*
X148357339Y-50088576D01*
X148643053Y-49174290D02*
X148643053Y-49517147D01*
X148643053Y-49345719D02*
X148043053Y-49345719D01*
X148128767Y-49402862D01*
X148185910Y-49460005D01*
X148214482Y-49517147D01*
%TO.C,CLK0_M2C_P1*%
X103905910Y-80674290D02*
X103934482Y-80702862D01*
X103963053Y-80788576D01*
X103963053Y-80845719D01*
X103934482Y-80931433D01*
X103877339Y-80988576D01*
X103820196Y-81017147D01*
X103705910Y-81045719D01*
X103620196Y-81045719D01*
X103505910Y-81017147D01*
X103448767Y-80988576D01*
X103391625Y-80931433D01*
X103363053Y-80845719D01*
X103363053Y-80788576D01*
X103391625Y-80702862D01*
X103420196Y-80674290D01*
X103963053Y-80131433D02*
X103963053Y-80417147D01*
X103363053Y-80417147D01*
X103963053Y-79931433D02*
X103363053Y-79931433D01*
X103963053Y-79588576D02*
X103620196Y-79845719D01*
X103363053Y-79588576D02*
X103705910Y-79931433D01*
X103363053Y-79217147D02*
X103363053Y-79160005D01*
X103391625Y-79102862D01*
X103420196Y-79074290D01*
X103477339Y-79045719D01*
X103591625Y-79017147D01*
X103734482Y-79017147D01*
X103848767Y-79045719D01*
X103905910Y-79074290D01*
X103934482Y-79102862D01*
X103963053Y-79160005D01*
X103963053Y-79217147D01*
X103934482Y-79274290D01*
X103905910Y-79302862D01*
X103848767Y-79331433D01*
X103734482Y-79360005D01*
X103591625Y-79360005D01*
X103477339Y-79331433D01*
X103420196Y-79302862D01*
X103391625Y-79274290D01*
X103363053Y-79217147D01*
X104020196Y-78902862D02*
X104020196Y-78445719D01*
X103963053Y-78302862D02*
X103363053Y-78302862D01*
X103791625Y-78102862D01*
X103363053Y-77902862D01*
X103963053Y-77902862D01*
X103420196Y-77645719D02*
X103391625Y-77617147D01*
X103363053Y-77560005D01*
X103363053Y-77417147D01*
X103391625Y-77360005D01*
X103420196Y-77331433D01*
X103477339Y-77302862D01*
X103534482Y-77302862D01*
X103620196Y-77331433D01*
X103963053Y-77674290D01*
X103963053Y-77302862D01*
X103905910Y-76702862D02*
X103934482Y-76731433D01*
X103963053Y-76817147D01*
X103963053Y-76874290D01*
X103934482Y-76960005D01*
X103877339Y-77017147D01*
X103820196Y-77045719D01*
X103705910Y-77074290D01*
X103620196Y-77074290D01*
X103505910Y-77045719D01*
X103448767Y-77017147D01*
X103391625Y-76960005D01*
X103363053Y-76874290D01*
X103363053Y-76817147D01*
X103391625Y-76731433D01*
X103420196Y-76702862D01*
X104020196Y-76588576D02*
X104020196Y-76131433D01*
X103963053Y-75988576D02*
X103363053Y-75988576D01*
X103363053Y-75760005D01*
X103391625Y-75702862D01*
X103420196Y-75674290D01*
X103477339Y-75645719D01*
X103563053Y-75645719D01*
X103620196Y-75674290D01*
X103648767Y-75702862D01*
X103677339Y-75760005D01*
X103677339Y-75988576D01*
X103963053Y-75074290D02*
X103963053Y-75417147D01*
X103963053Y-75245719D02*
X103363053Y-75245719D01*
X103448767Y-75302862D01*
X103505910Y-75360005D01*
X103534482Y-75417147D01*
%TO.C,HA02_P1*%
X110793053Y-70874290D02*
X110193053Y-70874290D01*
X110478767Y-70874290D02*
X110478767Y-70531433D01*
X110793053Y-70531433D02*
X110193053Y-70531433D01*
X110621625Y-70274290D02*
X110621625Y-69988576D01*
X110793053Y-70331433D02*
X110193053Y-70131433D01*
X110793053Y-69931433D01*
X110193053Y-69617147D02*
X110193053Y-69560005D01*
X110221625Y-69502862D01*
X110250196Y-69474290D01*
X110307339Y-69445719D01*
X110421625Y-69417147D01*
X110564482Y-69417147D01*
X110678767Y-69445719D01*
X110735910Y-69474290D01*
X110764482Y-69502862D01*
X110793053Y-69560005D01*
X110793053Y-69617147D01*
X110764482Y-69674290D01*
X110735910Y-69702862D01*
X110678767Y-69731433D01*
X110564482Y-69760005D01*
X110421625Y-69760005D01*
X110307339Y-69731433D01*
X110250196Y-69702862D01*
X110221625Y-69674290D01*
X110193053Y-69617147D01*
X110250196Y-69188576D02*
X110221625Y-69160005D01*
X110193053Y-69102862D01*
X110193053Y-68960005D01*
X110221625Y-68902862D01*
X110250196Y-68874290D01*
X110307339Y-68845719D01*
X110364482Y-68845719D01*
X110450196Y-68874290D01*
X110793053Y-69217147D01*
X110793053Y-68845719D01*
X110850196Y-68731433D02*
X110850196Y-68274290D01*
X110793053Y-68131433D02*
X110193053Y-68131433D01*
X110193053Y-67902862D01*
X110221625Y-67845719D01*
X110250196Y-67817147D01*
X110307339Y-67788576D01*
X110393053Y-67788576D01*
X110450196Y-67817147D01*
X110478767Y-67845719D01*
X110507339Y-67902862D01*
X110507339Y-68131433D01*
X110793053Y-67217147D02*
X110793053Y-67560005D01*
X110793053Y-67388576D02*
X110193053Y-67388576D01*
X110278767Y-67445719D01*
X110335910Y-67502862D01*
X110364482Y-67560005D01*
%TO.C,LA25_P1*%
X136643053Y-88512147D02*
X136643053Y-88797862D01*
X136043053Y-88797862D01*
X136471625Y-88340719D02*
X136471625Y-88055005D01*
X136643053Y-88397862D02*
X136043053Y-88197862D01*
X136643053Y-87997862D01*
X136100196Y-87826433D02*
X136071625Y-87797862D01*
X136043053Y-87740719D01*
X136043053Y-87597862D01*
X136071625Y-87540719D01*
X136100196Y-87512147D01*
X136157339Y-87483576D01*
X136214482Y-87483576D01*
X136300196Y-87512147D01*
X136643053Y-87855005D01*
X136643053Y-87483576D01*
X136043053Y-86940719D02*
X136043053Y-87226433D01*
X136328767Y-87255005D01*
X136300196Y-87226433D01*
X136271625Y-87169290D01*
X136271625Y-87026433D01*
X136300196Y-86969290D01*
X136328767Y-86940719D01*
X136385910Y-86912147D01*
X136528767Y-86912147D01*
X136585910Y-86940719D01*
X136614482Y-86969290D01*
X136643053Y-87026433D01*
X136643053Y-87169290D01*
X136614482Y-87226433D01*
X136585910Y-87255005D01*
X136700196Y-86797862D02*
X136700196Y-86340719D01*
X136643053Y-86197862D02*
X136043053Y-86197862D01*
X136043053Y-85969290D01*
X136071625Y-85912147D01*
X136100196Y-85883576D01*
X136157339Y-85855005D01*
X136243053Y-85855005D01*
X136300196Y-85883576D01*
X136328767Y-85912147D01*
X136357339Y-85969290D01*
X136357339Y-86197862D01*
X136643053Y-85283576D02*
X136643053Y-85626433D01*
X136643053Y-85455005D02*
X136043053Y-85455005D01*
X136128767Y-85512147D01*
X136185910Y-85569290D01*
X136214482Y-85626433D01*
%TO.C,HA06_P1*%
X116963053Y-52874290D02*
X116363053Y-52874290D01*
X116648767Y-52874290D02*
X116648767Y-52531433D01*
X116963053Y-52531433D02*
X116363053Y-52531433D01*
X116791625Y-52274290D02*
X116791625Y-51988576D01*
X116963053Y-52331433D02*
X116363053Y-52131433D01*
X116963053Y-51931433D01*
X116363053Y-51617147D02*
X116363053Y-51560005D01*
X116391625Y-51502862D01*
X116420196Y-51474290D01*
X116477339Y-51445719D01*
X116591625Y-51417147D01*
X116734482Y-51417147D01*
X116848767Y-51445719D01*
X116905910Y-51474290D01*
X116934482Y-51502862D01*
X116963053Y-51560005D01*
X116963053Y-51617147D01*
X116934482Y-51674290D01*
X116905910Y-51702862D01*
X116848767Y-51731433D01*
X116734482Y-51760005D01*
X116591625Y-51760005D01*
X116477339Y-51731433D01*
X116420196Y-51702862D01*
X116391625Y-51674290D01*
X116363053Y-51617147D01*
X116363053Y-50902862D02*
X116363053Y-51017147D01*
X116391625Y-51074290D01*
X116420196Y-51102862D01*
X116505910Y-51160005D01*
X116620196Y-51188576D01*
X116848767Y-51188576D01*
X116905910Y-51160005D01*
X116934482Y-51131433D01*
X116963053Y-51074290D01*
X116963053Y-50960005D01*
X116934482Y-50902862D01*
X116905910Y-50874290D01*
X116848767Y-50845719D01*
X116705910Y-50845719D01*
X116648767Y-50874290D01*
X116620196Y-50902862D01*
X116591625Y-50960005D01*
X116591625Y-51074290D01*
X116620196Y-51131433D01*
X116648767Y-51160005D01*
X116705910Y-51188576D01*
X117020196Y-50731433D02*
X117020196Y-50274290D01*
X116963053Y-50131433D02*
X116363053Y-50131433D01*
X116363053Y-49902862D01*
X116391625Y-49845719D01*
X116420196Y-49817147D01*
X116477339Y-49788576D01*
X116563053Y-49788576D01*
X116620196Y-49817147D01*
X116648767Y-49845719D01*
X116677339Y-49902862D01*
X116677339Y-50131433D01*
X116963053Y-49217147D02*
X116963053Y-49560005D01*
X116963053Y-49388576D02*
X116363053Y-49388576D01*
X116448767Y-49445719D01*
X116505910Y-49502862D01*
X116534482Y-49560005D01*
%TO.C,LA22_P1*%
X133963053Y-61517147D02*
X133963053Y-61802862D01*
X133363053Y-61802862D01*
X133791625Y-61345719D02*
X133791625Y-61060005D01*
X133963053Y-61402862D02*
X133363053Y-61202862D01*
X133963053Y-61002862D01*
X133420196Y-60831433D02*
X133391625Y-60802862D01*
X133363053Y-60745719D01*
X133363053Y-60602862D01*
X133391625Y-60545719D01*
X133420196Y-60517147D01*
X133477339Y-60488576D01*
X133534482Y-60488576D01*
X133620196Y-60517147D01*
X133963053Y-60860005D01*
X133963053Y-60488576D01*
X133420196Y-60260005D02*
X133391625Y-60231433D01*
X133363053Y-60174290D01*
X133363053Y-60031433D01*
X133391625Y-59974290D01*
X133420196Y-59945719D01*
X133477339Y-59917147D01*
X133534482Y-59917147D01*
X133620196Y-59945719D01*
X133963053Y-60288576D01*
X133963053Y-59917147D01*
X134020196Y-59802862D02*
X134020196Y-59345719D01*
X133963053Y-59202862D02*
X133363053Y-59202862D01*
X133363053Y-58974290D01*
X133391625Y-58917147D01*
X133420196Y-58888576D01*
X133477339Y-58860005D01*
X133563053Y-58860005D01*
X133620196Y-58888576D01*
X133648767Y-58917147D01*
X133677339Y-58974290D01*
X133677339Y-59202862D01*
X133963053Y-58288576D02*
X133963053Y-58631433D01*
X133963053Y-58460005D02*
X133363053Y-58460005D01*
X133448767Y-58517147D01*
X133505910Y-58574290D01*
X133534482Y-58631433D01*
%TO.C,HA18_P1*%
X126963053Y-70874290D02*
X126363053Y-70874290D01*
X126648767Y-70874290D02*
X126648767Y-70531433D01*
X126963053Y-70531433D02*
X126363053Y-70531433D01*
X126791625Y-70274290D02*
X126791625Y-69988576D01*
X126963053Y-70331433D02*
X126363053Y-70131433D01*
X126963053Y-69931433D01*
X126963053Y-69417147D02*
X126963053Y-69760005D01*
X126963053Y-69588576D02*
X126363053Y-69588576D01*
X126448767Y-69645719D01*
X126505910Y-69702862D01*
X126534482Y-69760005D01*
X126620196Y-69074290D02*
X126591625Y-69131433D01*
X126563053Y-69160005D01*
X126505910Y-69188576D01*
X126477339Y-69188576D01*
X126420196Y-69160005D01*
X126391625Y-69131433D01*
X126363053Y-69074290D01*
X126363053Y-68960005D01*
X126391625Y-68902862D01*
X126420196Y-68874290D01*
X126477339Y-68845719D01*
X126505910Y-68845719D01*
X126563053Y-68874290D01*
X126591625Y-68902862D01*
X126620196Y-68960005D01*
X126620196Y-69074290D01*
X126648767Y-69131433D01*
X126677339Y-69160005D01*
X126734482Y-69188576D01*
X126848767Y-69188576D01*
X126905910Y-69160005D01*
X126934482Y-69131433D01*
X126963053Y-69074290D01*
X126963053Y-68960005D01*
X126934482Y-68902862D01*
X126905910Y-68874290D01*
X126848767Y-68845719D01*
X126734482Y-68845719D01*
X126677339Y-68874290D01*
X126648767Y-68902862D01*
X126620196Y-68960005D01*
X127020196Y-68731433D02*
X127020196Y-68274290D01*
X126963053Y-68131433D02*
X126363053Y-68131433D01*
X126363053Y-67902862D01*
X126391625Y-67845719D01*
X126420196Y-67817147D01*
X126477339Y-67788576D01*
X126563053Y-67788576D01*
X126620196Y-67817147D01*
X126648767Y-67845719D01*
X126677339Y-67902862D01*
X126677339Y-68131433D01*
X126963053Y-67217147D02*
X126963053Y-67560005D01*
X126963053Y-67388576D02*
X126363053Y-67388576D01*
X126448767Y-67445719D01*
X126505910Y-67502862D01*
X126534482Y-67560005D01*
%TO.C,HB10_P1*%
X143963053Y-79917147D02*
X143363053Y-79917147D01*
X143648767Y-79917147D02*
X143648767Y-79574290D01*
X143963053Y-79574290D02*
X143363053Y-79574290D01*
X143648767Y-79088576D02*
X143677339Y-79002862D01*
X143705910Y-78974290D01*
X143763053Y-78945719D01*
X143848767Y-78945719D01*
X143905910Y-78974290D01*
X143934482Y-79002862D01*
X143963053Y-79060005D01*
X143963053Y-79288576D01*
X143363053Y-79288576D01*
X143363053Y-79088576D01*
X143391625Y-79031433D01*
X143420196Y-79002862D01*
X143477339Y-78974290D01*
X143534482Y-78974290D01*
X143591625Y-79002862D01*
X143620196Y-79031433D01*
X143648767Y-79088576D01*
X143648767Y-79288576D01*
X143963053Y-78374290D02*
X143963053Y-78717147D01*
X143963053Y-78545719D02*
X143363053Y-78545719D01*
X143448767Y-78602862D01*
X143505910Y-78660005D01*
X143534482Y-78717147D01*
X143363053Y-78002862D02*
X143363053Y-77945719D01*
X143391625Y-77888576D01*
X143420196Y-77860005D01*
X143477339Y-77831433D01*
X143591625Y-77802862D01*
X143734482Y-77802862D01*
X143848767Y-77831433D01*
X143905910Y-77860005D01*
X143934482Y-77888576D01*
X143963053Y-77945719D01*
X143963053Y-78002862D01*
X143934482Y-78060005D01*
X143905910Y-78088576D01*
X143848767Y-78117147D01*
X143734482Y-78145719D01*
X143591625Y-78145719D01*
X143477339Y-78117147D01*
X143420196Y-78088576D01*
X143391625Y-78060005D01*
X143363053Y-78002862D01*
X144020196Y-77688576D02*
X144020196Y-77231433D01*
X143963053Y-77088576D02*
X143363053Y-77088576D01*
X143363053Y-76860005D01*
X143391625Y-76802862D01*
X143420196Y-76774290D01*
X143477339Y-76745719D01*
X143563053Y-76745719D01*
X143620196Y-76774290D01*
X143648767Y-76802862D01*
X143677339Y-76860005D01*
X143677339Y-77088576D01*
X143963053Y-76174290D02*
X143963053Y-76517147D01*
X143963053Y-76345719D02*
X143363053Y-76345719D01*
X143448767Y-76402862D01*
X143505910Y-76460005D01*
X143534482Y-76517147D01*
%TO.C,HA10_P1*%
X119613053Y-79899290D02*
X119013053Y-79899290D01*
X119298767Y-79899290D02*
X119298767Y-79556433D01*
X119613053Y-79556433D02*
X119013053Y-79556433D01*
X119441625Y-79299290D02*
X119441625Y-79013576D01*
X119613053Y-79356433D02*
X119013053Y-79156433D01*
X119613053Y-78956433D01*
X119613053Y-78442147D02*
X119613053Y-78785005D01*
X119613053Y-78613576D02*
X119013053Y-78613576D01*
X119098767Y-78670719D01*
X119155910Y-78727862D01*
X119184482Y-78785005D01*
X119013053Y-78070719D02*
X119013053Y-78013576D01*
X119041625Y-77956433D01*
X119070196Y-77927862D01*
X119127339Y-77899290D01*
X119241625Y-77870719D01*
X119384482Y-77870719D01*
X119498767Y-77899290D01*
X119555910Y-77927862D01*
X119584482Y-77956433D01*
X119613053Y-78013576D01*
X119613053Y-78070719D01*
X119584482Y-78127862D01*
X119555910Y-78156433D01*
X119498767Y-78185005D01*
X119384482Y-78213576D01*
X119241625Y-78213576D01*
X119127339Y-78185005D01*
X119070196Y-78156433D01*
X119041625Y-78127862D01*
X119013053Y-78070719D01*
X119670196Y-77756433D02*
X119670196Y-77299290D01*
X119613053Y-77156433D02*
X119013053Y-77156433D01*
X119013053Y-76927862D01*
X119041625Y-76870719D01*
X119070196Y-76842147D01*
X119127339Y-76813576D01*
X119213053Y-76813576D01*
X119270196Y-76842147D01*
X119298767Y-76870719D01*
X119327339Y-76927862D01*
X119327339Y-77156433D01*
X119613053Y-76242147D02*
X119613053Y-76585005D01*
X119613053Y-76413576D02*
X119013053Y-76413576D01*
X119098767Y-76470719D01*
X119155910Y-76527862D01*
X119184482Y-76585005D01*
%TO.C,LA31_P1*%
X144663053Y-88507147D02*
X144663053Y-88792862D01*
X144063053Y-88792862D01*
X144491625Y-88335719D02*
X144491625Y-88050005D01*
X144663053Y-88392862D02*
X144063053Y-88192862D01*
X144663053Y-87992862D01*
X144063053Y-87850005D02*
X144063053Y-87478576D01*
X144291625Y-87678576D01*
X144291625Y-87592862D01*
X144320196Y-87535719D01*
X144348767Y-87507147D01*
X144405910Y-87478576D01*
X144548767Y-87478576D01*
X144605910Y-87507147D01*
X144634482Y-87535719D01*
X144663053Y-87592862D01*
X144663053Y-87764290D01*
X144634482Y-87821433D01*
X144605910Y-87850005D01*
X144663053Y-86907147D02*
X144663053Y-87250005D01*
X144663053Y-87078576D02*
X144063053Y-87078576D01*
X144148767Y-87135719D01*
X144205910Y-87192862D01*
X144234482Y-87250005D01*
X144720196Y-86792862D02*
X144720196Y-86335719D01*
X144663053Y-86192862D02*
X144063053Y-86192862D01*
X144063053Y-85964290D01*
X144091625Y-85907147D01*
X144120196Y-85878576D01*
X144177339Y-85850005D01*
X144263053Y-85850005D01*
X144320196Y-85878576D01*
X144348767Y-85907147D01*
X144377339Y-85964290D01*
X144377339Y-86192862D01*
X144663053Y-85278576D02*
X144663053Y-85621433D01*
X144663053Y-85450005D02*
X144063053Y-85450005D01*
X144148767Y-85507147D01*
X144205910Y-85564290D01*
X144234482Y-85621433D01*
%TO.C,HB06_N_CC1*%
X142263053Y-53760005D02*
X141663053Y-53760005D01*
X141948767Y-53760005D02*
X141948767Y-53417147D01*
X142263053Y-53417147D02*
X141663053Y-53417147D01*
X141948767Y-52931433D02*
X141977339Y-52845719D01*
X142005910Y-52817147D01*
X142063053Y-52788576D01*
X142148767Y-52788576D01*
X142205910Y-52817147D01*
X142234482Y-52845719D01*
X142263053Y-52902862D01*
X142263053Y-53131433D01*
X141663053Y-53131433D01*
X141663053Y-52931433D01*
X141691625Y-52874290D01*
X141720196Y-52845719D01*
X141777339Y-52817147D01*
X141834482Y-52817147D01*
X141891625Y-52845719D01*
X141920196Y-52874290D01*
X141948767Y-52931433D01*
X141948767Y-53131433D01*
X141663053Y-52417147D02*
X141663053Y-52360005D01*
X141691625Y-52302862D01*
X141720196Y-52274290D01*
X141777339Y-52245719D01*
X141891625Y-52217147D01*
X142034482Y-52217147D01*
X142148767Y-52245719D01*
X142205910Y-52274290D01*
X142234482Y-52302862D01*
X142263053Y-52360005D01*
X142263053Y-52417147D01*
X142234482Y-52474290D01*
X142205910Y-52502862D01*
X142148767Y-52531433D01*
X142034482Y-52560005D01*
X141891625Y-52560005D01*
X141777339Y-52531433D01*
X141720196Y-52502862D01*
X141691625Y-52474290D01*
X141663053Y-52417147D01*
X141663053Y-51702862D02*
X141663053Y-51817147D01*
X141691625Y-51874290D01*
X141720196Y-51902862D01*
X141805910Y-51960005D01*
X141920196Y-51988576D01*
X142148767Y-51988576D01*
X142205910Y-51960005D01*
X142234482Y-51931433D01*
X142263053Y-51874290D01*
X142263053Y-51760005D01*
X142234482Y-51702862D01*
X142205910Y-51674290D01*
X142148767Y-51645719D01*
X142005910Y-51645719D01*
X141948767Y-51674290D01*
X141920196Y-51702862D01*
X141891625Y-51760005D01*
X141891625Y-51874290D01*
X141920196Y-51931433D01*
X141948767Y-51960005D01*
X142005910Y-51988576D01*
X142320196Y-51531433D02*
X142320196Y-51074290D01*
X142263053Y-50931433D02*
X141663053Y-50931433D01*
X142263053Y-50588576D01*
X141663053Y-50588576D01*
X142320196Y-50445719D02*
X142320196Y-49988576D01*
X142205910Y-49502862D02*
X142234482Y-49531433D01*
X142263053Y-49617147D01*
X142263053Y-49674290D01*
X142234482Y-49760005D01*
X142177339Y-49817147D01*
X142120196Y-49845719D01*
X142005910Y-49874290D01*
X141920196Y-49874290D01*
X141805910Y-49845719D01*
X141748767Y-49817147D01*
X141691625Y-49760005D01*
X141663053Y-49674290D01*
X141663053Y-49617147D01*
X141691625Y-49531433D01*
X141720196Y-49502862D01*
X142205910Y-48902862D02*
X142234482Y-48931433D01*
X142263053Y-49017147D01*
X142263053Y-49074290D01*
X142234482Y-49160005D01*
X142177339Y-49217147D01*
X142120196Y-49245719D01*
X142005910Y-49274290D01*
X141920196Y-49274290D01*
X141805910Y-49245719D01*
X141748767Y-49217147D01*
X141691625Y-49160005D01*
X141663053Y-49074290D01*
X141663053Y-49017147D01*
X141691625Y-48931433D01*
X141720196Y-48902862D01*
X142263053Y-48331433D02*
X142263053Y-48674290D01*
X142263053Y-48502862D02*
X141663053Y-48502862D01*
X141748767Y-48560005D01*
X141805910Y-48617147D01*
X141834482Y-48674290D01*
%TO.C,HB20_P1*%
X152963053Y-88917147D02*
X152363053Y-88917147D01*
X152648767Y-88917147D02*
X152648767Y-88574290D01*
X152963053Y-88574290D02*
X152363053Y-88574290D01*
X152648767Y-88088576D02*
X152677339Y-88002862D01*
X152705910Y-87974290D01*
X152763053Y-87945719D01*
X152848767Y-87945719D01*
X152905910Y-87974290D01*
X152934482Y-88002862D01*
X152963053Y-88060005D01*
X152963053Y-88288576D01*
X152363053Y-88288576D01*
X152363053Y-88088576D01*
X152391625Y-88031433D01*
X152420196Y-88002862D01*
X152477339Y-87974290D01*
X152534482Y-87974290D01*
X152591625Y-88002862D01*
X152620196Y-88031433D01*
X152648767Y-88088576D01*
X152648767Y-88288576D01*
X152420196Y-87717147D02*
X152391625Y-87688576D01*
X152363053Y-87631433D01*
X152363053Y-87488576D01*
X152391625Y-87431433D01*
X152420196Y-87402862D01*
X152477339Y-87374290D01*
X152534482Y-87374290D01*
X152620196Y-87402862D01*
X152963053Y-87745719D01*
X152963053Y-87374290D01*
X152363053Y-87002862D02*
X152363053Y-86945719D01*
X152391625Y-86888576D01*
X152420196Y-86860005D01*
X152477339Y-86831433D01*
X152591625Y-86802862D01*
X152734482Y-86802862D01*
X152848767Y-86831433D01*
X152905910Y-86860005D01*
X152934482Y-86888576D01*
X152963053Y-86945719D01*
X152963053Y-87002862D01*
X152934482Y-87060005D01*
X152905910Y-87088576D01*
X152848767Y-87117147D01*
X152734482Y-87145719D01*
X152591625Y-87145719D01*
X152477339Y-87117147D01*
X152420196Y-87088576D01*
X152391625Y-87060005D01*
X152363053Y-87002862D01*
X153020196Y-86688576D02*
X153020196Y-86231433D01*
X152963053Y-86088576D02*
X152363053Y-86088576D01*
X152363053Y-85860005D01*
X152391625Y-85802862D01*
X152420196Y-85774290D01*
X152477339Y-85745719D01*
X152563053Y-85745719D01*
X152620196Y-85774290D01*
X152648767Y-85802862D01*
X152677339Y-85860005D01*
X152677339Y-86088576D01*
X152963053Y-85174290D02*
X152963053Y-85517147D01*
X152963053Y-85345719D02*
X152363053Y-85345719D01*
X152448767Y-85402862D01*
X152505910Y-85460005D01*
X152534482Y-85517147D01*
%TO.C,LA09_P1*%
X120833053Y-88517147D02*
X120833053Y-88802862D01*
X120233053Y-88802862D01*
X120661625Y-88345719D02*
X120661625Y-88060005D01*
X120833053Y-88402862D02*
X120233053Y-88202862D01*
X120833053Y-88002862D01*
X120233053Y-87688576D02*
X120233053Y-87631433D01*
X120261625Y-87574290D01*
X120290196Y-87545719D01*
X120347339Y-87517147D01*
X120461625Y-87488576D01*
X120604482Y-87488576D01*
X120718767Y-87517147D01*
X120775910Y-87545719D01*
X120804482Y-87574290D01*
X120833053Y-87631433D01*
X120833053Y-87688576D01*
X120804482Y-87745719D01*
X120775910Y-87774290D01*
X120718767Y-87802862D01*
X120604482Y-87831433D01*
X120461625Y-87831433D01*
X120347339Y-87802862D01*
X120290196Y-87774290D01*
X120261625Y-87745719D01*
X120233053Y-87688576D01*
X120833053Y-87202862D02*
X120833053Y-87088576D01*
X120804482Y-87031433D01*
X120775910Y-87002862D01*
X120690196Y-86945719D01*
X120575910Y-86917147D01*
X120347339Y-86917147D01*
X120290196Y-86945719D01*
X120261625Y-86974290D01*
X120233053Y-87031433D01*
X120233053Y-87145719D01*
X120261625Y-87202862D01*
X120290196Y-87231433D01*
X120347339Y-87260005D01*
X120490196Y-87260005D01*
X120547339Y-87231433D01*
X120575910Y-87202862D01*
X120604482Y-87145719D01*
X120604482Y-87031433D01*
X120575910Y-86974290D01*
X120547339Y-86945719D01*
X120490196Y-86917147D01*
X120890196Y-86802862D02*
X120890196Y-86345719D01*
X120833053Y-86202862D02*
X120233053Y-86202862D01*
X120233053Y-85974290D01*
X120261625Y-85917147D01*
X120290196Y-85888576D01*
X120347339Y-85860005D01*
X120433053Y-85860005D01*
X120490196Y-85888576D01*
X120518767Y-85917147D01*
X120547339Y-85974290D01*
X120547339Y-86202862D01*
X120833053Y-85288576D02*
X120833053Y-85631433D01*
X120833053Y-85460005D02*
X120233053Y-85460005D01*
X120318767Y-85517147D01*
X120375910Y-85574290D01*
X120404482Y-85631433D01*
%TO.C,HA01_P_CC1*%
X100963053Y-53702862D02*
X100363053Y-53702862D01*
X100648767Y-53702862D02*
X100648767Y-53360005D01*
X100963053Y-53360005D02*
X100363053Y-53360005D01*
X100791625Y-53102862D02*
X100791625Y-52817147D01*
X100963053Y-53160005D02*
X100363053Y-52960005D01*
X100963053Y-52760005D01*
X100363053Y-52445719D02*
X100363053Y-52388576D01*
X100391625Y-52331433D01*
X100420196Y-52302862D01*
X100477339Y-52274290D01*
X100591625Y-52245719D01*
X100734482Y-52245719D01*
X100848767Y-52274290D01*
X100905910Y-52302862D01*
X100934482Y-52331433D01*
X100963053Y-52388576D01*
X100963053Y-52445719D01*
X100934482Y-52502862D01*
X100905910Y-52531433D01*
X100848767Y-52560005D01*
X100734482Y-52588576D01*
X100591625Y-52588576D01*
X100477339Y-52560005D01*
X100420196Y-52531433D01*
X100391625Y-52502862D01*
X100363053Y-52445719D01*
X100963053Y-51674290D02*
X100963053Y-52017147D01*
X100963053Y-51845719D02*
X100363053Y-51845719D01*
X100448767Y-51902862D01*
X100505910Y-51960005D01*
X100534482Y-52017147D01*
X101020196Y-51560005D02*
X101020196Y-51102862D01*
X100963053Y-50960005D02*
X100363053Y-50960005D01*
X100363053Y-50731433D01*
X100391625Y-50674290D01*
X100420196Y-50645719D01*
X100477339Y-50617147D01*
X100563053Y-50617147D01*
X100620196Y-50645719D01*
X100648767Y-50674290D01*
X100677339Y-50731433D01*
X100677339Y-50960005D01*
X101020196Y-50502862D02*
X101020196Y-50045719D01*
X100905910Y-49560005D02*
X100934482Y-49588576D01*
X100963053Y-49674290D01*
X100963053Y-49731433D01*
X100934482Y-49817147D01*
X100877339Y-49874290D01*
X100820196Y-49902862D01*
X100705910Y-49931433D01*
X100620196Y-49931433D01*
X100505910Y-49902862D01*
X100448767Y-49874290D01*
X100391625Y-49817147D01*
X100363053Y-49731433D01*
X100363053Y-49674290D01*
X100391625Y-49588576D01*
X100420196Y-49560005D01*
X100905910Y-48960005D02*
X100934482Y-48988576D01*
X100963053Y-49074290D01*
X100963053Y-49131433D01*
X100934482Y-49217147D01*
X100877339Y-49274290D01*
X100820196Y-49302862D01*
X100705910Y-49331433D01*
X100620196Y-49331433D01*
X100505910Y-49302862D01*
X100448767Y-49274290D01*
X100391625Y-49217147D01*
X100363053Y-49131433D01*
X100363053Y-49074290D01*
X100391625Y-48988576D01*
X100420196Y-48960005D01*
X100963053Y-48388576D02*
X100963053Y-48731433D01*
X100963053Y-48560005D02*
X100363053Y-48560005D01*
X100448767Y-48617147D01*
X100505910Y-48674290D01*
X100534482Y-48731433D01*
%TO.C,HB10_N1*%
X143963053Y-70931433D02*
X143363053Y-70931433D01*
X143648767Y-70931433D02*
X143648767Y-70588576D01*
X143963053Y-70588576D02*
X143363053Y-70588576D01*
X143648767Y-70102862D02*
X143677339Y-70017147D01*
X143705910Y-69988576D01*
X143763053Y-69960005D01*
X143848767Y-69960005D01*
X143905910Y-69988576D01*
X143934482Y-70017147D01*
X143963053Y-70074290D01*
X143963053Y-70302862D01*
X143363053Y-70302862D01*
X143363053Y-70102862D01*
X143391625Y-70045719D01*
X143420196Y-70017147D01*
X143477339Y-69988576D01*
X143534482Y-69988576D01*
X143591625Y-70017147D01*
X143620196Y-70045719D01*
X143648767Y-70102862D01*
X143648767Y-70302862D01*
X143963053Y-69388576D02*
X143963053Y-69731433D01*
X143963053Y-69560005D02*
X143363053Y-69560005D01*
X143448767Y-69617147D01*
X143505910Y-69674290D01*
X143534482Y-69731433D01*
X143363053Y-69017147D02*
X143363053Y-68960005D01*
X143391625Y-68902862D01*
X143420196Y-68874290D01*
X143477339Y-68845719D01*
X143591625Y-68817147D01*
X143734482Y-68817147D01*
X143848767Y-68845719D01*
X143905910Y-68874290D01*
X143934482Y-68902862D01*
X143963053Y-68960005D01*
X143963053Y-69017147D01*
X143934482Y-69074290D01*
X143905910Y-69102862D01*
X143848767Y-69131433D01*
X143734482Y-69160005D01*
X143591625Y-69160005D01*
X143477339Y-69131433D01*
X143420196Y-69102862D01*
X143391625Y-69074290D01*
X143363053Y-69017147D01*
X144020196Y-68702862D02*
X144020196Y-68245719D01*
X143963053Y-68102862D02*
X143363053Y-68102862D01*
X143963053Y-67760005D01*
X143363053Y-67760005D01*
X143963053Y-67160005D02*
X143963053Y-67502862D01*
X143963053Y-67331433D02*
X143363053Y-67331433D01*
X143448767Y-67388576D01*
X143505910Y-67445719D01*
X143534482Y-67502862D01*
%TO.C,LA33_P1*%
X149378053Y-61512147D02*
X149378053Y-61797862D01*
X148778053Y-61797862D01*
X149206625Y-61340719D02*
X149206625Y-61055005D01*
X149378053Y-61397862D02*
X148778053Y-61197862D01*
X149378053Y-60997862D01*
X148778053Y-60855005D02*
X148778053Y-60483576D01*
X149006625Y-60683576D01*
X149006625Y-60597862D01*
X149035196Y-60540719D01*
X149063767Y-60512147D01*
X149120910Y-60483576D01*
X149263767Y-60483576D01*
X149320910Y-60512147D01*
X149349482Y-60540719D01*
X149378053Y-60597862D01*
X149378053Y-60769290D01*
X149349482Y-60826433D01*
X149320910Y-60855005D01*
X148778053Y-60283576D02*
X148778053Y-59912147D01*
X149006625Y-60112147D01*
X149006625Y-60026433D01*
X149035196Y-59969290D01*
X149063767Y-59940719D01*
X149120910Y-59912147D01*
X149263767Y-59912147D01*
X149320910Y-59940719D01*
X149349482Y-59969290D01*
X149378053Y-60026433D01*
X149378053Y-60197862D01*
X149349482Y-60255005D01*
X149320910Y-60283576D01*
X149435196Y-59797862D02*
X149435196Y-59340719D01*
X149378053Y-59197862D02*
X148778053Y-59197862D01*
X148778053Y-58969290D01*
X148806625Y-58912147D01*
X148835196Y-58883576D01*
X148892339Y-58855005D01*
X148978053Y-58855005D01*
X149035196Y-58883576D01*
X149063767Y-58912147D01*
X149092339Y-58969290D01*
X149092339Y-59197862D01*
X149378053Y-58283576D02*
X149378053Y-58626433D01*
X149378053Y-58455005D02*
X148778053Y-58455005D01*
X148863767Y-58512147D01*
X148920910Y-58569290D01*
X148949482Y-58626433D01*
D12*
%TO.C,K1*%
X105280000Y-30215000D02*
X105280000Y-32930000D01*
X105280000Y-39680000D02*
X105280000Y-43445000D01*
X104480000Y-33980000D02*
X104845000Y-33980000D01*
X104480000Y-39680000D02*
X105280000Y-39680000D01*
X161910000Y-43445000D02*
X161910000Y-30215000D01*
X161910000Y-30215000D02*
X105280000Y-30215000D01*
X104480000Y-33980000D02*
X104480000Y-39680000D01*
X105280000Y-43445000D02*
X161910000Y-43445000D01*
X104845000Y-31030000D02*
G75*
G03*
X104845000Y-31030000I-100000J0D01*
G01*
D13*
%TO.C,R1*%
X138005000Y-65395000D02*
X137375000Y-65395000D01*
X138635000Y-65395000D02*
X139265000Y-65395000D01*
X137375000Y-65395000D02*
X137375000Y-64455000D01*
X139265000Y-65395000D02*
X139265000Y-64455000D01*
X137375000Y-64455000D02*
X138005000Y-64455000D01*
X139265000Y-64455000D02*
X138635000Y-64455000D01*
%TO.C,R9*%
X153755000Y-65465000D02*
X153125000Y-65465000D01*
X154385000Y-65465000D02*
X155015000Y-65465000D01*
X153125000Y-65465000D02*
X153125000Y-64525000D01*
X155015000Y-65465000D02*
X155015000Y-64525000D01*
X153125000Y-64525000D02*
X153755000Y-64525000D01*
X155015000Y-64525000D02*
X154385000Y-64525000D01*
%TO.C,R4*%
X113080000Y-56640000D02*
X112450000Y-56640000D01*
X113710000Y-56640000D02*
X114340000Y-56640000D01*
X112450000Y-56640000D02*
X112450000Y-55700000D01*
X114340000Y-56640000D02*
X114340000Y-55700000D01*
X112450000Y-55700000D02*
X113080000Y-55700000D01*
X114340000Y-55700000D02*
X113710000Y-55700000D01*
%TO.C,R2*%
X105095000Y-56640000D02*
X104465000Y-56640000D01*
X104465000Y-56640000D02*
X104465000Y-55700000D01*
X104465000Y-55700000D02*
X105095000Y-55700000D01*
X105725000Y-56640000D02*
X106355000Y-56640000D01*
X106355000Y-56640000D02*
X106355000Y-55700000D01*
X106355000Y-55700000D02*
X105725000Y-55700000D01*
%TO.C,R13*%
X110610000Y-47350000D02*
X111240000Y-47350000D01*
X111240000Y-47350000D02*
X111240000Y-48290000D01*
X111240000Y-48290000D02*
X110610000Y-48290000D01*
X109980000Y-47350000D02*
X109350000Y-47350000D01*
X109350000Y-47350000D02*
X109350000Y-48290000D01*
X109350000Y-48290000D02*
X109980000Y-48290000D01*
%TO.C,R10*%
X112305000Y-47365000D02*
X111675000Y-47365000D01*
X111675000Y-47365000D02*
X111675000Y-46425000D01*
X111675000Y-46425000D02*
X112305000Y-46425000D01*
X112935000Y-47365000D02*
X113565000Y-47365000D01*
X113565000Y-47365000D02*
X113565000Y-46425000D01*
X113565000Y-46425000D02*
X112935000Y-46425000D01*
%TO.C,R7*%
X104100000Y-45735000D02*
X103470000Y-45735000D01*
X103470000Y-45735000D02*
X103470000Y-44795000D01*
X103470000Y-44795000D02*
X104100000Y-44795000D01*
X104730000Y-45735000D02*
X105360000Y-45735000D01*
X105360000Y-45735000D02*
X105360000Y-44795000D01*
X105360000Y-44795000D02*
X104730000Y-44795000D01*
%TO.C,R8*%
X108140000Y-43915000D02*
X108770000Y-43915000D01*
X108770000Y-43915000D02*
X108770000Y-44855000D01*
X108770000Y-44855000D02*
X108140000Y-44855000D01*
X107510000Y-43915000D02*
X106880000Y-43915000D01*
X106880000Y-43915000D02*
X106880000Y-44855000D01*
X106880000Y-44855000D02*
X107510000Y-44855000D01*
%TO.C,R5*%
X110315000Y-44845000D02*
X109685000Y-44845000D01*
X109685000Y-44845000D02*
X109685000Y-43905000D01*
X109685000Y-43905000D02*
X110315000Y-43905000D01*
X110945000Y-44845000D02*
X111575000Y-44845000D01*
X111575000Y-44845000D02*
X111575000Y-43905000D01*
X111575000Y-43905000D02*
X110945000Y-43905000D01*
%TO.C,R12*%
X116660000Y-45365000D02*
X117290000Y-45365000D01*
X116660000Y-44425000D02*
X116660000Y-45365000D01*
X117290000Y-44425000D02*
X116660000Y-44425000D01*
X118550000Y-45365000D02*
X117920000Y-45365000D01*
X118550000Y-44425000D02*
X118550000Y-45365000D01*
X117920000Y-44425000D02*
X118550000Y-44425000D01*
%TO.C,R3*%
X136265000Y-47785000D02*
X135635000Y-47785000D01*
X135635000Y-47785000D02*
X135635000Y-46845000D01*
X135635000Y-46845000D02*
X136265000Y-46845000D01*
X136895000Y-47785000D02*
X137525000Y-47785000D01*
X137525000Y-47785000D02*
X137525000Y-46845000D01*
X137525000Y-46845000D02*
X136895000Y-46845000D01*
%TO.C,R11*%
X134160000Y-45150000D02*
X134790000Y-45150000D01*
X134790000Y-45150000D02*
X134790000Y-46090000D01*
X134790000Y-46090000D02*
X134160000Y-46090000D01*
X133530000Y-45150000D02*
X132900000Y-45150000D01*
X132900000Y-45150000D02*
X132900000Y-46090000D01*
X132900000Y-46090000D02*
X133530000Y-46090000D01*
%TO.C,R6*%
X127575000Y-46125000D02*
X126945000Y-46125000D01*
X126945000Y-46125000D02*
X126945000Y-45185000D01*
X126945000Y-45185000D02*
X127575000Y-45185000D01*
X128205000Y-46125000D02*
X128835000Y-46125000D01*
X128835000Y-46125000D02*
X128835000Y-45185000D01*
X128835000Y-45185000D02*
X128205000Y-45185000D01*
D10*
%TO.C,C1*%
X128240000Y-55475000D02*
X130140000Y-55475000D01*
X128240000Y-55475000D02*
X128240000Y-56425000D01*
X130140000Y-56425000D02*
X130140000Y-55475000D01*
X130140000Y-56425000D02*
X128240000Y-56425000D01*
D14*
%TO.C,LA00_P_CC1*%
X110700000Y-61300000D02*
X110700000Y-58700000D01*
D15*
X112150000Y-60000000D02*
G75*
G03*
X112150000Y-60000000I-150000J0D01*
G01*
D14*
%TO.C,LA32_P1*%
X152635000Y-79300000D02*
X152635000Y-76700000D01*
D15*
X154085000Y-78000000D02*
G75*
G03*
X154085000Y-78000000I-150000J0D01*
G01*
D14*
%TO.C,HA04_P1*%
X112555000Y-79300000D02*
X112555000Y-76700000D01*
D15*
X114005000Y-78000000D02*
G75*
G03*
X114005000Y-78000000I-150000J0D01*
G01*
D14*
%TO.C,CLK3_BIDIR_P1*%
X103700000Y-70300000D02*
X103700000Y-67700000D01*
D15*
X105150000Y-69000000D02*
G75*
G03*
X105150000Y-69000000I-150000J0D01*
G01*
D14*
%TO.C,LA13_P1*%
X126485000Y-61295000D02*
X126485000Y-58695000D01*
D15*
X127935000Y-59995000D02*
G75*
G03*
X127935000Y-59995000I-150000J0D01*
G01*
D14*
%TO.C,HA17_P_CC1*%
X125765000Y-52295000D02*
X125765000Y-49695000D01*
D15*
X127215000Y-50995000D02*
G75*
G03*
X127215000Y-50995000I-150000J0D01*
G01*
D14*
%TO.C,LA01_P_CC1*%
X113500000Y-88295000D02*
X113500000Y-85695000D01*
D15*
X114950000Y-86995000D02*
G75*
G03*
X114950000Y-86995000I-150000J0D01*
G01*
D14*
%TO.C,HB00_P_CC2*%
X135625000Y-70295000D02*
X135625000Y-67695000D01*
D15*
X137075000Y-68995000D02*
G75*
G03*
X137075000Y-68995000I-150000J0D01*
G01*
D14*
%TO.C,CLK1_M2C_P1*%
X102700000Y-61300000D02*
X102700000Y-58700000D01*
D15*
X104150000Y-60000000D02*
G75*
G03*
X104150000Y-60000000I-150000J0D01*
G01*
D14*
%TO.C,LA17_P_CC1*%
X129700000Y-88300000D02*
X129700000Y-85700000D01*
D15*
X131150000Y-87000000D02*
G75*
G03*
X131150000Y-87000000I-150000J0D01*
G01*
D14*
%TO.C,HB21_P1*%
X162375000Y-49695000D02*
X162375000Y-52295000D01*
D15*
X161225000Y-50995000D02*
G75*
G03*
X161225000Y-50995000I-150000J0D01*
G01*
D14*
%TO.C,LA21_P1*%
X136700000Y-79300000D02*
X136700000Y-76700000D01*
D15*
X138150000Y-78000000D02*
G75*
G03*
X138150000Y-78000000I-150000J0D01*
G01*
D14*
%TO.C,HA00_P_CC1*%
X109945000Y-52300000D02*
X109945000Y-49700000D01*
D15*
X111395000Y-51000000D02*
G75*
G03*
X111395000Y-51000000I-150000J0D01*
G01*
D14*
%TO.C,CLK2_BIDIR_P1*%
X105700000Y-88300000D02*
X105700000Y-85700000D01*
D15*
X107150000Y-87000000D02*
G75*
G03*
X107150000Y-87000000I-150000J0D01*
G01*
D14*
%TO.C,HA13_P1*%
X118345000Y-61300000D02*
X118345000Y-58700000D01*
D15*
X119795000Y-60000000D02*
G75*
G03*
X119795000Y-60000000I-150000J0D01*
G01*
D14*
%TO.C,LA18_P_CC1*%
X133945000Y-52300000D02*
X133945000Y-49700000D01*
D15*
X135395000Y-51000000D02*
G75*
G03*
X135395000Y-51000000I-150000J0D01*
G01*
D14*
%TO.C,HA21_P1*%
X128440000Y-79300000D02*
X128440000Y-76700000D01*
D15*
X129890000Y-78000000D02*
G75*
G03*
X129890000Y-78000000I-150000J0D01*
G01*
D14*
%TO.C,HB17_P_CC1*%
X151385000Y-70300000D02*
X151385000Y-67700000D01*
D15*
X152835000Y-69000000D02*
G75*
G03*
X152835000Y-69000000I-150000J0D01*
G01*
D14*
%TO.C,LA07_P1*%
X119570000Y-70305000D02*
X119570000Y-67705000D01*
D15*
X121020000Y-69005000D02*
G75*
G03*
X121020000Y-69005000I-150000J0D01*
G01*
D14*
%TO.C,HB06_P_CC1*%
X143000000Y-61295000D02*
X143000000Y-58695000D01*
D15*
X144450000Y-59995000D02*
G75*
G03*
X144450000Y-59995000I-150000J0D01*
G01*
D14*
%TO.C,HB18_P1*%
X149380000Y-52300000D02*
X149380000Y-49700000D01*
D15*
X150830000Y-51000000D02*
G75*
G03*
X150830000Y-51000000I-150000J0D01*
G01*
D14*
%TO.C,CLK0_M2C_P1*%
X104700000Y-79300000D02*
X104700000Y-76700000D01*
D15*
X106150000Y-78000000D02*
G75*
G03*
X106150000Y-78000000I-150000J0D01*
G01*
D14*
%TO.C,HA02_P1*%
X111530000Y-70300000D02*
X111530000Y-67700000D01*
D15*
X112980000Y-69000000D02*
G75*
G03*
X112980000Y-69000000I-150000J0D01*
G01*
D14*
%TO.C,LA25_P1*%
X137380000Y-88295000D02*
X137380000Y-85695000D01*
D15*
X138830000Y-86995000D02*
G75*
G03*
X138830000Y-86995000I-150000J0D01*
G01*
D14*
%TO.C,HA06_P1*%
X117700000Y-52300000D02*
X117700000Y-49700000D01*
D15*
X119150000Y-51000000D02*
G75*
G03*
X119150000Y-51000000I-150000J0D01*
G01*
D14*
%TO.C,LA22_P1*%
X134700000Y-61300000D02*
X134700000Y-58700000D01*
D15*
X136150000Y-60000000D02*
G75*
G03*
X136150000Y-60000000I-150000J0D01*
G01*
D14*
%TO.C,HA18_P1*%
X127700000Y-70300000D02*
X127700000Y-67700000D01*
D15*
X129150000Y-69000000D02*
G75*
G03*
X129150000Y-69000000I-150000J0D01*
G01*
D14*
%TO.C,HB10_P1*%
X144700000Y-79300000D02*
X144700000Y-76700000D01*
D15*
X146150000Y-78000000D02*
G75*
G03*
X146150000Y-78000000I-150000J0D01*
G01*
D14*
%TO.C,HA10_P1*%
X120350000Y-79325000D02*
X120350000Y-76725000D01*
D15*
X121800000Y-78025000D02*
G75*
G03*
X121800000Y-78025000I-150000J0D01*
G01*
D14*
%TO.C,LA31_P1*%
X145400000Y-88290000D02*
X145400000Y-85690000D01*
D15*
X146850000Y-86990000D02*
G75*
G03*
X146850000Y-86990000I-150000J0D01*
G01*
D14*
%TO.C,HB06_N_CC1*%
X143000000Y-52300000D02*
X143000000Y-49700000D01*
D15*
X144450000Y-51000000D02*
G75*
G03*
X144450000Y-51000000I-150000J0D01*
G01*
D14*
%TO.C,HB20_P1*%
X153700000Y-88300000D02*
X153700000Y-85700000D01*
D15*
X155150000Y-87000000D02*
G75*
G03*
X155150000Y-87000000I-150000J0D01*
G01*
D14*
%TO.C,LA09_P1*%
X121570000Y-88300000D02*
X121570000Y-85700000D01*
D15*
X123020000Y-87000000D02*
G75*
G03*
X123020000Y-87000000I-150000J0D01*
G01*
D14*
%TO.C,HA01_P_CC1*%
X101700000Y-52300000D02*
X101700000Y-49700000D01*
D15*
X103150000Y-51000000D02*
G75*
G03*
X103150000Y-51000000I-150000J0D01*
G01*
D14*
%TO.C,HB10_N1*%
X144700000Y-70300000D02*
X144700000Y-67700000D01*
D15*
X146150000Y-69000000D02*
G75*
G03*
X146150000Y-69000000I-150000J0D01*
G01*
D14*
%TO.C,LA33_P1*%
X150115000Y-61295000D02*
X150115000Y-58695000D01*
D15*
X151565000Y-59995000D02*
G75*
G03*
X151565000Y-59995000I-150000J0D01*
G01*
%TD*%
M02*
