M48
; DRILL file {KiCad (6.0.8)} date Mon Dec  5 17:54:39 2022
; FORMAT={-:-/ absolute / metric / decimal}
; #@! TF.CreationDate,2022-12-05T17:54:39+01:00
; #@! TF.GenerationSoftware,Kicad,Pcbnew,(6.0.8)
; #@! TF.FileFunction,Plated,1,2,PTH
FMAT,2
METRIC
; #@! TA.AperFunction,Plated,PTH,ViaDrill
T1C0.254
%
G90
G05
T1
X108.38Y-31.115
X108.38Y-32.385
X108.38Y-33.655
X108.38Y-34.925
X108.38Y-36.195
X108.38Y-37.465
X108.38Y-38.735
X108.38Y-40.005
X108.38Y-41.275
X108.38Y-42.545
X109.65Y-31.115
X109.65Y-32.385
X109.65Y-33.655
X109.65Y-34.925
X109.65Y-36.195
X109.65Y-37.465
X109.65Y-38.735
X109.65Y-40.005
X109.65Y-41.275
X109.65Y-42.545
X110.92Y-31.115
X110.92Y-32.385
X110.92Y-33.655
X110.92Y-34.925
X110.92Y-36.195
X110.92Y-37.465
X110.92Y-38.735
X110.92Y-40.005
X110.92Y-41.275
X110.92Y-42.545
X112.19Y-31.115
X112.19Y-32.385
X112.19Y-33.655
X112.19Y-34.925
X112.19Y-36.195
X112.19Y-37.465
X112.19Y-38.735
X112.19Y-40.005
X112.19Y-41.275
X112.19Y-42.545
X113.46Y-31.115
X113.46Y-32.385
X113.46Y-33.655
X113.46Y-34.925
X113.46Y-36.195
X113.46Y-37.465
X113.46Y-38.735
X113.46Y-40.005
X113.46Y-41.275
X113.46Y-42.545
X114.73Y-31.115
X114.73Y-32.385
X114.73Y-33.655
X114.73Y-34.925
X114.73Y-36.195
X114.73Y-37.465
X114.73Y-38.735
X114.73Y-40.005
X114.73Y-41.275
X114.73Y-42.545
X116.0Y-31.115
X116.0Y-32.385
X116.0Y-33.655
X116.0Y-34.925
X116.0Y-36.195
X116.0Y-37.465
X116.0Y-38.735
X116.0Y-40.005
X116.0Y-41.275
X116.0Y-42.545
X117.27Y-31.115
X117.27Y-32.385
X117.27Y-33.655
X117.27Y-34.925
X117.27Y-36.195
X117.27Y-37.465
X117.27Y-38.735
X117.27Y-40.005
X117.27Y-41.275
X117.27Y-42.545
X118.54Y-31.115
X118.54Y-32.385
X118.54Y-33.655
X118.54Y-34.925
X118.54Y-36.195
X118.54Y-37.465
X118.54Y-38.735
X118.54Y-40.005
X118.54Y-41.275
X118.54Y-42.545
X119.81Y-31.115
X119.81Y-32.385
X119.81Y-33.655
X119.81Y-34.925
X119.81Y-36.195
X119.81Y-37.465
X119.81Y-38.735
X119.81Y-40.005
X119.81Y-41.275
X119.81Y-42.545
X121.08Y-31.115
X121.08Y-32.385
X121.08Y-33.655
X121.08Y-34.925
X121.08Y-36.195
X121.08Y-37.465
X121.08Y-38.735
X121.08Y-40.005
X121.08Y-41.275
X121.08Y-42.545
X122.35Y-31.115
X122.35Y-32.385
X122.35Y-33.655
X122.35Y-34.925
X122.35Y-36.195
X122.35Y-37.465
X122.35Y-38.75
X122.35Y-40.005
X122.35Y-41.275
X122.35Y-42.545
X123.62Y-31.115
X123.62Y-32.385
X123.62Y-33.655
X123.62Y-34.925
X123.62Y-36.195
X123.62Y-37.465
X123.62Y-38.735
X123.62Y-40.005
X123.62Y-41.275
X123.62Y-42.545
X124.89Y-31.115
X124.89Y-32.385
X124.89Y-33.655
X124.89Y-34.925
X124.89Y-36.195
X124.89Y-37.465
X124.89Y-38.735
X124.89Y-40.005
X124.89Y-41.275
X124.89Y-42.545
X126.16Y-31.115
X126.16Y-32.385
X126.16Y-33.655
X126.16Y-34.925
X126.16Y-36.195
X126.16Y-37.465
X126.16Y-38.735
X126.16Y-40.005
X126.16Y-41.275
X126.16Y-42.545
X127.43Y-31.115
X127.43Y-32.385
X127.43Y-33.655
X127.43Y-34.925
X127.43Y-36.195
X127.43Y-37.465
X127.43Y-38.735
X127.43Y-40.005
X127.43Y-41.275
X127.43Y-42.545
X128.7Y-31.115
X128.7Y-32.385
X128.7Y-33.655
X128.7Y-34.925
X128.7Y-36.195
X128.7Y-37.465
X128.7Y-38.735
X128.7Y-40.005
X128.7Y-41.275
X128.7Y-42.545
X129.97Y-31.115
X129.97Y-32.385
X129.97Y-33.655
X129.97Y-34.925
X129.97Y-36.195
X129.97Y-37.465
X129.97Y-38.735
X129.97Y-40.005
X129.97Y-41.275
X129.97Y-42.545
X131.24Y-31.115
X131.24Y-32.385
X131.24Y-33.655
X131.24Y-34.925
X131.24Y-36.195
X131.24Y-37.465
X131.24Y-38.735
X131.24Y-40.005
X131.24Y-41.275
X131.24Y-42.545
X132.51Y-31.115
X132.51Y-32.385
X132.51Y-33.655
X132.51Y-34.925
X132.51Y-36.195
X132.51Y-37.465
X132.51Y-38.735
X132.51Y-40.005
X132.51Y-41.275
X132.51Y-42.545
X133.78Y-31.115
X133.78Y-32.385
X133.78Y-33.655
X133.78Y-34.925
X133.78Y-36.195
X133.78Y-37.465
X133.78Y-38.735
X133.78Y-40.005
X133.78Y-41.275
X133.78Y-42.545
X135.05Y-31.115
X135.05Y-32.385
X135.05Y-33.655
X135.05Y-34.925
X135.05Y-36.195
X135.05Y-37.465
X135.05Y-38.735
X135.05Y-40.005
X135.05Y-41.275
X135.05Y-42.545
X136.32Y-31.115
X136.32Y-32.385
X136.32Y-33.655
X136.32Y-34.925
X136.32Y-36.195
X136.32Y-37.465
X136.32Y-38.735
X136.32Y-40.005
X136.32Y-41.275
X136.32Y-42.545
X137.59Y-31.115
X137.59Y-32.385
X137.59Y-33.655
X137.59Y-34.925
X137.59Y-36.195
X137.59Y-37.465
X137.59Y-38.735
X137.59Y-40.005
X137.59Y-41.275
X137.59Y-42.545
X138.86Y-31.115
X138.86Y-32.385
X138.86Y-33.655
X138.86Y-34.925
X138.86Y-36.195
X138.86Y-37.465
X138.86Y-38.735
X138.86Y-40.005
X138.86Y-41.275
X138.86Y-42.545
X140.13Y-31.115
X140.13Y-32.385
X140.13Y-33.655
X140.13Y-34.925
X140.13Y-36.195
X140.13Y-37.465
X140.13Y-38.735
X140.13Y-40.005
X140.13Y-41.275
X140.13Y-42.545
X141.4Y-31.115
X141.4Y-32.385
X141.4Y-33.655
X141.4Y-34.925
X141.4Y-36.195
X141.4Y-37.465
X141.4Y-38.735
X141.4Y-40.005
X141.4Y-41.275
X141.4Y-42.545
X142.67Y-31.115
X142.67Y-32.385
X142.67Y-33.655
X142.67Y-34.925
X142.67Y-36.195
X142.67Y-37.465
X142.67Y-38.735
X142.67Y-40.005
X142.67Y-41.275
X142.67Y-42.545
X143.94Y-31.115
X143.94Y-32.385
X143.94Y-33.655
X143.94Y-34.925
X143.94Y-36.195
X143.94Y-37.465
X143.94Y-38.735
X143.94Y-40.005
X143.94Y-41.275
X143.94Y-42.545
X145.21Y-31.115
X145.21Y-32.385
X145.21Y-33.655
X145.21Y-34.925
X145.21Y-36.195
X145.21Y-37.465
X145.21Y-38.735
X145.21Y-40.005
X145.21Y-41.275
X145.21Y-42.545
X146.48Y-31.115
X146.48Y-32.385
X146.48Y-33.655
X146.48Y-34.925
X146.48Y-36.195
X146.48Y-37.465
X146.48Y-38.735
X146.48Y-40.005
X146.48Y-41.275
X146.48Y-42.545
X147.75Y-31.115
X147.75Y-32.385
X147.75Y-33.655
X147.75Y-34.925
X147.75Y-36.195
X147.75Y-37.465
X147.75Y-38.735
X147.75Y-40.005
X147.75Y-41.275
X147.75Y-42.545
X149.02Y-31.115
X149.02Y-32.385
X149.02Y-33.655
X149.02Y-34.925
X149.02Y-36.195
X149.02Y-37.465
X149.02Y-38.735
X149.02Y-40.005
X149.02Y-41.275
X149.02Y-42.545
X150.29Y-31.115
X150.29Y-32.385
X150.29Y-33.655
X150.29Y-34.925
X150.29Y-36.195
X150.29Y-37.465
X150.29Y-38.735
X150.29Y-40.005
X150.29Y-41.275
X150.29Y-42.545
X151.56Y-31.115
X151.56Y-32.385
X151.56Y-33.655
X151.56Y-34.925
X151.56Y-36.195
X151.56Y-37.465
X151.56Y-38.735
X151.56Y-40.005
X151.56Y-41.275
X151.56Y-42.545
X152.83Y-31.115
X152.83Y-32.385
X152.83Y-33.655
X152.83Y-34.925
X152.83Y-36.195
X152.83Y-37.465
X152.83Y-38.735
X152.83Y-40.005
X152.83Y-41.275
X152.83Y-42.545
X154.1Y-31.115
X154.1Y-32.385
X154.1Y-33.655
X154.1Y-34.925
X154.1Y-36.195
X154.1Y-37.465
X154.1Y-38.735
X154.1Y-40.005
X154.1Y-41.275
X154.1Y-42.545
X155.37Y-31.115
X155.37Y-32.385
X155.37Y-33.655
X155.37Y-34.925
X155.37Y-36.195
X155.37Y-37.465
X155.37Y-38.735
X155.37Y-40.005
X155.37Y-41.275
X155.37Y-42.545
X156.64Y-31.115
X156.64Y-32.385
X156.64Y-33.655
X156.64Y-34.925
X156.64Y-36.195
X156.64Y-37.465
X156.64Y-38.735
X156.64Y-40.005
X156.64Y-41.275
X156.64Y-42.545
X157.91Y-31.115
X157.91Y-32.385
X157.91Y-33.655
X157.91Y-34.925
X157.91Y-36.195
X157.91Y-37.465
X157.91Y-38.735
X157.91Y-40.005
X157.91Y-41.275
X157.91Y-42.545
T0
M30
