%TF.GenerationSoftware,KiCad,Pcbnew,(6.0.8)*%
%TF.CreationDate,2022-12-05T17:54:35+01:00*%
%TF.ProjectId,FMC-HPC-BRK,464d432d-4850-4432-9d42-524b2e6b6963,rev?*%
%TF.SameCoordinates,Original*%
%TF.FileFunction,Soldermask,Top*%
%TF.FilePolarity,Negative*%
%FSLAX46Y46*%
G04 Gerber Fmt 4.6, Leading zero omitted, Abs format (unit mm)*
G04 Created by KiCad (PCBNEW (6.0.8)) date 2022-12-05 17:54:35*
%MOMM*%
%LPD*%
G01*
G04 APERTURE LIST*
G04 Aperture macros list*
%AMRoundRect*
0 Rectangle with rounded corners*
0 $1 Rounding radius*
0 $2 $3 $4 $5 $6 $7 $8 $9 X,Y pos of 4 corners*
0 Add a 4 corners polygon primitive as box body*
4,1,4,$2,$3,$4,$5,$6,$7,$8,$9,$2,$3,0*
0 Add four circle primitives for the rounded corners*
1,1,$1+$1,$2,$3*
1,1,$1+$1,$4,$5*
1,1,$1+$1,$6,$7*
1,1,$1+$1,$8,$9*
0 Add four rect primitives between the rounded corners*
20,1,$1+$1,$2,$3,$4,$5,0*
20,1,$1+$1,$4,$5,$6,$7,0*
20,1,$1+$1,$6,$7,$8,$9,0*
20,1,$1+$1,$8,$9,$2,$3,0*%
G04 Aperture macros list end*
%ADD10C,1.270000*%
%ADD11C,0.640000*%
%ADD12R,0.600000X0.580000*%
%ADD13RoundRect,0.194780X0.144780X0.144780X-0.144780X0.144780X-0.144780X-0.144780X0.144780X-0.144780X0*%
%ADD14RoundRect,0.194780X-0.144780X-0.144780X0.144780X-0.144780X0.144780X0.144780X-0.144780X0.144780X0*%
%ADD15R,2.200000X1.050000*%
%ADD16R,1.050000X1.000000*%
G04 APERTURE END LIST*
D10*
%TO.C,J1*%
X105954000Y-36830000D03*
X160336000Y-39880000D03*
%TD*%
%TO.C,K1*%
X105956000Y-33780000D03*
X160336000Y-36830000D03*
D11*
X108380000Y-31115000D03*
X109650000Y-31115000D03*
X110920000Y-31115000D03*
X112190000Y-31115000D03*
X113460000Y-31115000D03*
X114730000Y-31115000D03*
X116000000Y-31115000D03*
X117270000Y-31115000D03*
X118540000Y-31115000D03*
X119810000Y-31115000D03*
X121080000Y-31115000D03*
X122350000Y-31115000D03*
X123620000Y-31115000D03*
X124890000Y-31115000D03*
X126160000Y-31115000D03*
X127430000Y-31115000D03*
X128700000Y-31115000D03*
X129970000Y-31115000D03*
X131240000Y-31115000D03*
X132510000Y-31115000D03*
X133780000Y-31115000D03*
X135050000Y-31115000D03*
X136320000Y-31115000D03*
X137590000Y-31115000D03*
X138860000Y-31115000D03*
X140130000Y-31115000D03*
X141400000Y-31115000D03*
X142670000Y-31115000D03*
X143940000Y-31115000D03*
X145210000Y-31115000D03*
X146480000Y-31115000D03*
X147750000Y-31115000D03*
X149020000Y-31115000D03*
X150290000Y-31115000D03*
X151560000Y-31115000D03*
X152830000Y-31115000D03*
X154100000Y-31115000D03*
X155370000Y-31115000D03*
X156640000Y-31115000D03*
X157910000Y-31115000D03*
X108380000Y-32385000D03*
X109650000Y-32385000D03*
X110920000Y-32385000D03*
X112190000Y-32385000D03*
X113460000Y-32385000D03*
X114730000Y-32385000D03*
X116000000Y-32385000D03*
X117270000Y-32385000D03*
X118540000Y-32385000D03*
X119810000Y-32385000D03*
X121080000Y-32385000D03*
X122350000Y-32385000D03*
X123620000Y-32385000D03*
X124890000Y-32385000D03*
X126160000Y-32385000D03*
X127430000Y-32385000D03*
X128700000Y-32385000D03*
X129970000Y-32385000D03*
X131240000Y-32385000D03*
X132510000Y-32385000D03*
X133780000Y-32385000D03*
X135050000Y-32385000D03*
X136320000Y-32385000D03*
X137590000Y-32385000D03*
X138860000Y-32385000D03*
X140130000Y-32385000D03*
X141400000Y-32385000D03*
X142670000Y-32385000D03*
X143940000Y-32385000D03*
X145210000Y-32385000D03*
X146480000Y-32385000D03*
X147750000Y-32385000D03*
X149020000Y-32385000D03*
X150290000Y-32385000D03*
X151560000Y-32385000D03*
X152830000Y-32385000D03*
X154100000Y-32385000D03*
X155370000Y-32385000D03*
X156640000Y-32385000D03*
X157910000Y-32385000D03*
X108380000Y-33655000D03*
X109650000Y-33655000D03*
X110920000Y-33655000D03*
X112190000Y-33655000D03*
X113460000Y-33655000D03*
X114730000Y-33655000D03*
X116000000Y-33655000D03*
X117270000Y-33655000D03*
X118540000Y-33655000D03*
X119810000Y-33655000D03*
X121080000Y-33655000D03*
X122350000Y-33655000D03*
X123620000Y-33655000D03*
X124890000Y-33655000D03*
X126160000Y-33655000D03*
X127430000Y-33655000D03*
X128700000Y-33655000D03*
X129970000Y-33655000D03*
X131240000Y-33655000D03*
X132510000Y-33655000D03*
X133780000Y-33655000D03*
X135050000Y-33655000D03*
X136320000Y-33655000D03*
X137590000Y-33655000D03*
X138860000Y-33655000D03*
X140130000Y-33655000D03*
X141400000Y-33655000D03*
X142670000Y-33655000D03*
X143940000Y-33655000D03*
X145210000Y-33655000D03*
X146480000Y-33655000D03*
X147750000Y-33655000D03*
X149020000Y-33655000D03*
X150290000Y-33655000D03*
X151560000Y-33655000D03*
X152830000Y-33655000D03*
X154100000Y-33655000D03*
X155370000Y-33655000D03*
X156640000Y-33655000D03*
X157910000Y-33655000D03*
X108380000Y-34925000D03*
X109650000Y-34925000D03*
X110920000Y-34925000D03*
X112190000Y-34925000D03*
X113460000Y-34925000D03*
X114730000Y-34925000D03*
X116000000Y-34925000D03*
X117270000Y-34925000D03*
X118540000Y-34925000D03*
X119810000Y-34925000D03*
X121080000Y-34925000D03*
X122350000Y-34925000D03*
X123620000Y-34925000D03*
X124890000Y-34925000D03*
X126160000Y-34925000D03*
X127430000Y-34925000D03*
X128700000Y-34925000D03*
X129970000Y-34925000D03*
X131240000Y-34925000D03*
X132510000Y-34925000D03*
X133780000Y-34925000D03*
X135050000Y-34925000D03*
X136320000Y-34925000D03*
X137590000Y-34925000D03*
X138860000Y-34925000D03*
X140130000Y-34925000D03*
X141400000Y-34925000D03*
X142670000Y-34925000D03*
X143940000Y-34925000D03*
X145210000Y-34925000D03*
X146480000Y-34925000D03*
X147750000Y-34925000D03*
X149020000Y-34925000D03*
X150290000Y-34925000D03*
X151560000Y-34925000D03*
X152830000Y-34925000D03*
X154100000Y-34925000D03*
X155370000Y-34925000D03*
X156640000Y-34925000D03*
X157910000Y-34925000D03*
X108380000Y-36195000D03*
X109650000Y-36195000D03*
X110920000Y-36195000D03*
X112190000Y-36195000D03*
X113460000Y-36195000D03*
X114730000Y-36195000D03*
X116000000Y-36195000D03*
X117270000Y-36195000D03*
X118540000Y-36195000D03*
X119810000Y-36195000D03*
X121080000Y-36195000D03*
X122350000Y-36195000D03*
X123620000Y-36195000D03*
X124890000Y-36195000D03*
X126160000Y-36195000D03*
X127430000Y-36195000D03*
X128700000Y-36195000D03*
X129970000Y-36195000D03*
X131240000Y-36195000D03*
X132510000Y-36195000D03*
X133780000Y-36195000D03*
X135050000Y-36195000D03*
X136320000Y-36195000D03*
X137590000Y-36195000D03*
X138860000Y-36195000D03*
X140130000Y-36195000D03*
X141400000Y-36195000D03*
X142670000Y-36195000D03*
X143940000Y-36195000D03*
X145210000Y-36195000D03*
X146480000Y-36195000D03*
X147750000Y-36195000D03*
X149020000Y-36195000D03*
X150290000Y-36195000D03*
X151560000Y-36195000D03*
X152830000Y-36195000D03*
X154100000Y-36195000D03*
X155370000Y-36195000D03*
X156640000Y-36195000D03*
X157910000Y-36195000D03*
X108380000Y-37465000D03*
X109650000Y-37465000D03*
X110920000Y-37465000D03*
X112190000Y-37465000D03*
X113460000Y-37465000D03*
X114730000Y-37465000D03*
X116000000Y-37465000D03*
X117270000Y-37465000D03*
X118540000Y-37465000D03*
X119810000Y-37465000D03*
X121080000Y-37465000D03*
X122350000Y-37465000D03*
X123620000Y-37465000D03*
X124890000Y-37465000D03*
X126160000Y-37465000D03*
X127430000Y-37465000D03*
X128700000Y-37465000D03*
X129970000Y-37465000D03*
X131240000Y-37465000D03*
X132510000Y-37465000D03*
X133780000Y-37465000D03*
X135050000Y-37465000D03*
X136320000Y-37465000D03*
X137590000Y-37465000D03*
X138860000Y-37465000D03*
X140130000Y-37465000D03*
X141400000Y-37465000D03*
X142670000Y-37465000D03*
X143940000Y-37465000D03*
X145210000Y-37465000D03*
X146480000Y-37465000D03*
X147750000Y-37465000D03*
X149020000Y-37465000D03*
X150290000Y-37465000D03*
X151560000Y-37465000D03*
X152830000Y-37465000D03*
X154100000Y-37465000D03*
X155370000Y-37465000D03*
X156640000Y-37465000D03*
X157910000Y-37465000D03*
X108380000Y-38735000D03*
X109650000Y-38735000D03*
X110920000Y-38735000D03*
X112190000Y-38735000D03*
X113460000Y-38735000D03*
X114730000Y-38735000D03*
X116000000Y-38735000D03*
X117270000Y-38735000D03*
X118540000Y-38735000D03*
X119810000Y-38735000D03*
X121080000Y-38735000D03*
X122350000Y-38735000D03*
X123620000Y-38735000D03*
X124890000Y-38735000D03*
X126160000Y-38735000D03*
X127430000Y-38735000D03*
X128700000Y-38735000D03*
X129970000Y-38735000D03*
X131240000Y-38735000D03*
X132510000Y-38735000D03*
X133780000Y-38735000D03*
X135050000Y-38735000D03*
X136320000Y-38735000D03*
X137590000Y-38735000D03*
X138860000Y-38735000D03*
X140130000Y-38735000D03*
X141400000Y-38735000D03*
X142670000Y-38735000D03*
X143940000Y-38735000D03*
X145210000Y-38735000D03*
X146480000Y-38735000D03*
X147750000Y-38735000D03*
X149020000Y-38735000D03*
X150290000Y-38735000D03*
X151560000Y-38735000D03*
X152830000Y-38735000D03*
X154100000Y-38735000D03*
X155370000Y-38735000D03*
X156640000Y-38735000D03*
X157910000Y-38735000D03*
X108380000Y-40005000D03*
X109650000Y-40005000D03*
X110920000Y-40005000D03*
X112190000Y-40005000D03*
X113460000Y-40005000D03*
X114730000Y-40005000D03*
X116000000Y-40005000D03*
X117270000Y-40005000D03*
X118540000Y-40005000D03*
X119810000Y-40005000D03*
X121080000Y-40005000D03*
X122350000Y-40005000D03*
X123620000Y-40005000D03*
X124890000Y-40005000D03*
X126160000Y-40005000D03*
X127430000Y-40005000D03*
X128700000Y-40005000D03*
X129970000Y-40005000D03*
X131240000Y-40005000D03*
X132510000Y-40005000D03*
X133780000Y-40005000D03*
X135050000Y-40005000D03*
X136320000Y-40005000D03*
X137590000Y-40005000D03*
X138860000Y-40005000D03*
X140130000Y-40005000D03*
X141400000Y-40005000D03*
X142670000Y-40005000D03*
X143940000Y-40005000D03*
X145210000Y-40005000D03*
X146480000Y-40005000D03*
X147750000Y-40005000D03*
X149020000Y-40005000D03*
X150290000Y-40005000D03*
X151560000Y-40005000D03*
X152830000Y-40005000D03*
X154100000Y-40005000D03*
X155370000Y-40005000D03*
X156640000Y-40005000D03*
X157910000Y-40005000D03*
X108380000Y-41275000D03*
X109650000Y-41275000D03*
X110920000Y-41275000D03*
X112190000Y-41275000D03*
X113460000Y-41275000D03*
X114730000Y-41275000D03*
X116000000Y-41275000D03*
X117270000Y-41275000D03*
X118540000Y-41275000D03*
X119810000Y-41275000D03*
X121080000Y-41275000D03*
X122350000Y-41275000D03*
X123620000Y-41275000D03*
X124890000Y-41275000D03*
X126160000Y-41275000D03*
X127430000Y-41275000D03*
X128700000Y-41275000D03*
X129970000Y-41275000D03*
X131240000Y-41275000D03*
X132510000Y-41275000D03*
X133780000Y-41275000D03*
X135050000Y-41275000D03*
X136320000Y-41275000D03*
X137590000Y-41275000D03*
X138860000Y-41275000D03*
X140130000Y-41275000D03*
X141400000Y-41275000D03*
X142670000Y-41275000D03*
X143940000Y-41275000D03*
X145210000Y-41275000D03*
X146480000Y-41275000D03*
X147750000Y-41275000D03*
X149020000Y-41275000D03*
X150290000Y-41275000D03*
X151560000Y-41275000D03*
X152830000Y-41275000D03*
X154100000Y-41275000D03*
X155370000Y-41275000D03*
X156640000Y-41275000D03*
X157910000Y-41275000D03*
X108380000Y-42545000D03*
X109650000Y-42545000D03*
X110920000Y-42545000D03*
X112190000Y-42545000D03*
X113460000Y-42545000D03*
X114730000Y-42545000D03*
X116000000Y-42545000D03*
X117270000Y-42545000D03*
X118540000Y-42545000D03*
X119810000Y-42545000D03*
X121080000Y-42545000D03*
X122350000Y-42545000D03*
X123620000Y-42545000D03*
X124890000Y-42545000D03*
X126160000Y-42545000D03*
X127430000Y-42545000D03*
X128700000Y-42545000D03*
X129970000Y-42545000D03*
X131240000Y-42545000D03*
X132510000Y-42545000D03*
X133780000Y-42545000D03*
X135050000Y-42545000D03*
X136320000Y-42545000D03*
X137590000Y-42545000D03*
X138860000Y-42545000D03*
X140130000Y-42545000D03*
X141400000Y-42545000D03*
X142670000Y-42545000D03*
X143940000Y-42545000D03*
X145210000Y-42545000D03*
X146480000Y-42545000D03*
X147750000Y-42545000D03*
X149020000Y-42545000D03*
X150290000Y-42545000D03*
X151560000Y-42545000D03*
X152830000Y-42545000D03*
X154100000Y-42545000D03*
X155370000Y-42545000D03*
X156640000Y-42545000D03*
X157910000Y-42545000D03*
%TD*%
D12*
%TO.C,R1*%
X137855000Y-64925000D03*
X138785000Y-64925000D03*
%TD*%
%TO.C,R9*%
X153605000Y-64995000D03*
X154535000Y-64995000D03*
%TD*%
%TO.C,R4*%
X112930000Y-56170000D03*
X113860000Y-56170000D03*
%TD*%
%TO.C,R2*%
X104945000Y-56170000D03*
X105875000Y-56170000D03*
%TD*%
%TO.C,R13*%
X110760000Y-47820000D03*
X109830000Y-47820000D03*
%TD*%
%TO.C,R10*%
X112155000Y-46895000D03*
X113085000Y-46895000D03*
%TD*%
%TO.C,R7*%
X103950000Y-45265000D03*
X104880000Y-45265000D03*
%TD*%
%TO.C,R8*%
X108290000Y-44385000D03*
X107360000Y-44385000D03*
%TD*%
%TO.C,R5*%
X110165000Y-44375000D03*
X111095000Y-44375000D03*
%TD*%
%TO.C,R12*%
X117140000Y-44895000D03*
X118070000Y-44895000D03*
%TD*%
%TO.C,R3*%
X136115000Y-47315000D03*
X137045000Y-47315000D03*
%TD*%
%TO.C,R11*%
X134310000Y-45620000D03*
X133380000Y-45620000D03*
%TD*%
%TO.C,R6*%
X127425000Y-45655000D03*
X128355000Y-45655000D03*
%TD*%
D13*
%TO.C,C1*%
X128730260Y-55950000D03*
D14*
X129649740Y-55950000D03*
%TD*%
D15*
%TO.C,LA00_P_CC1*%
X112000000Y-61475000D03*
D16*
X113525000Y-60000000D03*
D15*
X112000000Y-58525000D03*
%TD*%
%TO.C,LA32_P1*%
X153935000Y-79475000D03*
D16*
X155460000Y-78000000D03*
D15*
X153935000Y-76525000D03*
%TD*%
%TO.C,HA04_P1*%
X113855000Y-79475000D03*
D16*
X115380000Y-78000000D03*
D15*
X113855000Y-76525000D03*
%TD*%
%TO.C,CLK3_BIDIR_P1*%
X105000000Y-70475000D03*
D16*
X106525000Y-69000000D03*
D15*
X105000000Y-67525000D03*
%TD*%
%TO.C,LA13_P1*%
X127785000Y-61470000D03*
D16*
X129310000Y-59995000D03*
D15*
X127785000Y-58520000D03*
%TD*%
%TO.C,HA17_P_CC1*%
X127065000Y-52470000D03*
D16*
X128590000Y-50995000D03*
D15*
X127065000Y-49520000D03*
%TD*%
%TO.C,LA01_P_CC1*%
X114800000Y-88470000D03*
D16*
X116325000Y-86995000D03*
D15*
X114800000Y-85520000D03*
%TD*%
%TO.C,HB00_P_CC2*%
X136925000Y-70470000D03*
D16*
X138450000Y-68995000D03*
D15*
X136925000Y-67520000D03*
%TD*%
%TO.C,CLK1_M2C_P1*%
X104000000Y-61475000D03*
D16*
X105525000Y-60000000D03*
D15*
X104000000Y-58525000D03*
%TD*%
%TO.C,LA17_P_CC1*%
X131000000Y-88475000D03*
D16*
X132525000Y-87000000D03*
D15*
X131000000Y-85525000D03*
%TD*%
%TO.C,HB21_P1*%
X161075000Y-49520000D03*
D16*
X159550000Y-50995000D03*
D15*
X161075000Y-52470000D03*
%TD*%
%TO.C,LA21_P1*%
X138000000Y-79475000D03*
D16*
X139525000Y-78000000D03*
D15*
X138000000Y-76525000D03*
%TD*%
%TO.C,HA00_P_CC1*%
X111245000Y-52475000D03*
D16*
X112770000Y-51000000D03*
D15*
X111245000Y-49525000D03*
%TD*%
%TO.C,CLK2_BIDIR_P1*%
X107000000Y-88475000D03*
D16*
X108525000Y-87000000D03*
D15*
X107000000Y-85525000D03*
%TD*%
%TO.C,HA13_P1*%
X119645000Y-61475000D03*
D16*
X121170000Y-60000000D03*
D15*
X119645000Y-58525000D03*
%TD*%
%TO.C,LA18_P_CC1*%
X135245000Y-52475000D03*
D16*
X136770000Y-51000000D03*
D15*
X135245000Y-49525000D03*
%TD*%
%TO.C,HA21_P1*%
X129740000Y-79475000D03*
D16*
X131265000Y-78000000D03*
D15*
X129740000Y-76525000D03*
%TD*%
%TO.C,HB17_P_CC1*%
X152685000Y-70475000D03*
D16*
X154210000Y-69000000D03*
D15*
X152685000Y-67525000D03*
%TD*%
%TO.C,LA07_P1*%
X120870000Y-70480000D03*
D16*
X122395000Y-69005000D03*
D15*
X120870000Y-67530000D03*
%TD*%
%TO.C,HB06_P_CC1*%
X144300000Y-61470000D03*
D16*
X145825000Y-59995000D03*
D15*
X144300000Y-58520000D03*
%TD*%
%TO.C,HB18_P1*%
X150680000Y-52475000D03*
D16*
X152205000Y-51000000D03*
D15*
X150680000Y-49525000D03*
%TD*%
%TO.C,CLK0_M2C_P1*%
X106000000Y-79475000D03*
D16*
X107525000Y-78000000D03*
D15*
X106000000Y-76525000D03*
%TD*%
%TO.C,HA02_P1*%
X112830000Y-70475000D03*
D16*
X114355000Y-69000000D03*
D15*
X112830000Y-67525000D03*
%TD*%
%TO.C,LA25_P1*%
X138680000Y-88470000D03*
D16*
X140205000Y-86995000D03*
D15*
X138680000Y-85520000D03*
%TD*%
%TO.C,HA06_P1*%
X119000000Y-52475000D03*
D16*
X120525000Y-51000000D03*
D15*
X119000000Y-49525000D03*
%TD*%
%TO.C,LA22_P1*%
X136000000Y-61475000D03*
D16*
X137525000Y-60000000D03*
D15*
X136000000Y-58525000D03*
%TD*%
%TO.C,HA18_P1*%
X129000000Y-70475000D03*
D16*
X130525000Y-69000000D03*
D15*
X129000000Y-67525000D03*
%TD*%
%TO.C,HB10_P1*%
X146000000Y-79475000D03*
D16*
X147525000Y-78000000D03*
D15*
X146000000Y-76525000D03*
%TD*%
%TO.C,HA10_P1*%
X121650000Y-79500000D03*
D16*
X123175000Y-78025000D03*
D15*
X121650000Y-76550000D03*
%TD*%
%TO.C,LA31_P1*%
X146700000Y-88465000D03*
D16*
X148225000Y-86990000D03*
D15*
X146700000Y-85515000D03*
%TD*%
%TO.C,HB06_N_CC1*%
X144300000Y-52475000D03*
D16*
X145825000Y-51000000D03*
D15*
X144300000Y-49525000D03*
%TD*%
%TO.C,HB20_P1*%
X155000000Y-88475000D03*
D16*
X156525000Y-87000000D03*
D15*
X155000000Y-85525000D03*
%TD*%
%TO.C,LA09_P1*%
X122870000Y-88475000D03*
D16*
X124395000Y-87000000D03*
D15*
X122870000Y-85525000D03*
%TD*%
%TO.C,HA01_P_CC1*%
X103000000Y-52475000D03*
D16*
X104525000Y-51000000D03*
D15*
X103000000Y-49525000D03*
%TD*%
%TO.C,HB10_N1*%
X146000000Y-70475000D03*
D16*
X147525000Y-69000000D03*
D15*
X146000000Y-67525000D03*
%TD*%
%TO.C,LA33_P1*%
X151415000Y-61470000D03*
D16*
X152940000Y-59995000D03*
D15*
X151415000Y-58520000D03*
%TD*%
M02*
