%TF.GenerationSoftware,KiCad,Pcbnew,(6.0.8)*%
%TF.CreationDate,2022-10-28T14:48:27+02:00*%
%TF.ProjectId,XEM8350-BRK-MC1,58454d38-3335-4302-9d42-524b2d4d4331,rev?*%
%TF.SameCoordinates,Original*%
%TF.FileFunction,Other,User*%
%FSLAX46Y46*%
G04 Gerber Fmt 4.6, Leading zero omitted, Abs format (unit mm)*
G04 Created by KiCad (PCBNEW (6.0.8)) date 2022-10-28 14:48:27*
%MOMM*%
%LPD*%
G01*
G04 APERTURE LIST*
%ADD10C,0.050000*%
G04 APERTURE END LIST*
D10*
%TO.C,R1*%
X112933000Y-123618000D02*
X112933000Y-126572000D01*
X114397000Y-123618000D02*
X114397000Y-126572000D01*
X112933000Y-123618000D02*
X114397000Y-123618000D01*
X112933000Y-126572000D02*
X114397000Y-126572000D01*
%TO.C,MC1*%
X118335000Y-130559000D02*
X178845000Y-130559000D01*
X178845000Y-130559000D02*
X178845000Y-138681000D01*
X178845000Y-138681000D02*
X118335000Y-138681000D01*
X118335000Y-138681000D02*
X118335000Y-130559000D01*
%TO.C,P20*%
X87905000Y-113940000D02*
X96245000Y-113940000D01*
X96245000Y-122280000D02*
X96245000Y-113940000D01*
X87905000Y-113940000D02*
X87905000Y-122280000D01*
X96245000Y-122280000D02*
X87905000Y-122280000D01*
%TO.C,P87*%
X147619050Y-98150000D02*
X139279050Y-98150000D01*
X139279050Y-89810000D02*
X139279050Y-98150000D01*
X147619050Y-98150000D02*
X147619050Y-89810000D01*
X139279050Y-89810000D02*
X147619050Y-89810000D01*
%TO.C,REF\u002A\u002A*%
X192950000Y-139700000D02*
G75*
G03*
X192950000Y-139700000I-2450000J0D01*
G01*
%TO.C,P97*%
X160385629Y-110215000D02*
X160385629Y-101875000D01*
X152045629Y-101875000D02*
X152045629Y-110215000D01*
X152045629Y-101875000D02*
X160385629Y-101875000D01*
X160385629Y-110215000D02*
X152045629Y-110215000D01*
%TO.C,REF\u002A\u002A*%
X91350000Y-139700000D02*
G75*
G03*
X91350000Y-139700000I-2450000J0D01*
G01*
%TO.C,P41*%
X134959684Y-98150000D02*
X134959684Y-89810000D01*
X126619684Y-89810000D02*
X126619684Y-98150000D01*
X134959684Y-98150000D02*
X126619684Y-98150000D01*
X126619684Y-89810000D02*
X134959684Y-89810000D01*
%TO.C,P17*%
X109495000Y-113940000D02*
X117835000Y-113940000D01*
X117835000Y-122280000D02*
X109495000Y-122280000D01*
X117835000Y-122280000D02*
X117835000Y-113940000D01*
X109495000Y-113940000D02*
X109495000Y-122280000D01*
%TO.C,P33*%
X122846250Y-110215000D02*
X114506250Y-110215000D01*
X114506250Y-101875000D02*
X122846250Y-101875000D01*
X122846250Y-110215000D02*
X122846250Y-101875000D01*
X114506250Y-101875000D02*
X114506250Y-110215000D01*
%TO.C,P89*%
X147680000Y-110215000D02*
X139340000Y-110215000D01*
X139340000Y-101875000D02*
X139340000Y-110215000D01*
X139340000Y-101875000D02*
X147680000Y-101875000D01*
X147680000Y-110215000D02*
X147680000Y-101875000D01*
%TO.C,P111*%
X172445000Y-98150000D02*
X172445000Y-89810000D01*
X164105000Y-89810000D02*
X172445000Y-89810000D01*
X172445000Y-98150000D02*
X164105000Y-98150000D01*
X164105000Y-89810000D02*
X164105000Y-98150000D01*
%TO.C,P43*%
X126619684Y-77745000D02*
X126619684Y-86085000D01*
X126619684Y-77745000D02*
X134959684Y-77745000D01*
X134959684Y-86085000D02*
X126619684Y-86085000D01*
X134959684Y-86085000D02*
X134959684Y-77745000D01*
%TO.C,REF\u002A\u002A*%
X91350000Y-76200000D02*
G75*
G03*
X91350000Y-76200000I-2450000J0D01*
G01*
%TO.C,P18*%
X108310000Y-122280000D02*
X108310000Y-113940000D01*
X108310000Y-122280000D02*
X99970000Y-122280000D01*
X99970000Y-113940000D02*
X108310000Y-113940000D01*
X99970000Y-113940000D02*
X99970000Y-122280000D01*
%TO.C,P35*%
X134980000Y-110215000D02*
X126640000Y-110215000D01*
X126640000Y-101875000D02*
X126640000Y-110215000D01*
X126640000Y-101875000D02*
X134980000Y-101875000D01*
X134980000Y-110215000D02*
X134980000Y-101875000D01*
%TO.C,P95*%
X160380000Y-98150000D02*
X152040000Y-98150000D01*
X152040000Y-89810000D02*
X152040000Y-98150000D01*
X160380000Y-98150000D02*
X160380000Y-89810000D01*
X152040000Y-89810000D02*
X160380000Y-89810000D01*
%TO.C,REF\u002A\u002A*%
X192950000Y-76200000D02*
G75*
G03*
X192950000Y-76200000I-2450000J0D01*
G01*
%TO.C,P113*%
X164105000Y-101875000D02*
X172445000Y-101875000D01*
X164105000Y-101875000D02*
X164105000Y-110215000D01*
X172445000Y-110215000D02*
X164105000Y-110215000D01*
X172445000Y-110215000D02*
X172445000Y-101875000D01*
%TD*%
M02*
