%TF.GenerationSoftware,KiCad,Pcbnew,(6.0.8)*%
%TF.CreationDate,2022-10-28T14:48:27+02:00*%
%TF.ProjectId,XEM8350-BRK-MC1,58454d38-3335-4302-9d42-524b2d4d4331,rev?*%
%TF.SameCoordinates,Original*%
%TF.FileFunction,AssemblyDrawing,Top*%
%FSLAX46Y46*%
G04 Gerber Fmt 4.6, Leading zero omitted, Abs format (unit mm)*
G04 Created by KiCad (PCBNEW (6.0.8)) date 2022-10-28 14:48:27*
%MOMM*%
%LPD*%
G01*
G04 APERTURE LIST*
%ADD10C,0.098425*%
%ADD11C,0.150000*%
%ADD12C,0.127000*%
%ADD13C,0.100000*%
%ADD14C,0.200000*%
G04 APERTURE END LIST*
D10*
%TO.C,R1*%
X112179401Y-125188738D02*
X112179401Y-125376215D01*
X112366878Y-125394962D01*
X112348130Y-125376215D01*
X112329383Y-125338719D01*
X112329383Y-125244981D01*
X112348130Y-125207486D01*
X112366878Y-125188738D01*
X112404373Y-125169990D01*
X112498112Y-125169990D01*
X112535607Y-125188738D01*
X112554355Y-125207486D01*
X112573102Y-125244981D01*
X112573102Y-125338719D01*
X112554355Y-125376215D01*
X112535607Y-125394962D01*
X112179401Y-124926271D02*
X112179401Y-124888775D01*
X112198149Y-124851280D01*
X112216897Y-124832532D01*
X112254392Y-124813785D01*
X112329383Y-124795037D01*
X112423121Y-124795037D01*
X112498112Y-124813785D01*
X112535607Y-124832532D01*
X112554355Y-124851280D01*
X112573102Y-124888775D01*
X112573102Y-124926271D01*
X112554355Y-124963766D01*
X112535607Y-124982514D01*
X112498112Y-125001261D01*
X112423121Y-125020009D01*
X112329383Y-125020009D01*
X112254392Y-125001261D01*
X112216897Y-124982514D01*
X112198149Y-124963766D01*
X112179401Y-124926271D01*
D11*
%TO.C,MC1*%
X125837857Y-140532619D02*
X125742619Y-140485000D01*
X125647380Y-140389761D01*
X125504523Y-140246904D01*
X125409285Y-140199285D01*
X125314047Y-140199285D01*
X125361666Y-140437380D02*
X125266428Y-140389761D01*
X125171190Y-140294523D01*
X125123571Y-140104047D01*
X125123571Y-139770714D01*
X125171190Y-139580238D01*
X125266428Y-139485000D01*
X125361666Y-139437380D01*
X125552142Y-139437380D01*
X125647380Y-139485000D01*
X125742619Y-139580238D01*
X125790238Y-139770714D01*
X125790238Y-140104047D01*
X125742619Y-140294523D01*
X125647380Y-140389761D01*
X125552142Y-140437380D01*
X125361666Y-140437380D01*
X126075952Y-139437380D02*
X126647380Y-139437380D01*
X126361666Y-140437380D02*
X126361666Y-139437380D01*
X126980714Y-140437380D02*
X126980714Y-139437380D01*
X126980714Y-139913571D02*
X127552142Y-139913571D01*
X127552142Y-140437380D02*
X127552142Y-139437380D01*
X128028333Y-140056428D02*
X128790238Y-140056428D01*
X129456904Y-139437380D02*
X129552142Y-139437380D01*
X129647380Y-139485000D01*
X129695000Y-139532619D01*
X129742619Y-139627857D01*
X129790238Y-139818333D01*
X129790238Y-140056428D01*
X129742619Y-140246904D01*
X129695000Y-140342142D01*
X129647380Y-140389761D01*
X129552142Y-140437380D01*
X129456904Y-140437380D01*
X129361666Y-140389761D01*
X129314047Y-140342142D01*
X129266428Y-140246904D01*
X129218809Y-140056428D01*
X129218809Y-139818333D01*
X129266428Y-139627857D01*
X129314047Y-139532619D01*
X129361666Y-139485000D01*
X129456904Y-139437380D01*
X130266428Y-140437380D02*
X130456904Y-140437380D01*
X130552142Y-140389761D01*
X130599761Y-140342142D01*
X130695000Y-140199285D01*
X130742619Y-140008809D01*
X130742619Y-139627857D01*
X130695000Y-139532619D01*
X130647380Y-139485000D01*
X130552142Y-139437380D01*
X130361666Y-139437380D01*
X130266428Y-139485000D01*
X130218809Y-139532619D01*
X130171190Y-139627857D01*
X130171190Y-139865952D01*
X130218809Y-139961190D01*
X130266428Y-140008809D01*
X130361666Y-140056428D01*
X130552142Y-140056428D01*
X130647380Y-140008809D01*
X130695000Y-139961190D01*
X130742619Y-139865952D01*
X131361666Y-139437380D02*
X131456904Y-139437380D01*
X131552142Y-139485000D01*
X131599761Y-139532619D01*
X131647380Y-139627857D01*
X131695000Y-139818333D01*
X131695000Y-140056428D01*
X131647380Y-140246904D01*
X131599761Y-140342142D01*
X131552142Y-140389761D01*
X131456904Y-140437380D01*
X131361666Y-140437380D01*
X131266428Y-140389761D01*
X131218809Y-140342142D01*
X131171190Y-140246904D01*
X131123571Y-140056428D01*
X131123571Y-139818333D01*
X131171190Y-139627857D01*
X131218809Y-139532619D01*
X131266428Y-139485000D01*
X131361666Y-139437380D01*
X132123571Y-140056428D02*
X132885476Y-140056428D01*
X133552142Y-139437380D02*
X133647380Y-139437380D01*
X133742619Y-139485000D01*
X133790238Y-139532619D01*
X133837857Y-139627857D01*
X133885476Y-139818333D01*
X133885476Y-140056428D01*
X133837857Y-140246904D01*
X133790238Y-140342142D01*
X133742619Y-140389761D01*
X133647380Y-140437380D01*
X133552142Y-140437380D01*
X133456904Y-140389761D01*
X133409285Y-140342142D01*
X133361666Y-140246904D01*
X133314047Y-140056428D01*
X133314047Y-139818333D01*
X133361666Y-139627857D01*
X133409285Y-139532619D01*
X133456904Y-139485000D01*
X133552142Y-139437380D01*
X134837857Y-140437380D02*
X134266428Y-140437380D01*
X134552142Y-140437380D02*
X134552142Y-139437380D01*
X134456904Y-139580238D01*
X134361666Y-139675476D01*
X134266428Y-139723095D01*
X135266428Y-140056428D02*
X136028333Y-140056428D01*
X136837857Y-139913571D02*
X136504523Y-139913571D01*
X136504523Y-140437380D02*
X136504523Y-139437380D01*
X136980714Y-139437380D01*
X137361666Y-140056428D02*
X138123571Y-140056428D01*
X138599761Y-140437380D02*
X138599761Y-139437380D01*
X138837857Y-139437380D01*
X138980714Y-139485000D01*
X139075952Y-139580238D01*
X139123571Y-139675476D01*
X139171190Y-139865952D01*
X139171190Y-140008809D01*
X139123571Y-140199285D01*
X139075952Y-140294523D01*
X138980714Y-140389761D01*
X138837857Y-140437380D01*
X138599761Y-140437380D01*
X139599761Y-140056428D02*
X140361666Y-140056428D01*
X140790238Y-140151666D02*
X141266428Y-140151666D01*
X140695000Y-140437380D02*
X141028333Y-139437380D01*
X141361666Y-140437380D01*
%TO.C,P20*%
X90860714Y-118562380D02*
X90860714Y-117562380D01*
X91241666Y-117562380D01*
X91336904Y-117610000D01*
X91384523Y-117657619D01*
X91432142Y-117752857D01*
X91432142Y-117895714D01*
X91384523Y-117990952D01*
X91336904Y-118038571D01*
X91241666Y-118086190D01*
X90860714Y-118086190D01*
X91813095Y-117657619D02*
X91860714Y-117610000D01*
X91955952Y-117562380D01*
X92194047Y-117562380D01*
X92289285Y-117610000D01*
X92336904Y-117657619D01*
X92384523Y-117752857D01*
X92384523Y-117848095D01*
X92336904Y-117990952D01*
X91765476Y-118562380D01*
X92384523Y-118562380D01*
X93003571Y-117562380D02*
X93098809Y-117562380D01*
X93194047Y-117610000D01*
X93241666Y-117657619D01*
X93289285Y-117752857D01*
X93336904Y-117943333D01*
X93336904Y-118181428D01*
X93289285Y-118371904D01*
X93241666Y-118467142D01*
X93194047Y-118514761D01*
X93098809Y-118562380D01*
X93003571Y-118562380D01*
X92908333Y-118514761D01*
X92860714Y-118467142D01*
X92813095Y-118371904D01*
X92765476Y-118181428D01*
X92765476Y-117943333D01*
X92813095Y-117752857D01*
X92860714Y-117657619D01*
X92908333Y-117610000D01*
X93003571Y-117562380D01*
%TO.C,P25*%
X129992380Y-125674285D02*
X128992380Y-125674285D01*
X128992380Y-125293333D01*
X129040000Y-125198095D01*
X129087619Y-125150476D01*
X129182857Y-125102857D01*
X129325714Y-125102857D01*
X129420952Y-125150476D01*
X129468571Y-125198095D01*
X129516190Y-125293333D01*
X129516190Y-125674285D01*
X129087619Y-124721904D02*
X129040000Y-124674285D01*
X128992380Y-124579047D01*
X128992380Y-124340952D01*
X129040000Y-124245714D01*
X129087619Y-124198095D01*
X129182857Y-124150476D01*
X129278095Y-124150476D01*
X129420952Y-124198095D01*
X129992380Y-124769523D01*
X129992380Y-124150476D01*
X128992380Y-123245714D02*
X128992380Y-123721904D01*
X129468571Y-123769523D01*
X129420952Y-123721904D01*
X129373333Y-123626666D01*
X129373333Y-123388571D01*
X129420952Y-123293333D01*
X129468571Y-123245714D01*
X129563809Y-123198095D01*
X129801904Y-123198095D01*
X129897142Y-123245714D01*
X129944761Y-123293333D01*
X129992380Y-123388571D01*
X129992380Y-123626666D01*
X129944761Y-123721904D01*
X129897142Y-123769523D01*
%TO.C,P87*%
X142295714Y-89352380D02*
X142295714Y-88352380D01*
X142676666Y-88352380D01*
X142771904Y-88400000D01*
X142819523Y-88447619D01*
X142867142Y-88542857D01*
X142867142Y-88685714D01*
X142819523Y-88780952D01*
X142771904Y-88828571D01*
X142676666Y-88876190D01*
X142295714Y-88876190D01*
X143438571Y-88780952D02*
X143343333Y-88733333D01*
X143295714Y-88685714D01*
X143248095Y-88590476D01*
X143248095Y-88542857D01*
X143295714Y-88447619D01*
X143343333Y-88400000D01*
X143438571Y-88352380D01*
X143629047Y-88352380D01*
X143724285Y-88400000D01*
X143771904Y-88447619D01*
X143819523Y-88542857D01*
X143819523Y-88590476D01*
X143771904Y-88685714D01*
X143724285Y-88733333D01*
X143629047Y-88780952D01*
X143438571Y-88780952D01*
X143343333Y-88828571D01*
X143295714Y-88876190D01*
X143248095Y-88971428D01*
X143248095Y-89161904D01*
X143295714Y-89257142D01*
X143343333Y-89304761D01*
X143438571Y-89352380D01*
X143629047Y-89352380D01*
X143724285Y-89304761D01*
X143771904Y-89257142D01*
X143819523Y-89161904D01*
X143819523Y-88971428D01*
X143771904Y-88876190D01*
X143724285Y-88828571D01*
X143629047Y-88780952D01*
X144152857Y-88352380D02*
X144819523Y-88352380D01*
X144390952Y-89352380D01*
%TO.C,G3*%
X126500000Y-117054285D02*
X126452380Y-117149523D01*
X126452380Y-117292380D01*
X126500000Y-117435238D01*
X126595238Y-117530476D01*
X126690476Y-117578095D01*
X126880952Y-117625714D01*
X127023809Y-117625714D01*
X127214285Y-117578095D01*
X127309523Y-117530476D01*
X127404761Y-117435238D01*
X127452380Y-117292380D01*
X127452380Y-117197142D01*
X127404761Y-117054285D01*
X127357142Y-117006666D01*
X127023809Y-117006666D01*
X127023809Y-117197142D01*
X126452380Y-116673333D02*
X126452380Y-116054285D01*
X126833333Y-116387619D01*
X126833333Y-116244761D01*
X126880952Y-116149523D01*
X126928571Y-116101904D01*
X127023809Y-116054285D01*
X127261904Y-116054285D01*
X127357142Y-116101904D01*
X127404761Y-116149523D01*
X127452380Y-116244761D01*
X127452380Y-116530476D01*
X127404761Y-116625714D01*
X127357142Y-116673333D01*
%TO.C,G6*%
X142375000Y-117054285D02*
X142327380Y-117149523D01*
X142327380Y-117292380D01*
X142375000Y-117435238D01*
X142470238Y-117530476D01*
X142565476Y-117578095D01*
X142755952Y-117625714D01*
X142898809Y-117625714D01*
X143089285Y-117578095D01*
X143184523Y-117530476D01*
X143279761Y-117435238D01*
X143327380Y-117292380D01*
X143327380Y-117197142D01*
X143279761Y-117054285D01*
X143232142Y-117006666D01*
X142898809Y-117006666D01*
X142898809Y-117197142D01*
X142327380Y-116149523D02*
X142327380Y-116340000D01*
X142375000Y-116435238D01*
X142422619Y-116482857D01*
X142565476Y-116578095D01*
X142755952Y-116625714D01*
X143136904Y-116625714D01*
X143232142Y-116578095D01*
X143279761Y-116530476D01*
X143327380Y-116435238D01*
X143327380Y-116244761D01*
X143279761Y-116149523D01*
X143232142Y-116101904D01*
X143136904Y-116054285D01*
X142898809Y-116054285D01*
X142803571Y-116101904D01*
X142755952Y-116149523D01*
X142708333Y-116244761D01*
X142708333Y-116435238D01*
X142755952Y-116530476D01*
X142803571Y-116578095D01*
X142898809Y-116625714D01*
%TO.C,P97*%
X155001343Y-101417380D02*
X155001343Y-100417380D01*
X155382295Y-100417380D01*
X155477533Y-100465000D01*
X155525152Y-100512619D01*
X155572771Y-100607857D01*
X155572771Y-100750714D01*
X155525152Y-100845952D01*
X155477533Y-100893571D01*
X155382295Y-100941190D01*
X155001343Y-100941190D01*
X156048962Y-101417380D02*
X156239438Y-101417380D01*
X156334676Y-101369761D01*
X156382295Y-101322142D01*
X156477533Y-101179285D01*
X156525152Y-100988809D01*
X156525152Y-100607857D01*
X156477533Y-100512619D01*
X156429914Y-100465000D01*
X156334676Y-100417380D01*
X156144200Y-100417380D01*
X156048962Y-100465000D01*
X156001343Y-100512619D01*
X155953724Y-100607857D01*
X155953724Y-100845952D01*
X156001343Y-100941190D01*
X156048962Y-100988809D01*
X156144200Y-101036428D01*
X156334676Y-101036428D01*
X156429914Y-100988809D01*
X156477533Y-100941190D01*
X156525152Y-100845952D01*
X156858486Y-100417380D02*
X157525152Y-100417380D01*
X157096581Y-101417380D01*
%TO.C,P121*%
X159837380Y-126785476D02*
X158837380Y-126785476D01*
X158837380Y-126404523D01*
X158885000Y-126309285D01*
X158932619Y-126261666D01*
X159027857Y-126214047D01*
X159170714Y-126214047D01*
X159265952Y-126261666D01*
X159313571Y-126309285D01*
X159361190Y-126404523D01*
X159361190Y-126785476D01*
X159837380Y-125261666D02*
X159837380Y-125833095D01*
X159837380Y-125547380D02*
X158837380Y-125547380D01*
X158980238Y-125642619D01*
X159075476Y-125737857D01*
X159123095Y-125833095D01*
X158932619Y-124880714D02*
X158885000Y-124833095D01*
X158837380Y-124737857D01*
X158837380Y-124499761D01*
X158885000Y-124404523D01*
X158932619Y-124356904D01*
X159027857Y-124309285D01*
X159123095Y-124309285D01*
X159265952Y-124356904D01*
X159837380Y-124928333D01*
X159837380Y-124309285D01*
X159837380Y-123356904D02*
X159837380Y-123928333D01*
X159837380Y-123642619D02*
X158837380Y-123642619D01*
X158980238Y-123737857D01*
X159075476Y-123833095D01*
X159123095Y-123928333D01*
%TO.C,P131*%
X172537380Y-126785476D02*
X171537380Y-126785476D01*
X171537380Y-126404523D01*
X171585000Y-126309285D01*
X171632619Y-126261666D01*
X171727857Y-126214047D01*
X171870714Y-126214047D01*
X171965952Y-126261666D01*
X172013571Y-126309285D01*
X172061190Y-126404523D01*
X172061190Y-126785476D01*
X172537380Y-125261666D02*
X172537380Y-125833095D01*
X172537380Y-125547380D02*
X171537380Y-125547380D01*
X171680238Y-125642619D01*
X171775476Y-125737857D01*
X171823095Y-125833095D01*
X171537380Y-124928333D02*
X171537380Y-124309285D01*
X171918333Y-124642619D01*
X171918333Y-124499761D01*
X171965952Y-124404523D01*
X172013571Y-124356904D01*
X172108809Y-124309285D01*
X172346904Y-124309285D01*
X172442142Y-124356904D01*
X172489761Y-124404523D01*
X172537380Y-124499761D01*
X172537380Y-124785476D01*
X172489761Y-124880714D01*
X172442142Y-124928333D01*
X172537380Y-123356904D02*
X172537380Y-123928333D01*
X172537380Y-123642619D02*
X171537380Y-123642619D01*
X171680238Y-123737857D01*
X171775476Y-123833095D01*
X171823095Y-123928333D01*
%TO.C,P91*%
X143327380Y-125674285D02*
X142327380Y-125674285D01*
X142327380Y-125293333D01*
X142375000Y-125198095D01*
X142422619Y-125150476D01*
X142517857Y-125102857D01*
X142660714Y-125102857D01*
X142755952Y-125150476D01*
X142803571Y-125198095D01*
X142851190Y-125293333D01*
X142851190Y-125674285D01*
X143327380Y-124626666D02*
X143327380Y-124436190D01*
X143279761Y-124340952D01*
X143232142Y-124293333D01*
X143089285Y-124198095D01*
X142898809Y-124150476D01*
X142517857Y-124150476D01*
X142422619Y-124198095D01*
X142375000Y-124245714D01*
X142327380Y-124340952D01*
X142327380Y-124531428D01*
X142375000Y-124626666D01*
X142422619Y-124674285D01*
X142517857Y-124721904D01*
X142755952Y-124721904D01*
X142851190Y-124674285D01*
X142898809Y-124626666D01*
X142946428Y-124531428D01*
X142946428Y-124340952D01*
X142898809Y-124245714D01*
X142851190Y-124198095D01*
X142755952Y-124150476D01*
X143327380Y-123198095D02*
X143327380Y-123769523D01*
X143327380Y-123483809D02*
X142327380Y-123483809D01*
X142470238Y-123579047D01*
X142565476Y-123674285D01*
X142613095Y-123769523D01*
%TO.C,G5*%
X131580000Y-117054285D02*
X131532380Y-117149523D01*
X131532380Y-117292380D01*
X131580000Y-117435238D01*
X131675238Y-117530476D01*
X131770476Y-117578095D01*
X131960952Y-117625714D01*
X132103809Y-117625714D01*
X132294285Y-117578095D01*
X132389523Y-117530476D01*
X132484761Y-117435238D01*
X132532380Y-117292380D01*
X132532380Y-117197142D01*
X132484761Y-117054285D01*
X132437142Y-117006666D01*
X132103809Y-117006666D01*
X132103809Y-117197142D01*
X131532380Y-116101904D02*
X131532380Y-116578095D01*
X132008571Y-116625714D01*
X131960952Y-116578095D01*
X131913333Y-116482857D01*
X131913333Y-116244761D01*
X131960952Y-116149523D01*
X132008571Y-116101904D01*
X132103809Y-116054285D01*
X132341904Y-116054285D01*
X132437142Y-116101904D01*
X132484761Y-116149523D01*
X132532380Y-116244761D01*
X132532380Y-116482857D01*
X132484761Y-116578095D01*
X132437142Y-116625714D01*
%TO.C,P41*%
X129575398Y-89352380D02*
X129575398Y-88352380D01*
X129956350Y-88352380D01*
X130051588Y-88400000D01*
X130099207Y-88447619D01*
X130146826Y-88542857D01*
X130146826Y-88685714D01*
X130099207Y-88780952D01*
X130051588Y-88828571D01*
X129956350Y-88876190D01*
X129575398Y-88876190D01*
X131003969Y-88685714D02*
X131003969Y-89352380D01*
X130765874Y-88304761D02*
X130527779Y-89019047D01*
X131146826Y-89019047D01*
X132051588Y-89352380D02*
X131480160Y-89352380D01*
X131765874Y-89352380D02*
X131765874Y-88352380D01*
X131670636Y-88495238D01*
X131575398Y-88590476D01*
X131480160Y-88638095D01*
%TO.C,G10*%
X158885000Y-117530476D02*
X158837380Y-117625714D01*
X158837380Y-117768571D01*
X158885000Y-117911428D01*
X158980238Y-118006666D01*
X159075476Y-118054285D01*
X159265952Y-118101904D01*
X159408809Y-118101904D01*
X159599285Y-118054285D01*
X159694523Y-118006666D01*
X159789761Y-117911428D01*
X159837380Y-117768571D01*
X159837380Y-117673333D01*
X159789761Y-117530476D01*
X159742142Y-117482857D01*
X159408809Y-117482857D01*
X159408809Y-117673333D01*
X159837380Y-116530476D02*
X159837380Y-117101904D01*
X159837380Y-116816190D02*
X158837380Y-116816190D01*
X158980238Y-116911428D01*
X159075476Y-117006666D01*
X159123095Y-117101904D01*
X158837380Y-115911428D02*
X158837380Y-115816190D01*
X158885000Y-115720952D01*
X158932619Y-115673333D01*
X159027857Y-115625714D01*
X159218333Y-115578095D01*
X159456428Y-115578095D01*
X159646904Y-115625714D01*
X159742142Y-115673333D01*
X159789761Y-115720952D01*
X159837380Y-115816190D01*
X159837380Y-115911428D01*
X159789761Y-116006666D01*
X159742142Y-116054285D01*
X159646904Y-116101904D01*
X159456428Y-116149523D01*
X159218333Y-116149523D01*
X159027857Y-116101904D01*
X158932619Y-116054285D01*
X158885000Y-116006666D01*
X158837380Y-115911428D01*
%TO.C,P17*%
X112450714Y-113482380D02*
X112450714Y-112482380D01*
X112831666Y-112482380D01*
X112926904Y-112530000D01*
X112974523Y-112577619D01*
X113022142Y-112672857D01*
X113022142Y-112815714D01*
X112974523Y-112910952D01*
X112926904Y-112958571D01*
X112831666Y-113006190D01*
X112450714Y-113006190D01*
X113974523Y-113482380D02*
X113403095Y-113482380D01*
X113688809Y-113482380D02*
X113688809Y-112482380D01*
X113593571Y-112625238D01*
X113498333Y-112720476D01*
X113403095Y-112768095D01*
X114307857Y-112482380D02*
X114974523Y-112482380D01*
X114545952Y-113482380D01*
%TO.C,P33*%
X117461964Y-101417380D02*
X117461964Y-100417380D01*
X117842916Y-100417380D01*
X117938154Y-100465000D01*
X117985773Y-100512619D01*
X118033392Y-100607857D01*
X118033392Y-100750714D01*
X117985773Y-100845952D01*
X117938154Y-100893571D01*
X117842916Y-100941190D01*
X117461964Y-100941190D01*
X118366726Y-100417380D02*
X118985773Y-100417380D01*
X118652440Y-100798333D01*
X118795297Y-100798333D01*
X118890535Y-100845952D01*
X118938154Y-100893571D01*
X118985773Y-100988809D01*
X118985773Y-101226904D01*
X118938154Y-101322142D01*
X118890535Y-101369761D01*
X118795297Y-101417380D01*
X118509583Y-101417380D01*
X118414345Y-101369761D01*
X118366726Y-101322142D01*
X119319107Y-100417380D02*
X119938154Y-100417380D01*
X119604821Y-100798333D01*
X119747678Y-100798333D01*
X119842916Y-100845952D01*
X119890535Y-100893571D01*
X119938154Y-100988809D01*
X119938154Y-101226904D01*
X119890535Y-101322142D01*
X119842916Y-101369761D01*
X119747678Y-101417380D01*
X119461964Y-101417380D01*
X119366726Y-101369761D01*
X119319107Y-101322142D01*
%TO.C,P123*%
X162377380Y-126785476D02*
X161377380Y-126785476D01*
X161377380Y-126404523D01*
X161425000Y-126309285D01*
X161472619Y-126261666D01*
X161567857Y-126214047D01*
X161710714Y-126214047D01*
X161805952Y-126261666D01*
X161853571Y-126309285D01*
X161901190Y-126404523D01*
X161901190Y-126785476D01*
X162377380Y-125261666D02*
X162377380Y-125833095D01*
X162377380Y-125547380D02*
X161377380Y-125547380D01*
X161520238Y-125642619D01*
X161615476Y-125737857D01*
X161663095Y-125833095D01*
X161472619Y-124880714D02*
X161425000Y-124833095D01*
X161377380Y-124737857D01*
X161377380Y-124499761D01*
X161425000Y-124404523D01*
X161472619Y-124356904D01*
X161567857Y-124309285D01*
X161663095Y-124309285D01*
X161805952Y-124356904D01*
X162377380Y-124928333D01*
X162377380Y-124309285D01*
X161377380Y-123975952D02*
X161377380Y-123356904D01*
X161758333Y-123690238D01*
X161758333Y-123547380D01*
X161805952Y-123452142D01*
X161853571Y-123404523D01*
X161948809Y-123356904D01*
X162186904Y-123356904D01*
X162282142Y-123404523D01*
X162329761Y-123452142D01*
X162377380Y-123547380D01*
X162377380Y-123833095D01*
X162329761Y-123928333D01*
X162282142Y-123975952D01*
%TO.C,P89*%
X142295714Y-101417380D02*
X142295714Y-100417380D01*
X142676666Y-100417380D01*
X142771904Y-100465000D01*
X142819523Y-100512619D01*
X142867142Y-100607857D01*
X142867142Y-100750714D01*
X142819523Y-100845952D01*
X142771904Y-100893571D01*
X142676666Y-100941190D01*
X142295714Y-100941190D01*
X143438571Y-100845952D02*
X143343333Y-100798333D01*
X143295714Y-100750714D01*
X143248095Y-100655476D01*
X143248095Y-100607857D01*
X143295714Y-100512619D01*
X143343333Y-100465000D01*
X143438571Y-100417380D01*
X143629047Y-100417380D01*
X143724285Y-100465000D01*
X143771904Y-100512619D01*
X143819523Y-100607857D01*
X143819523Y-100655476D01*
X143771904Y-100750714D01*
X143724285Y-100798333D01*
X143629047Y-100845952D01*
X143438571Y-100845952D01*
X143343333Y-100893571D01*
X143295714Y-100941190D01*
X143248095Y-101036428D01*
X143248095Y-101226904D01*
X143295714Y-101322142D01*
X143343333Y-101369761D01*
X143438571Y-101417380D01*
X143629047Y-101417380D01*
X143724285Y-101369761D01*
X143771904Y-101322142D01*
X143819523Y-101226904D01*
X143819523Y-101036428D01*
X143771904Y-100941190D01*
X143724285Y-100893571D01*
X143629047Y-100845952D01*
X144295714Y-101417380D02*
X144486190Y-101417380D01*
X144581428Y-101369761D01*
X144629047Y-101322142D01*
X144724285Y-101179285D01*
X144771904Y-100988809D01*
X144771904Y-100607857D01*
X144724285Y-100512619D01*
X144676666Y-100465000D01*
X144581428Y-100417380D01*
X144390952Y-100417380D01*
X144295714Y-100465000D01*
X144248095Y-100512619D01*
X144200476Y-100607857D01*
X144200476Y-100845952D01*
X144248095Y-100941190D01*
X144295714Y-100988809D01*
X144390952Y-101036428D01*
X144581428Y-101036428D01*
X144676666Y-100988809D01*
X144724285Y-100941190D01*
X144771904Y-100845952D01*
%TO.C,G12*%
X163965000Y-117530476D02*
X163917380Y-117625714D01*
X163917380Y-117768571D01*
X163965000Y-117911428D01*
X164060238Y-118006666D01*
X164155476Y-118054285D01*
X164345952Y-118101904D01*
X164488809Y-118101904D01*
X164679285Y-118054285D01*
X164774523Y-118006666D01*
X164869761Y-117911428D01*
X164917380Y-117768571D01*
X164917380Y-117673333D01*
X164869761Y-117530476D01*
X164822142Y-117482857D01*
X164488809Y-117482857D01*
X164488809Y-117673333D01*
X164917380Y-116530476D02*
X164917380Y-117101904D01*
X164917380Y-116816190D02*
X163917380Y-116816190D01*
X164060238Y-116911428D01*
X164155476Y-117006666D01*
X164203095Y-117101904D01*
X164012619Y-116149523D02*
X163965000Y-116101904D01*
X163917380Y-116006666D01*
X163917380Y-115768571D01*
X163965000Y-115673333D01*
X164012619Y-115625714D01*
X164107857Y-115578095D01*
X164203095Y-115578095D01*
X164345952Y-115625714D01*
X164917380Y-116197142D01*
X164917380Y-115578095D01*
%TO.C,G8*%
X151265000Y-117054285D02*
X151217380Y-117149523D01*
X151217380Y-117292380D01*
X151265000Y-117435238D01*
X151360238Y-117530476D01*
X151455476Y-117578095D01*
X151645952Y-117625714D01*
X151788809Y-117625714D01*
X151979285Y-117578095D01*
X152074523Y-117530476D01*
X152169761Y-117435238D01*
X152217380Y-117292380D01*
X152217380Y-117197142D01*
X152169761Y-117054285D01*
X152122142Y-117006666D01*
X151788809Y-117006666D01*
X151788809Y-117197142D01*
X151645952Y-116435238D02*
X151598333Y-116530476D01*
X151550714Y-116578095D01*
X151455476Y-116625714D01*
X151407857Y-116625714D01*
X151312619Y-116578095D01*
X151265000Y-116530476D01*
X151217380Y-116435238D01*
X151217380Y-116244761D01*
X151265000Y-116149523D01*
X151312619Y-116101904D01*
X151407857Y-116054285D01*
X151455476Y-116054285D01*
X151550714Y-116101904D01*
X151598333Y-116149523D01*
X151645952Y-116244761D01*
X151645952Y-116435238D01*
X151693571Y-116530476D01*
X151741190Y-116578095D01*
X151836428Y-116625714D01*
X152026904Y-116625714D01*
X152122142Y-116578095D01*
X152169761Y-116530476D01*
X152217380Y-116435238D01*
X152217380Y-116244761D01*
X152169761Y-116149523D01*
X152122142Y-116101904D01*
X152026904Y-116054285D01*
X151836428Y-116054285D01*
X151741190Y-116101904D01*
X151693571Y-116149523D01*
X151645952Y-116244761D01*
%TO.C,G9*%
X153805000Y-117054285D02*
X153757380Y-117149523D01*
X153757380Y-117292380D01*
X153805000Y-117435238D01*
X153900238Y-117530476D01*
X153995476Y-117578095D01*
X154185952Y-117625714D01*
X154328809Y-117625714D01*
X154519285Y-117578095D01*
X154614523Y-117530476D01*
X154709761Y-117435238D01*
X154757380Y-117292380D01*
X154757380Y-117197142D01*
X154709761Y-117054285D01*
X154662142Y-117006666D01*
X154328809Y-117006666D01*
X154328809Y-117197142D01*
X154757380Y-116530476D02*
X154757380Y-116340000D01*
X154709761Y-116244761D01*
X154662142Y-116197142D01*
X154519285Y-116101904D01*
X154328809Y-116054285D01*
X153947857Y-116054285D01*
X153852619Y-116101904D01*
X153805000Y-116149523D01*
X153757380Y-116244761D01*
X153757380Y-116435238D01*
X153805000Y-116530476D01*
X153852619Y-116578095D01*
X153947857Y-116625714D01*
X154185952Y-116625714D01*
X154281190Y-116578095D01*
X154328809Y-116530476D01*
X154376428Y-116435238D01*
X154376428Y-116244761D01*
X154328809Y-116149523D01*
X154281190Y-116101904D01*
X154185952Y-116054285D01*
%TO.C,P111*%
X166584523Y-89352380D02*
X166584523Y-88352380D01*
X166965476Y-88352380D01*
X167060714Y-88400000D01*
X167108333Y-88447619D01*
X167155952Y-88542857D01*
X167155952Y-88685714D01*
X167108333Y-88780952D01*
X167060714Y-88828571D01*
X166965476Y-88876190D01*
X166584523Y-88876190D01*
X168108333Y-89352380D02*
X167536904Y-89352380D01*
X167822619Y-89352380D02*
X167822619Y-88352380D01*
X167727380Y-88495238D01*
X167632142Y-88590476D01*
X167536904Y-88638095D01*
X169060714Y-89352380D02*
X168489285Y-89352380D01*
X168775000Y-89352380D02*
X168775000Y-88352380D01*
X168679761Y-88495238D01*
X168584523Y-88590476D01*
X168489285Y-88638095D01*
X170013095Y-89352380D02*
X169441666Y-89352380D01*
X169727380Y-89352380D02*
X169727380Y-88352380D01*
X169632142Y-88495238D01*
X169536904Y-88590476D01*
X169441666Y-88638095D01*
%TO.C,G15*%
X171585000Y-117530476D02*
X171537380Y-117625714D01*
X171537380Y-117768571D01*
X171585000Y-117911428D01*
X171680238Y-118006666D01*
X171775476Y-118054285D01*
X171965952Y-118101904D01*
X172108809Y-118101904D01*
X172299285Y-118054285D01*
X172394523Y-118006666D01*
X172489761Y-117911428D01*
X172537380Y-117768571D01*
X172537380Y-117673333D01*
X172489761Y-117530476D01*
X172442142Y-117482857D01*
X172108809Y-117482857D01*
X172108809Y-117673333D01*
X172537380Y-116530476D02*
X172537380Y-117101904D01*
X172537380Y-116816190D02*
X171537380Y-116816190D01*
X171680238Y-116911428D01*
X171775476Y-117006666D01*
X171823095Y-117101904D01*
X171537380Y-115625714D02*
X171537380Y-116101904D01*
X172013571Y-116149523D01*
X171965952Y-116101904D01*
X171918333Y-116006666D01*
X171918333Y-115768571D01*
X171965952Y-115673333D01*
X172013571Y-115625714D01*
X172108809Y-115578095D01*
X172346904Y-115578095D01*
X172442142Y-115625714D01*
X172489761Y-115673333D01*
X172537380Y-115768571D01*
X172537380Y-116006666D01*
X172489761Y-116101904D01*
X172442142Y-116149523D01*
%TO.C,G17*%
X176665000Y-117530476D02*
X176617380Y-117625714D01*
X176617380Y-117768571D01*
X176665000Y-117911428D01*
X176760238Y-118006666D01*
X176855476Y-118054285D01*
X177045952Y-118101904D01*
X177188809Y-118101904D01*
X177379285Y-118054285D01*
X177474523Y-118006666D01*
X177569761Y-117911428D01*
X177617380Y-117768571D01*
X177617380Y-117673333D01*
X177569761Y-117530476D01*
X177522142Y-117482857D01*
X177188809Y-117482857D01*
X177188809Y-117673333D01*
X177617380Y-116530476D02*
X177617380Y-117101904D01*
X177617380Y-116816190D02*
X176617380Y-116816190D01*
X176760238Y-116911428D01*
X176855476Y-117006666D01*
X176903095Y-117101904D01*
X176617380Y-116197142D02*
X176617380Y-115530476D01*
X177617380Y-115959047D01*
%TO.C,P135*%
X177617380Y-126785476D02*
X176617380Y-126785476D01*
X176617380Y-126404523D01*
X176665000Y-126309285D01*
X176712619Y-126261666D01*
X176807857Y-126214047D01*
X176950714Y-126214047D01*
X177045952Y-126261666D01*
X177093571Y-126309285D01*
X177141190Y-126404523D01*
X177141190Y-126785476D01*
X177617380Y-125261666D02*
X177617380Y-125833095D01*
X177617380Y-125547380D02*
X176617380Y-125547380D01*
X176760238Y-125642619D01*
X176855476Y-125737857D01*
X176903095Y-125833095D01*
X176617380Y-124928333D02*
X176617380Y-124309285D01*
X176998333Y-124642619D01*
X176998333Y-124499761D01*
X177045952Y-124404523D01*
X177093571Y-124356904D01*
X177188809Y-124309285D01*
X177426904Y-124309285D01*
X177522142Y-124356904D01*
X177569761Y-124404523D01*
X177617380Y-124499761D01*
X177617380Y-124785476D01*
X177569761Y-124880714D01*
X177522142Y-124928333D01*
X176617380Y-123404523D02*
X176617380Y-123880714D01*
X177093571Y-123928333D01*
X177045952Y-123880714D01*
X176998333Y-123785476D01*
X176998333Y-123547380D01*
X177045952Y-123452142D01*
X177093571Y-123404523D01*
X177188809Y-123356904D01*
X177426904Y-123356904D01*
X177522142Y-123404523D01*
X177569761Y-123452142D01*
X177617380Y-123547380D01*
X177617380Y-123785476D01*
X177569761Y-123880714D01*
X177522142Y-123928333D01*
%TO.C,P133*%
X175077380Y-126785476D02*
X174077380Y-126785476D01*
X174077380Y-126404523D01*
X174125000Y-126309285D01*
X174172619Y-126261666D01*
X174267857Y-126214047D01*
X174410714Y-126214047D01*
X174505952Y-126261666D01*
X174553571Y-126309285D01*
X174601190Y-126404523D01*
X174601190Y-126785476D01*
X175077380Y-125261666D02*
X175077380Y-125833095D01*
X175077380Y-125547380D02*
X174077380Y-125547380D01*
X174220238Y-125642619D01*
X174315476Y-125737857D01*
X174363095Y-125833095D01*
X174077380Y-124928333D02*
X174077380Y-124309285D01*
X174458333Y-124642619D01*
X174458333Y-124499761D01*
X174505952Y-124404523D01*
X174553571Y-124356904D01*
X174648809Y-124309285D01*
X174886904Y-124309285D01*
X174982142Y-124356904D01*
X175029761Y-124404523D01*
X175077380Y-124499761D01*
X175077380Y-124785476D01*
X175029761Y-124880714D01*
X174982142Y-124928333D01*
X174077380Y-123975952D02*
X174077380Y-123356904D01*
X174458333Y-123690238D01*
X174458333Y-123547380D01*
X174505952Y-123452142D01*
X174553571Y-123404523D01*
X174648809Y-123356904D01*
X174886904Y-123356904D01*
X174982142Y-123404523D01*
X175029761Y-123452142D01*
X175077380Y-123547380D01*
X175077380Y-123833095D01*
X175029761Y-123928333D01*
X174982142Y-123975952D01*
%TO.C,G16*%
X174125000Y-117530476D02*
X174077380Y-117625714D01*
X174077380Y-117768571D01*
X174125000Y-117911428D01*
X174220238Y-118006666D01*
X174315476Y-118054285D01*
X174505952Y-118101904D01*
X174648809Y-118101904D01*
X174839285Y-118054285D01*
X174934523Y-118006666D01*
X175029761Y-117911428D01*
X175077380Y-117768571D01*
X175077380Y-117673333D01*
X175029761Y-117530476D01*
X174982142Y-117482857D01*
X174648809Y-117482857D01*
X174648809Y-117673333D01*
X175077380Y-116530476D02*
X175077380Y-117101904D01*
X175077380Y-116816190D02*
X174077380Y-116816190D01*
X174220238Y-116911428D01*
X174315476Y-117006666D01*
X174363095Y-117101904D01*
X174077380Y-115673333D02*
X174077380Y-115863809D01*
X174125000Y-115959047D01*
X174172619Y-116006666D01*
X174315476Y-116101904D01*
X174505952Y-116149523D01*
X174886904Y-116149523D01*
X174982142Y-116101904D01*
X175029761Y-116054285D01*
X175077380Y-115959047D01*
X175077380Y-115768571D01*
X175029761Y-115673333D01*
X174982142Y-115625714D01*
X174886904Y-115578095D01*
X174648809Y-115578095D01*
X174553571Y-115625714D01*
X174505952Y-115673333D01*
X174458333Y-115768571D01*
X174458333Y-115959047D01*
X174505952Y-116054285D01*
X174553571Y-116101904D01*
X174648809Y-116149523D01*
%TO.C,P43*%
X129575398Y-77287380D02*
X129575398Y-76287380D01*
X129956350Y-76287380D01*
X130051588Y-76335000D01*
X130099207Y-76382619D01*
X130146826Y-76477857D01*
X130146826Y-76620714D01*
X130099207Y-76715952D01*
X130051588Y-76763571D01*
X129956350Y-76811190D01*
X129575398Y-76811190D01*
X131003969Y-76620714D02*
X131003969Y-77287380D01*
X130765874Y-76239761D02*
X130527779Y-76954047D01*
X131146826Y-76954047D01*
X131432541Y-76287380D02*
X132051588Y-76287380D01*
X131718255Y-76668333D01*
X131861112Y-76668333D01*
X131956350Y-76715952D01*
X132003969Y-76763571D01*
X132051588Y-76858809D01*
X132051588Y-77096904D01*
X132003969Y-77192142D01*
X131956350Y-77239761D01*
X131861112Y-77287380D01*
X131575398Y-77287380D01*
X131480160Y-77239761D01*
X131432541Y-77192142D01*
%TO.C,P129*%
X169997380Y-126785476D02*
X168997380Y-126785476D01*
X168997380Y-126404523D01*
X169045000Y-126309285D01*
X169092619Y-126261666D01*
X169187857Y-126214047D01*
X169330714Y-126214047D01*
X169425952Y-126261666D01*
X169473571Y-126309285D01*
X169521190Y-126404523D01*
X169521190Y-126785476D01*
X169997380Y-125261666D02*
X169997380Y-125833095D01*
X169997380Y-125547380D02*
X168997380Y-125547380D01*
X169140238Y-125642619D01*
X169235476Y-125737857D01*
X169283095Y-125833095D01*
X169092619Y-124880714D02*
X169045000Y-124833095D01*
X168997380Y-124737857D01*
X168997380Y-124499761D01*
X169045000Y-124404523D01*
X169092619Y-124356904D01*
X169187857Y-124309285D01*
X169283095Y-124309285D01*
X169425952Y-124356904D01*
X169997380Y-124928333D01*
X169997380Y-124309285D01*
X169997380Y-123833095D02*
X169997380Y-123642619D01*
X169949761Y-123547380D01*
X169902142Y-123499761D01*
X169759285Y-123404523D01*
X169568809Y-123356904D01*
X169187857Y-123356904D01*
X169092619Y-123404523D01*
X169045000Y-123452142D01*
X168997380Y-123547380D01*
X168997380Y-123737857D01*
X169045000Y-123833095D01*
X169092619Y-123880714D01*
X169187857Y-123928333D01*
X169425952Y-123928333D01*
X169521190Y-123880714D01*
X169568809Y-123833095D01*
X169616428Y-123737857D01*
X169616428Y-123547380D01*
X169568809Y-123452142D01*
X169521190Y-123404523D01*
X169425952Y-123356904D01*
%TO.C,P21*%
X124912380Y-125674285D02*
X123912380Y-125674285D01*
X123912380Y-125293333D01*
X123960000Y-125198095D01*
X124007619Y-125150476D01*
X124102857Y-125102857D01*
X124245714Y-125102857D01*
X124340952Y-125150476D01*
X124388571Y-125198095D01*
X124436190Y-125293333D01*
X124436190Y-125674285D01*
X124007619Y-124721904D02*
X123960000Y-124674285D01*
X123912380Y-124579047D01*
X123912380Y-124340952D01*
X123960000Y-124245714D01*
X124007619Y-124198095D01*
X124102857Y-124150476D01*
X124198095Y-124150476D01*
X124340952Y-124198095D01*
X124912380Y-124769523D01*
X124912380Y-124150476D01*
X124912380Y-123198095D02*
X124912380Y-123769523D01*
X124912380Y-123483809D02*
X123912380Y-123483809D01*
X124055238Y-123579047D01*
X124150476Y-123674285D01*
X124198095Y-123769523D01*
%TO.C,G7*%
X144915000Y-117054285D02*
X144867380Y-117149523D01*
X144867380Y-117292380D01*
X144915000Y-117435238D01*
X145010238Y-117530476D01*
X145105476Y-117578095D01*
X145295952Y-117625714D01*
X145438809Y-117625714D01*
X145629285Y-117578095D01*
X145724523Y-117530476D01*
X145819761Y-117435238D01*
X145867380Y-117292380D01*
X145867380Y-117197142D01*
X145819761Y-117054285D01*
X145772142Y-117006666D01*
X145438809Y-117006666D01*
X145438809Y-117197142D01*
X144867380Y-116673333D02*
X144867380Y-116006666D01*
X145867380Y-116435238D01*
%TO.C,G14*%
X169045000Y-117530476D02*
X168997380Y-117625714D01*
X168997380Y-117768571D01*
X169045000Y-117911428D01*
X169140238Y-118006666D01*
X169235476Y-118054285D01*
X169425952Y-118101904D01*
X169568809Y-118101904D01*
X169759285Y-118054285D01*
X169854523Y-118006666D01*
X169949761Y-117911428D01*
X169997380Y-117768571D01*
X169997380Y-117673333D01*
X169949761Y-117530476D01*
X169902142Y-117482857D01*
X169568809Y-117482857D01*
X169568809Y-117673333D01*
X169997380Y-116530476D02*
X169997380Y-117101904D01*
X169997380Y-116816190D02*
X168997380Y-116816190D01*
X169140238Y-116911428D01*
X169235476Y-117006666D01*
X169283095Y-117101904D01*
X169330714Y-115673333D02*
X169997380Y-115673333D01*
X168949761Y-115911428D02*
X169664047Y-116149523D01*
X169664047Y-115530476D01*
%TO.C,P18*%
X102925714Y-113482380D02*
X102925714Y-112482380D01*
X103306666Y-112482380D01*
X103401904Y-112530000D01*
X103449523Y-112577619D01*
X103497142Y-112672857D01*
X103497142Y-112815714D01*
X103449523Y-112910952D01*
X103401904Y-112958571D01*
X103306666Y-113006190D01*
X102925714Y-113006190D01*
X104449523Y-113482380D02*
X103878095Y-113482380D01*
X104163809Y-113482380D02*
X104163809Y-112482380D01*
X104068571Y-112625238D01*
X103973333Y-112720476D01*
X103878095Y-112768095D01*
X105020952Y-112910952D02*
X104925714Y-112863333D01*
X104878095Y-112815714D01*
X104830476Y-112720476D01*
X104830476Y-112672857D01*
X104878095Y-112577619D01*
X104925714Y-112530000D01*
X105020952Y-112482380D01*
X105211428Y-112482380D01*
X105306666Y-112530000D01*
X105354285Y-112577619D01*
X105401904Y-112672857D01*
X105401904Y-112720476D01*
X105354285Y-112815714D01*
X105306666Y-112863333D01*
X105211428Y-112910952D01*
X105020952Y-112910952D01*
X104925714Y-112958571D01*
X104878095Y-113006190D01*
X104830476Y-113101428D01*
X104830476Y-113291904D01*
X104878095Y-113387142D01*
X104925714Y-113434761D01*
X105020952Y-113482380D01*
X105211428Y-113482380D01*
X105306666Y-113434761D01*
X105354285Y-113387142D01*
X105401904Y-113291904D01*
X105401904Y-113101428D01*
X105354285Y-113006190D01*
X105306666Y-112958571D01*
X105211428Y-112910952D01*
%TO.C,P35*%
X129595714Y-101417380D02*
X129595714Y-100417380D01*
X129976666Y-100417380D01*
X130071904Y-100465000D01*
X130119523Y-100512619D01*
X130167142Y-100607857D01*
X130167142Y-100750714D01*
X130119523Y-100845952D01*
X130071904Y-100893571D01*
X129976666Y-100941190D01*
X129595714Y-100941190D01*
X130500476Y-100417380D02*
X131119523Y-100417380D01*
X130786190Y-100798333D01*
X130929047Y-100798333D01*
X131024285Y-100845952D01*
X131071904Y-100893571D01*
X131119523Y-100988809D01*
X131119523Y-101226904D01*
X131071904Y-101322142D01*
X131024285Y-101369761D01*
X130929047Y-101417380D01*
X130643333Y-101417380D01*
X130548095Y-101369761D01*
X130500476Y-101322142D01*
X132024285Y-100417380D02*
X131548095Y-100417380D01*
X131500476Y-100893571D01*
X131548095Y-100845952D01*
X131643333Y-100798333D01*
X131881428Y-100798333D01*
X131976666Y-100845952D01*
X132024285Y-100893571D01*
X132071904Y-100988809D01*
X132071904Y-101226904D01*
X132024285Y-101322142D01*
X131976666Y-101369761D01*
X131881428Y-101417380D01*
X131643333Y-101417380D01*
X131548095Y-101369761D01*
X131500476Y-101322142D01*
%TO.C,G2*%
X123960000Y-117054285D02*
X123912380Y-117149523D01*
X123912380Y-117292380D01*
X123960000Y-117435238D01*
X124055238Y-117530476D01*
X124150476Y-117578095D01*
X124340952Y-117625714D01*
X124483809Y-117625714D01*
X124674285Y-117578095D01*
X124769523Y-117530476D01*
X124864761Y-117435238D01*
X124912380Y-117292380D01*
X124912380Y-117197142D01*
X124864761Y-117054285D01*
X124817142Y-117006666D01*
X124483809Y-117006666D01*
X124483809Y-117197142D01*
X124007619Y-116625714D02*
X123960000Y-116578095D01*
X123912380Y-116482857D01*
X123912380Y-116244761D01*
X123960000Y-116149523D01*
X124007619Y-116101904D01*
X124102857Y-116054285D01*
X124198095Y-116054285D01*
X124340952Y-116101904D01*
X124912380Y-116673333D01*
X124912380Y-116054285D01*
%TO.C,P125*%
X164917380Y-126785476D02*
X163917380Y-126785476D01*
X163917380Y-126404523D01*
X163965000Y-126309285D01*
X164012619Y-126261666D01*
X164107857Y-126214047D01*
X164250714Y-126214047D01*
X164345952Y-126261666D01*
X164393571Y-126309285D01*
X164441190Y-126404523D01*
X164441190Y-126785476D01*
X164917380Y-125261666D02*
X164917380Y-125833095D01*
X164917380Y-125547380D02*
X163917380Y-125547380D01*
X164060238Y-125642619D01*
X164155476Y-125737857D01*
X164203095Y-125833095D01*
X164012619Y-124880714D02*
X163965000Y-124833095D01*
X163917380Y-124737857D01*
X163917380Y-124499761D01*
X163965000Y-124404523D01*
X164012619Y-124356904D01*
X164107857Y-124309285D01*
X164203095Y-124309285D01*
X164345952Y-124356904D01*
X164917380Y-124928333D01*
X164917380Y-124309285D01*
X163917380Y-123404523D02*
X163917380Y-123880714D01*
X164393571Y-123928333D01*
X164345952Y-123880714D01*
X164298333Y-123785476D01*
X164298333Y-123547380D01*
X164345952Y-123452142D01*
X164393571Y-123404523D01*
X164488809Y-123356904D01*
X164726904Y-123356904D01*
X164822142Y-123404523D01*
X164869761Y-123452142D01*
X164917380Y-123547380D01*
X164917380Y-123785476D01*
X164869761Y-123880714D01*
X164822142Y-123928333D01*
%TO.C,P95*%
X154995714Y-89352380D02*
X154995714Y-88352380D01*
X155376666Y-88352380D01*
X155471904Y-88400000D01*
X155519523Y-88447619D01*
X155567142Y-88542857D01*
X155567142Y-88685714D01*
X155519523Y-88780952D01*
X155471904Y-88828571D01*
X155376666Y-88876190D01*
X154995714Y-88876190D01*
X156043333Y-89352380D02*
X156233809Y-89352380D01*
X156329047Y-89304761D01*
X156376666Y-89257142D01*
X156471904Y-89114285D01*
X156519523Y-88923809D01*
X156519523Y-88542857D01*
X156471904Y-88447619D01*
X156424285Y-88400000D01*
X156329047Y-88352380D01*
X156138571Y-88352380D01*
X156043333Y-88400000D01*
X155995714Y-88447619D01*
X155948095Y-88542857D01*
X155948095Y-88780952D01*
X155995714Y-88876190D01*
X156043333Y-88923809D01*
X156138571Y-88971428D01*
X156329047Y-88971428D01*
X156424285Y-88923809D01*
X156471904Y-88876190D01*
X156519523Y-88780952D01*
X157424285Y-88352380D02*
X156948095Y-88352380D01*
X156900476Y-88828571D01*
X156948095Y-88780952D01*
X157043333Y-88733333D01*
X157281428Y-88733333D01*
X157376666Y-88780952D01*
X157424285Y-88828571D01*
X157471904Y-88923809D01*
X157471904Y-89161904D01*
X157424285Y-89257142D01*
X157376666Y-89304761D01*
X157281428Y-89352380D01*
X157043333Y-89352380D01*
X156948095Y-89304761D01*
X156900476Y-89257142D01*
%TO.C,G4*%
X129040000Y-117054285D02*
X128992380Y-117149523D01*
X128992380Y-117292380D01*
X129040000Y-117435238D01*
X129135238Y-117530476D01*
X129230476Y-117578095D01*
X129420952Y-117625714D01*
X129563809Y-117625714D01*
X129754285Y-117578095D01*
X129849523Y-117530476D01*
X129944761Y-117435238D01*
X129992380Y-117292380D01*
X129992380Y-117197142D01*
X129944761Y-117054285D01*
X129897142Y-117006666D01*
X129563809Y-117006666D01*
X129563809Y-117197142D01*
X129325714Y-116149523D02*
X129992380Y-116149523D01*
X128944761Y-116387619D02*
X129659047Y-116625714D01*
X129659047Y-116006666D01*
%TO.C,P93*%
X145867380Y-125674285D02*
X144867380Y-125674285D01*
X144867380Y-125293333D01*
X144915000Y-125198095D01*
X144962619Y-125150476D01*
X145057857Y-125102857D01*
X145200714Y-125102857D01*
X145295952Y-125150476D01*
X145343571Y-125198095D01*
X145391190Y-125293333D01*
X145391190Y-125674285D01*
X145867380Y-124626666D02*
X145867380Y-124436190D01*
X145819761Y-124340952D01*
X145772142Y-124293333D01*
X145629285Y-124198095D01*
X145438809Y-124150476D01*
X145057857Y-124150476D01*
X144962619Y-124198095D01*
X144915000Y-124245714D01*
X144867380Y-124340952D01*
X144867380Y-124531428D01*
X144915000Y-124626666D01*
X144962619Y-124674285D01*
X145057857Y-124721904D01*
X145295952Y-124721904D01*
X145391190Y-124674285D01*
X145438809Y-124626666D01*
X145486428Y-124531428D01*
X145486428Y-124340952D01*
X145438809Y-124245714D01*
X145391190Y-124198095D01*
X145295952Y-124150476D01*
X144867380Y-123817142D02*
X144867380Y-123198095D01*
X145248333Y-123531428D01*
X145248333Y-123388571D01*
X145295952Y-123293333D01*
X145343571Y-123245714D01*
X145438809Y-123198095D01*
X145676904Y-123198095D01*
X145772142Y-123245714D01*
X145819761Y-123293333D01*
X145867380Y-123388571D01*
X145867380Y-123674285D01*
X145819761Y-123769523D01*
X145772142Y-123817142D01*
%TO.C,P127*%
X167457380Y-126785476D02*
X166457380Y-126785476D01*
X166457380Y-126404523D01*
X166505000Y-126309285D01*
X166552619Y-126261666D01*
X166647857Y-126214047D01*
X166790714Y-126214047D01*
X166885952Y-126261666D01*
X166933571Y-126309285D01*
X166981190Y-126404523D01*
X166981190Y-126785476D01*
X167457380Y-125261666D02*
X167457380Y-125833095D01*
X167457380Y-125547380D02*
X166457380Y-125547380D01*
X166600238Y-125642619D01*
X166695476Y-125737857D01*
X166743095Y-125833095D01*
X166552619Y-124880714D02*
X166505000Y-124833095D01*
X166457380Y-124737857D01*
X166457380Y-124499761D01*
X166505000Y-124404523D01*
X166552619Y-124356904D01*
X166647857Y-124309285D01*
X166743095Y-124309285D01*
X166885952Y-124356904D01*
X167457380Y-124928333D01*
X167457380Y-124309285D01*
X166457380Y-123975952D02*
X166457380Y-123309285D01*
X167457380Y-123737857D01*
%TO.C,G13*%
X166505000Y-117530476D02*
X166457380Y-117625714D01*
X166457380Y-117768571D01*
X166505000Y-117911428D01*
X166600238Y-118006666D01*
X166695476Y-118054285D01*
X166885952Y-118101904D01*
X167028809Y-118101904D01*
X167219285Y-118054285D01*
X167314523Y-118006666D01*
X167409761Y-117911428D01*
X167457380Y-117768571D01*
X167457380Y-117673333D01*
X167409761Y-117530476D01*
X167362142Y-117482857D01*
X167028809Y-117482857D01*
X167028809Y-117673333D01*
X167457380Y-116530476D02*
X167457380Y-117101904D01*
X167457380Y-116816190D02*
X166457380Y-116816190D01*
X166600238Y-116911428D01*
X166695476Y-117006666D01*
X166743095Y-117101904D01*
X166457380Y-116197142D02*
X166457380Y-115578095D01*
X166838333Y-115911428D01*
X166838333Y-115768571D01*
X166885952Y-115673333D01*
X166933571Y-115625714D01*
X167028809Y-115578095D01*
X167266904Y-115578095D01*
X167362142Y-115625714D01*
X167409761Y-115673333D01*
X167457380Y-115768571D01*
X167457380Y-116054285D01*
X167409761Y-116149523D01*
X167362142Y-116197142D01*
%TO.C,P23*%
X127452380Y-125674285D02*
X126452380Y-125674285D01*
X126452380Y-125293333D01*
X126500000Y-125198095D01*
X126547619Y-125150476D01*
X126642857Y-125102857D01*
X126785714Y-125102857D01*
X126880952Y-125150476D01*
X126928571Y-125198095D01*
X126976190Y-125293333D01*
X126976190Y-125674285D01*
X126547619Y-124721904D02*
X126500000Y-124674285D01*
X126452380Y-124579047D01*
X126452380Y-124340952D01*
X126500000Y-124245714D01*
X126547619Y-124198095D01*
X126642857Y-124150476D01*
X126738095Y-124150476D01*
X126880952Y-124198095D01*
X127452380Y-124769523D01*
X127452380Y-124150476D01*
X126452380Y-123817142D02*
X126452380Y-123198095D01*
X126833333Y-123531428D01*
X126833333Y-123388571D01*
X126880952Y-123293333D01*
X126928571Y-123245714D01*
X127023809Y-123198095D01*
X127261904Y-123198095D01*
X127357142Y-123245714D01*
X127404761Y-123293333D01*
X127452380Y-123388571D01*
X127452380Y-123674285D01*
X127404761Y-123769523D01*
X127357142Y-123817142D01*
%TO.C,G1*%
X121420000Y-117054285D02*
X121372380Y-117149523D01*
X121372380Y-117292380D01*
X121420000Y-117435238D01*
X121515238Y-117530476D01*
X121610476Y-117578095D01*
X121800952Y-117625714D01*
X121943809Y-117625714D01*
X122134285Y-117578095D01*
X122229523Y-117530476D01*
X122324761Y-117435238D01*
X122372380Y-117292380D01*
X122372380Y-117197142D01*
X122324761Y-117054285D01*
X122277142Y-117006666D01*
X121943809Y-117006666D01*
X121943809Y-117197142D01*
X122372380Y-116054285D02*
X122372380Y-116625714D01*
X122372380Y-116340000D02*
X121372380Y-116340000D01*
X121515238Y-116435238D01*
X121610476Y-116530476D01*
X121658095Y-116625714D01*
%TO.C,P103*%
X152217380Y-126785476D02*
X151217380Y-126785476D01*
X151217380Y-126404523D01*
X151265000Y-126309285D01*
X151312619Y-126261666D01*
X151407857Y-126214047D01*
X151550714Y-126214047D01*
X151645952Y-126261666D01*
X151693571Y-126309285D01*
X151741190Y-126404523D01*
X151741190Y-126785476D01*
X152217380Y-125261666D02*
X152217380Y-125833095D01*
X152217380Y-125547380D02*
X151217380Y-125547380D01*
X151360238Y-125642619D01*
X151455476Y-125737857D01*
X151503095Y-125833095D01*
X151217380Y-124642619D02*
X151217380Y-124547380D01*
X151265000Y-124452142D01*
X151312619Y-124404523D01*
X151407857Y-124356904D01*
X151598333Y-124309285D01*
X151836428Y-124309285D01*
X152026904Y-124356904D01*
X152122142Y-124404523D01*
X152169761Y-124452142D01*
X152217380Y-124547380D01*
X152217380Y-124642619D01*
X152169761Y-124737857D01*
X152122142Y-124785476D01*
X152026904Y-124833095D01*
X151836428Y-124880714D01*
X151598333Y-124880714D01*
X151407857Y-124833095D01*
X151312619Y-124785476D01*
X151265000Y-124737857D01*
X151217380Y-124642619D01*
X151217380Y-123975952D02*
X151217380Y-123356904D01*
X151598333Y-123690238D01*
X151598333Y-123547380D01*
X151645952Y-123452142D01*
X151693571Y-123404523D01*
X151788809Y-123356904D01*
X152026904Y-123356904D01*
X152122142Y-123404523D01*
X152169761Y-123452142D01*
X152217380Y-123547380D01*
X152217380Y-123833095D01*
X152169761Y-123928333D01*
X152122142Y-123975952D01*
%TO.C,P105*%
X154757380Y-126785476D02*
X153757380Y-126785476D01*
X153757380Y-126404523D01*
X153805000Y-126309285D01*
X153852619Y-126261666D01*
X153947857Y-126214047D01*
X154090714Y-126214047D01*
X154185952Y-126261666D01*
X154233571Y-126309285D01*
X154281190Y-126404523D01*
X154281190Y-126785476D01*
X154757380Y-125261666D02*
X154757380Y-125833095D01*
X154757380Y-125547380D02*
X153757380Y-125547380D01*
X153900238Y-125642619D01*
X153995476Y-125737857D01*
X154043095Y-125833095D01*
X153757380Y-124642619D02*
X153757380Y-124547380D01*
X153805000Y-124452142D01*
X153852619Y-124404523D01*
X153947857Y-124356904D01*
X154138333Y-124309285D01*
X154376428Y-124309285D01*
X154566904Y-124356904D01*
X154662142Y-124404523D01*
X154709761Y-124452142D01*
X154757380Y-124547380D01*
X154757380Y-124642619D01*
X154709761Y-124737857D01*
X154662142Y-124785476D01*
X154566904Y-124833095D01*
X154376428Y-124880714D01*
X154138333Y-124880714D01*
X153947857Y-124833095D01*
X153852619Y-124785476D01*
X153805000Y-124737857D01*
X153757380Y-124642619D01*
X153757380Y-123404523D02*
X153757380Y-123880714D01*
X154233571Y-123928333D01*
X154185952Y-123880714D01*
X154138333Y-123785476D01*
X154138333Y-123547380D01*
X154185952Y-123452142D01*
X154233571Y-123404523D01*
X154328809Y-123356904D01*
X154566904Y-123356904D01*
X154662142Y-123404523D01*
X154709761Y-123452142D01*
X154757380Y-123547380D01*
X154757380Y-123785476D01*
X154709761Y-123880714D01*
X154662142Y-123928333D01*
%TO.C,P27*%
X132532380Y-125674285D02*
X131532380Y-125674285D01*
X131532380Y-125293333D01*
X131580000Y-125198095D01*
X131627619Y-125150476D01*
X131722857Y-125102857D01*
X131865714Y-125102857D01*
X131960952Y-125150476D01*
X132008571Y-125198095D01*
X132056190Y-125293333D01*
X132056190Y-125674285D01*
X131627619Y-124721904D02*
X131580000Y-124674285D01*
X131532380Y-124579047D01*
X131532380Y-124340952D01*
X131580000Y-124245714D01*
X131627619Y-124198095D01*
X131722857Y-124150476D01*
X131818095Y-124150476D01*
X131960952Y-124198095D01*
X132532380Y-124769523D01*
X132532380Y-124150476D01*
X131532380Y-123817142D02*
X131532380Y-123150476D01*
X132532380Y-123579047D01*
%TO.C,G11*%
X161425000Y-117530476D02*
X161377380Y-117625714D01*
X161377380Y-117768571D01*
X161425000Y-117911428D01*
X161520238Y-118006666D01*
X161615476Y-118054285D01*
X161805952Y-118101904D01*
X161948809Y-118101904D01*
X162139285Y-118054285D01*
X162234523Y-118006666D01*
X162329761Y-117911428D01*
X162377380Y-117768571D01*
X162377380Y-117673333D01*
X162329761Y-117530476D01*
X162282142Y-117482857D01*
X161948809Y-117482857D01*
X161948809Y-117673333D01*
X162377380Y-116530476D02*
X162377380Y-117101904D01*
X162377380Y-116816190D02*
X161377380Y-116816190D01*
X161520238Y-116911428D01*
X161615476Y-117006666D01*
X161663095Y-117101904D01*
X162377380Y-115578095D02*
X162377380Y-116149523D01*
X162377380Y-115863809D02*
X161377380Y-115863809D01*
X161520238Y-115959047D01*
X161615476Y-116054285D01*
X161663095Y-116149523D01*
%TO.C,P19*%
X122372380Y-125674285D02*
X121372380Y-125674285D01*
X121372380Y-125293333D01*
X121420000Y-125198095D01*
X121467619Y-125150476D01*
X121562857Y-125102857D01*
X121705714Y-125102857D01*
X121800952Y-125150476D01*
X121848571Y-125198095D01*
X121896190Y-125293333D01*
X121896190Y-125674285D01*
X122372380Y-124150476D02*
X122372380Y-124721904D01*
X122372380Y-124436190D02*
X121372380Y-124436190D01*
X121515238Y-124531428D01*
X121610476Y-124626666D01*
X121658095Y-124721904D01*
X122372380Y-123674285D02*
X122372380Y-123483809D01*
X122324761Y-123388571D01*
X122277142Y-123340952D01*
X122134285Y-123245714D01*
X121943809Y-123198095D01*
X121562857Y-123198095D01*
X121467619Y-123245714D01*
X121420000Y-123293333D01*
X121372380Y-123388571D01*
X121372380Y-123579047D01*
X121420000Y-123674285D01*
X121467619Y-123721904D01*
X121562857Y-123769523D01*
X121800952Y-123769523D01*
X121896190Y-123721904D01*
X121943809Y-123674285D01*
X121991428Y-123579047D01*
X121991428Y-123388571D01*
X121943809Y-123293333D01*
X121896190Y-123245714D01*
X121800952Y-123198095D01*
%TO.C,P113*%
X166584523Y-101417380D02*
X166584523Y-100417380D01*
X166965476Y-100417380D01*
X167060714Y-100465000D01*
X167108333Y-100512619D01*
X167155952Y-100607857D01*
X167155952Y-100750714D01*
X167108333Y-100845952D01*
X167060714Y-100893571D01*
X166965476Y-100941190D01*
X166584523Y-100941190D01*
X168108333Y-101417380D02*
X167536904Y-101417380D01*
X167822619Y-101417380D02*
X167822619Y-100417380D01*
X167727380Y-100560238D01*
X167632142Y-100655476D01*
X167536904Y-100703095D01*
X169060714Y-101417380D02*
X168489285Y-101417380D01*
X168775000Y-101417380D02*
X168775000Y-100417380D01*
X168679761Y-100560238D01*
X168584523Y-100655476D01*
X168489285Y-100703095D01*
X169394047Y-100417380D02*
X170013095Y-100417380D01*
X169679761Y-100798333D01*
X169822619Y-100798333D01*
X169917857Y-100845952D01*
X169965476Y-100893571D01*
X170013095Y-100988809D01*
X170013095Y-101226904D01*
X169965476Y-101322142D01*
X169917857Y-101369761D01*
X169822619Y-101417380D01*
X169536904Y-101417380D01*
X169441666Y-101369761D01*
X169394047Y-101322142D01*
D12*
%TO.C,R1*%
X113195000Y-125955000D02*
X113195000Y-124235000D01*
X114135000Y-125955000D02*
X114135000Y-124235000D01*
X113195000Y-125955000D02*
X114135000Y-125955000D01*
X113195000Y-124235000D02*
X114135000Y-124235000D01*
D13*
%TO.C,MC1*%
X118585000Y-131635000D02*
X178595000Y-131635000D01*
X178595000Y-131635000D02*
X178595000Y-136081000D01*
X178595000Y-136081000D02*
X177066000Y-137605000D01*
X177066000Y-137605000D02*
X120114000Y-137605000D01*
X120114000Y-137605000D02*
X118585000Y-136081000D01*
X118585000Y-136081000D02*
X118585000Y-131635000D01*
D14*
X120690000Y-131120000D02*
G75*
G03*
X120690000Y-131120000I-100000J0D01*
G01*
D13*
%TO.C,P20*%
X95250000Y-114935000D02*
X95250000Y-121285000D01*
X88900000Y-121285000D02*
X95250000Y-121285000D01*
X88900000Y-114935000D02*
X95250000Y-114935000D01*
X88900000Y-114935000D02*
X88900000Y-121285000D01*
X95250000Y-118110000D02*
G75*
G03*
X95250000Y-118110000I-3175000J0D01*
G01*
%TO.C,P87*%
X140274050Y-90805000D02*
X146624050Y-90805000D01*
X140274050Y-97155000D02*
X146624050Y-97155000D01*
X146624050Y-90805000D02*
X146624050Y-97155000D01*
X140274050Y-90805000D02*
X140274050Y-97155000D01*
X146624050Y-93980000D02*
G75*
G03*
X146624050Y-93980000I-3175000J0D01*
G01*
%TO.C,P97*%
X153040629Y-102870000D02*
X159390629Y-102870000D01*
X153040629Y-102870000D02*
X153040629Y-109220000D01*
X153040629Y-109220000D02*
X159390629Y-109220000D01*
X159390629Y-102870000D02*
X159390629Y-109220000D01*
X159390629Y-106045000D02*
G75*
G03*
X159390629Y-106045000I-3175000J0D01*
G01*
%TO.C,P41*%
X127614684Y-90805000D02*
X133964684Y-90805000D01*
X127614684Y-90805000D02*
X127614684Y-97155000D01*
X127614684Y-97155000D02*
X133964684Y-97155000D01*
X133964684Y-90805000D02*
X133964684Y-97155000D01*
X133964684Y-93980000D02*
G75*
G03*
X133964684Y-93980000I-3175000J0D01*
G01*
%TO.C,P17*%
X110490000Y-114935000D02*
X110490000Y-121285000D01*
X110490000Y-114935000D02*
X116840000Y-114935000D01*
X116840000Y-114935000D02*
X116840000Y-121285000D01*
X110490000Y-121285000D02*
X116840000Y-121285000D01*
X116840000Y-118110000D02*
G75*
G03*
X116840000Y-118110000I-3175000J0D01*
G01*
%TO.C,P33*%
X115501250Y-102870000D02*
X115501250Y-109220000D01*
X121851250Y-102870000D02*
X121851250Y-109220000D01*
X115501250Y-109220000D02*
X121851250Y-109220000D01*
X115501250Y-102870000D02*
X121851250Y-102870000D01*
X121851250Y-106045000D02*
G75*
G03*
X121851250Y-106045000I-3175000J0D01*
G01*
%TO.C,P89*%
X140335000Y-102870000D02*
X140335000Y-109220000D01*
X140335000Y-109220000D02*
X146685000Y-109220000D01*
X140335000Y-102870000D02*
X146685000Y-102870000D01*
X146685000Y-102870000D02*
X146685000Y-109220000D01*
X146685000Y-106045000D02*
G75*
G03*
X146685000Y-106045000I-3175000J0D01*
G01*
%TO.C,P111*%
X171450000Y-90805000D02*
X171450000Y-97155000D01*
X165100000Y-90805000D02*
X171450000Y-90805000D01*
X165100000Y-90805000D02*
X165100000Y-97155000D01*
X165100000Y-97155000D02*
X171450000Y-97155000D01*
X171450000Y-93980000D02*
G75*
G03*
X171450000Y-93980000I-3175000J0D01*
G01*
%TO.C,P43*%
X127614684Y-85090000D02*
X133964684Y-85090000D01*
X127614684Y-78740000D02*
X133964684Y-78740000D01*
X133964684Y-78740000D02*
X133964684Y-85090000D01*
X127614684Y-78740000D02*
X127614684Y-85090000D01*
X133964684Y-81915000D02*
G75*
G03*
X133964684Y-81915000I-3175000J0D01*
G01*
%TO.C,P18*%
X100965000Y-114935000D02*
X107315000Y-114935000D01*
X100965000Y-114935000D02*
X100965000Y-121285000D01*
X100965000Y-121285000D02*
X107315000Y-121285000D01*
X107315000Y-114935000D02*
X107315000Y-121285000D01*
X107315000Y-118110000D02*
G75*
G03*
X107315000Y-118110000I-3175000J0D01*
G01*
%TO.C,P35*%
X133985000Y-102870000D02*
X133985000Y-109220000D01*
X127635000Y-109220000D02*
X133985000Y-109220000D01*
X127635000Y-102870000D02*
X133985000Y-102870000D01*
X127635000Y-102870000D02*
X127635000Y-109220000D01*
X133985000Y-106045000D02*
G75*
G03*
X133985000Y-106045000I-3175000J0D01*
G01*
%TO.C,P95*%
X153035000Y-90805000D02*
X159385000Y-90805000D01*
X159385000Y-90805000D02*
X159385000Y-97155000D01*
X153035000Y-97155000D02*
X159385000Y-97155000D01*
X153035000Y-90805000D02*
X153035000Y-97155000D01*
X159385000Y-93980000D02*
G75*
G03*
X159385000Y-93980000I-3175000J0D01*
G01*
%TO.C,P113*%
X171450000Y-102870000D02*
X171450000Y-109220000D01*
X165100000Y-102870000D02*
X171450000Y-102870000D01*
X165100000Y-102870000D02*
X165100000Y-109220000D01*
X165100000Y-109220000D02*
X171450000Y-109220000D01*
X171450000Y-106045000D02*
G75*
G03*
X171450000Y-106045000I-3175000J0D01*
G01*
%TD*%
M02*
