%TF.GenerationSoftware,KiCad,Pcbnew,(6.0.8)*%
%TF.CreationDate,2022-10-28T14:48:27+02:00*%
%TF.ProjectId,XEM8350-BRK-MC1,58454d38-3335-4302-9d42-524b2d4d4331,rev?*%
%TF.SameCoordinates,Original*%
%TF.FileFunction,Soldermask,Bot*%
%TF.FilePolarity,Negative*%
%FSLAX46Y46*%
G04 Gerber Fmt 4.6, Leading zero omitted, Abs format (unit mm)*
G04 Created by KiCad (PCBNEW (6.0.8)) date 2022-10-28 14:48:27*
%MOMM*%
%LPD*%
G01*
G04 APERTURE LIST*
%ADD10C,1.020000*%
%ADD11C,2.050000*%
%ADD12C,2.250000*%
%ADD13C,1.524000*%
%ADD14C,2.200000*%
G04 APERTURE END LIST*
D10*
%TO.C,MC1*%
X119350000Y-132590000D03*
X177830000Y-132590000D03*
%TD*%
D11*
%TO.C,P20*%
X92075000Y-118110000D03*
D12*
X94615000Y-120650000D03*
X89535000Y-120650000D03*
X89535000Y-115570000D03*
X94615000Y-115570000D03*
%TD*%
D13*
%TO.C,P25*%
X129540000Y-121920000D03*
%TD*%
D11*
%TO.C,P87*%
X143449050Y-93980000D03*
D12*
X140909050Y-96520000D03*
X140909050Y-91440000D03*
X145989050Y-96520000D03*
X145989050Y-91440000D03*
%TD*%
D14*
%TO.C,REF\u002A\u002A*%
X190500000Y-139700000D03*
%TD*%
D13*
%TO.C,G3*%
X127000000Y-119380000D03*
%TD*%
%TO.C,G6*%
X142875000Y-119380000D03*
%TD*%
D11*
%TO.C,P97*%
X156215629Y-106045000D03*
D12*
X153675629Y-108585000D03*
X158755629Y-103505000D03*
X153675629Y-103505000D03*
X158755629Y-108585000D03*
%TD*%
D13*
%TO.C,P121*%
X159385000Y-121920000D03*
%TD*%
%TO.C,P131*%
X172085000Y-121920000D03*
%TD*%
%TO.C,P91*%
X142875000Y-121920000D03*
%TD*%
D14*
%TO.C,REF\u002A\u002A*%
X88900000Y-139700000D03*
%TD*%
D13*
%TO.C,G5*%
X132080000Y-119380000D03*
%TD*%
D11*
%TO.C,P41*%
X130789684Y-93980000D03*
D12*
X128249684Y-96520000D03*
X128249684Y-91440000D03*
X133329684Y-96520000D03*
X133329684Y-91440000D03*
%TD*%
D13*
%TO.C,G10*%
X159385000Y-119380000D03*
%TD*%
D11*
%TO.C,P17*%
X113665000Y-118110000D03*
D12*
X111125000Y-120650000D03*
X111125000Y-115570000D03*
X116205000Y-120650000D03*
X116205000Y-115570000D03*
%TD*%
D11*
%TO.C,P33*%
X118676250Y-106045000D03*
D12*
X121216250Y-103505000D03*
X121216250Y-108585000D03*
X116136250Y-103505000D03*
X116136250Y-108585000D03*
%TD*%
D13*
%TO.C,P123*%
X161925000Y-121920000D03*
%TD*%
D11*
%TO.C,P89*%
X143510000Y-106045000D03*
D12*
X146050000Y-108585000D03*
X146050000Y-103505000D03*
X140970000Y-108585000D03*
X140970000Y-103505000D03*
%TD*%
D13*
%TO.C,G12*%
X164465000Y-119380000D03*
%TD*%
%TO.C,G8*%
X151765000Y-119380000D03*
%TD*%
%TO.C,G9*%
X154305000Y-119380000D03*
%TD*%
D11*
%TO.C,P111*%
X168275000Y-93980000D03*
D12*
X170815000Y-91440000D03*
X170815000Y-96520000D03*
X165735000Y-96520000D03*
X165735000Y-91440000D03*
%TD*%
D13*
%TO.C,G15*%
X172085000Y-119380000D03*
%TD*%
%TO.C,G17*%
X177165000Y-119380000D03*
%TD*%
%TO.C,P135*%
X177165000Y-121920000D03*
%TD*%
%TO.C,P133*%
X174625000Y-121920000D03*
%TD*%
%TO.C,G16*%
X174625000Y-119380000D03*
%TD*%
D11*
%TO.C,P43*%
X130789684Y-81915000D03*
D12*
X133329684Y-84455000D03*
X128249684Y-84455000D03*
X128249684Y-79375000D03*
X133329684Y-79375000D03*
%TD*%
D13*
%TO.C,P129*%
X169545000Y-121920000D03*
%TD*%
%TO.C,P21*%
X124460000Y-121920000D03*
%TD*%
D14*
%TO.C,REF\u002A\u002A*%
X88900000Y-76200000D03*
%TD*%
D13*
%TO.C,G7*%
X145415000Y-119380000D03*
%TD*%
%TO.C,G14*%
X169545000Y-119380000D03*
%TD*%
D11*
%TO.C,P18*%
X104140000Y-118110000D03*
D12*
X101600000Y-115570000D03*
X106680000Y-120650000D03*
X106680000Y-115570000D03*
X101600000Y-120650000D03*
%TD*%
D11*
%TO.C,P35*%
X130810000Y-106045000D03*
D12*
X128270000Y-108585000D03*
X128270000Y-103505000D03*
X133350000Y-108585000D03*
X133350000Y-103505000D03*
%TD*%
D13*
%TO.C,G2*%
X124460000Y-119380000D03*
%TD*%
%TO.C,P125*%
X164465000Y-121920000D03*
%TD*%
D11*
%TO.C,P95*%
X156210000Y-93980000D03*
D12*
X153670000Y-91440000D03*
X158750000Y-91440000D03*
X158750000Y-96520000D03*
X153670000Y-96520000D03*
%TD*%
D13*
%TO.C,G4*%
X129540000Y-119380000D03*
%TD*%
%TO.C,P93*%
X145415000Y-121920000D03*
%TD*%
%TO.C,P127*%
X167005000Y-121920000D03*
%TD*%
%TO.C,G13*%
X167005000Y-119380000D03*
%TD*%
%TO.C,P23*%
X127000000Y-121920000D03*
%TD*%
%TO.C,G1*%
X121920000Y-119380000D03*
%TD*%
D14*
%TO.C,REF\u002A\u002A*%
X190500000Y-76200000D03*
%TD*%
D13*
%TO.C,P103*%
X151765000Y-121920000D03*
%TD*%
%TO.C,P105*%
X154305000Y-121920000D03*
%TD*%
%TO.C,P27*%
X132080000Y-121920000D03*
%TD*%
%TO.C,G11*%
X161925000Y-119380000D03*
%TD*%
%TO.C,P19*%
X121920000Y-121920000D03*
%TD*%
D11*
%TO.C,P113*%
X168275000Y-106045000D03*
D12*
X165735000Y-108585000D03*
X170815000Y-108585000D03*
X165735000Y-103505000D03*
X170815000Y-103505000D03*
%TD*%
M02*
