%TF.GenerationSoftware,KiCad,Pcbnew,(6.0.8)*%
%TF.CreationDate,2022-10-28T14:48:27+02:00*%
%TF.ProjectId,XEM8350-BRK-MC1,58454d38-3335-4302-9d42-524b2d4d4331,rev?*%
%TF.SameCoordinates,Original*%
%TF.FileFunction,Soldermask,Top*%
%TF.FilePolarity,Negative*%
%FSLAX46Y46*%
G04 Gerber Fmt 4.6, Leading zero omitted, Abs format (unit mm)*
G04 Created by KiCad (PCBNEW (6.0.8)) date 2022-10-28 14:48:27*
%MOMM*%
%LPD*%
G01*
G04 APERTURE LIST*
%ADD10R,0.960000X1.130000*%
%ADD11C,1.020000*%
%ADD12R,0.305000X1.450000*%
%ADD13R,2.540000X0.640000*%
%ADD14R,4.700000X0.640000*%
%ADD15C,2.050000*%
%ADD16C,2.250000*%
%ADD17C,1.524000*%
%ADD18C,2.200000*%
G04 APERTURE END LIST*
D10*
%TO.C,R1*%
X113665000Y-124431000D03*
X113665000Y-125759000D03*
%TD*%
D11*
%TO.C,MC1*%
X119350000Y-132590000D03*
X177830000Y-132590000D03*
D12*
X121340000Y-131534000D03*
X121340000Y-137706000D03*
X121840000Y-131534000D03*
X121840000Y-137706000D03*
X122340000Y-131534000D03*
X122340000Y-137706000D03*
X122840000Y-131534000D03*
X122840000Y-137706000D03*
X123340000Y-131534000D03*
X123340000Y-137706000D03*
X123840000Y-131534000D03*
X123840000Y-137706000D03*
X124340000Y-131534000D03*
X124340000Y-137706000D03*
X124840000Y-131534000D03*
X124840000Y-137706000D03*
X125340000Y-131534000D03*
X125340000Y-137706000D03*
X125840000Y-131534000D03*
X125840000Y-137706000D03*
X126340000Y-131534000D03*
X126340000Y-137706000D03*
X126840000Y-131534000D03*
X126840000Y-137706000D03*
X127340000Y-131534000D03*
X127340000Y-137706000D03*
X127840000Y-131534000D03*
X127840000Y-137706000D03*
X128340000Y-131534000D03*
X128340000Y-137706000D03*
X128840000Y-131534000D03*
X128840000Y-137706000D03*
X129340000Y-131534000D03*
X129340000Y-137706000D03*
X129840000Y-131534000D03*
X129840000Y-137706000D03*
X130340000Y-131534000D03*
X130340000Y-137706000D03*
X130840000Y-131534000D03*
X130840000Y-137706000D03*
X131340000Y-131534000D03*
X131340000Y-137706000D03*
X131840000Y-131534000D03*
X131840000Y-137706000D03*
X132340000Y-131534000D03*
X132340000Y-137706000D03*
X132840000Y-131534000D03*
X132840000Y-137706000D03*
X133340000Y-131534000D03*
X133340000Y-137706000D03*
X133840000Y-131534000D03*
X133840000Y-137706000D03*
X134340000Y-131534000D03*
X134340000Y-137706000D03*
X134840000Y-131534000D03*
X134840000Y-137706000D03*
X135340000Y-131534000D03*
X135340000Y-137706000D03*
X135840000Y-131534000D03*
X135840000Y-137706000D03*
D13*
X120145000Y-134620000D03*
X137035000Y-134620000D03*
D14*
X125415000Y-134620000D03*
X131765000Y-134620000D03*
D12*
X141340000Y-131534000D03*
X141340000Y-137706000D03*
X141840000Y-131534000D03*
X141840000Y-137706000D03*
X142340000Y-131534000D03*
X142340000Y-137706000D03*
X142840000Y-131534000D03*
X142840000Y-137706000D03*
X143340000Y-131534000D03*
X143340000Y-137706000D03*
X143840000Y-131534000D03*
X143840000Y-137706000D03*
X144340000Y-131534000D03*
X144340000Y-137706000D03*
X144840000Y-131534000D03*
X144840000Y-137706000D03*
X145340000Y-131534000D03*
X145340000Y-137706000D03*
X145840000Y-131534000D03*
X145840000Y-137706000D03*
X146340000Y-131534000D03*
X146340000Y-137706000D03*
X146840000Y-131534000D03*
X146840000Y-137706000D03*
X147340000Y-131534000D03*
X147340000Y-137706000D03*
X147840000Y-131534000D03*
X147840000Y-137706000D03*
X148340000Y-131534000D03*
X148340000Y-137706000D03*
X148840000Y-131534000D03*
X148840000Y-137706000D03*
X149340000Y-131534000D03*
X149340000Y-137706000D03*
X149840000Y-131534000D03*
X149840000Y-137706000D03*
X150340000Y-131534000D03*
X150340000Y-137706000D03*
X150840000Y-131534000D03*
X150840000Y-137706000D03*
X151340000Y-131534000D03*
X151340000Y-137706000D03*
X151840000Y-131534000D03*
X151840000Y-137706000D03*
X152340000Y-131534000D03*
X152340000Y-137706000D03*
X152840000Y-131534000D03*
X152840000Y-137706000D03*
X153340000Y-131534000D03*
X153340000Y-137706000D03*
X153840000Y-131534000D03*
X153840000Y-137706000D03*
X154340000Y-131534000D03*
X154340000Y-137706000D03*
X154840000Y-131534000D03*
X154840000Y-137706000D03*
X155340000Y-131534000D03*
X155340000Y-137706000D03*
X155840000Y-131534000D03*
X155840000Y-137706000D03*
D13*
X140145000Y-134620000D03*
X157035000Y-134620000D03*
D14*
X145415000Y-134620000D03*
X151765000Y-134620000D03*
D12*
X161340000Y-131534000D03*
X161340000Y-137706000D03*
X161840000Y-131534000D03*
X161840000Y-137706000D03*
X162340000Y-131534000D03*
X162340000Y-137706000D03*
X162840000Y-131534000D03*
X162840000Y-137706000D03*
X163340000Y-131534000D03*
X163340000Y-137706000D03*
X163840000Y-131534000D03*
X163840000Y-137706000D03*
X164340000Y-131534000D03*
X164340000Y-137706000D03*
X164840000Y-131534000D03*
X164840000Y-137706000D03*
X165340000Y-131534000D03*
X165340000Y-137706000D03*
X165840000Y-131534000D03*
X165840000Y-137706000D03*
X166340000Y-131534000D03*
X166340000Y-137706000D03*
X166840000Y-131534000D03*
X166840000Y-137706000D03*
X167340000Y-131534000D03*
X167340000Y-137706000D03*
X167840000Y-131534000D03*
X167840000Y-137706000D03*
X168340000Y-131534000D03*
X168340000Y-137706000D03*
X168840000Y-131534000D03*
X168840000Y-137706000D03*
X169340000Y-131534000D03*
X169340000Y-137706000D03*
X169840000Y-131534000D03*
X169840000Y-137706000D03*
X170340000Y-131534000D03*
X170340000Y-137706000D03*
X170840000Y-131534000D03*
X170840000Y-137706000D03*
X171340000Y-131534000D03*
X171340000Y-137706000D03*
X171840000Y-131534000D03*
X171840000Y-137706000D03*
X172340000Y-131534000D03*
X172340000Y-137706000D03*
X172840000Y-131534000D03*
X172840000Y-137706000D03*
X173340000Y-131534000D03*
X173340000Y-137706000D03*
X173840000Y-131534000D03*
X173840000Y-137706000D03*
X174340000Y-131534000D03*
X174340000Y-137706000D03*
X174840000Y-131534000D03*
X174840000Y-137706000D03*
X175340000Y-131534000D03*
X175340000Y-137706000D03*
X175840000Y-131534000D03*
X175840000Y-137706000D03*
D13*
X160145000Y-134620000D03*
X177035000Y-134620000D03*
D14*
X165415000Y-134620000D03*
X171765000Y-134620000D03*
%TD*%
D15*
%TO.C,P20*%
X92075000Y-118110000D03*
D16*
X94615000Y-120650000D03*
X89535000Y-120650000D03*
X89535000Y-115570000D03*
X94615000Y-115570000D03*
%TD*%
D17*
%TO.C,P25*%
X129540000Y-121920000D03*
%TD*%
D15*
%TO.C,P87*%
X143449050Y-93980000D03*
D16*
X140909050Y-96520000D03*
X140909050Y-91440000D03*
X145989050Y-96520000D03*
X145989050Y-91440000D03*
%TD*%
D18*
%TO.C,REF\u002A\u002A*%
X190500000Y-139700000D03*
%TD*%
D17*
%TO.C,G3*%
X127000000Y-119380000D03*
%TD*%
%TO.C,G6*%
X142875000Y-119380000D03*
%TD*%
D15*
%TO.C,P97*%
X156215629Y-106045000D03*
D16*
X153675629Y-108585000D03*
X158755629Y-103505000D03*
X153675629Y-103505000D03*
X158755629Y-108585000D03*
%TD*%
D17*
%TO.C,P121*%
X159385000Y-121920000D03*
%TD*%
%TO.C,P131*%
X172085000Y-121920000D03*
%TD*%
%TO.C,P91*%
X142875000Y-121920000D03*
%TD*%
D18*
%TO.C,REF\u002A\u002A*%
X88900000Y-139700000D03*
%TD*%
D17*
%TO.C,G5*%
X132080000Y-119380000D03*
%TD*%
D15*
%TO.C,P41*%
X130789684Y-93980000D03*
D16*
X128249684Y-96520000D03*
X128249684Y-91440000D03*
X133329684Y-96520000D03*
X133329684Y-91440000D03*
%TD*%
D17*
%TO.C,G10*%
X159385000Y-119380000D03*
%TD*%
D15*
%TO.C,P17*%
X113665000Y-118110000D03*
D16*
X111125000Y-120650000D03*
X111125000Y-115570000D03*
X116205000Y-120650000D03*
X116205000Y-115570000D03*
%TD*%
D15*
%TO.C,P33*%
X118676250Y-106045000D03*
D16*
X121216250Y-103505000D03*
X121216250Y-108585000D03*
X116136250Y-103505000D03*
X116136250Y-108585000D03*
%TD*%
D17*
%TO.C,P123*%
X161925000Y-121920000D03*
%TD*%
D15*
%TO.C,P89*%
X143510000Y-106045000D03*
D16*
X146050000Y-108585000D03*
X146050000Y-103505000D03*
X140970000Y-108585000D03*
X140970000Y-103505000D03*
%TD*%
D17*
%TO.C,G12*%
X164465000Y-119380000D03*
%TD*%
%TO.C,G8*%
X151765000Y-119380000D03*
%TD*%
%TO.C,G9*%
X154305000Y-119380000D03*
%TD*%
D15*
%TO.C,P111*%
X168275000Y-93980000D03*
D16*
X170815000Y-91440000D03*
X170815000Y-96520000D03*
X165735000Y-96520000D03*
X165735000Y-91440000D03*
%TD*%
D17*
%TO.C,G15*%
X172085000Y-119380000D03*
%TD*%
%TO.C,G17*%
X177165000Y-119380000D03*
%TD*%
%TO.C,P135*%
X177165000Y-121920000D03*
%TD*%
%TO.C,P133*%
X174625000Y-121920000D03*
%TD*%
%TO.C,G16*%
X174625000Y-119380000D03*
%TD*%
D15*
%TO.C,P43*%
X130789684Y-81915000D03*
D16*
X133329684Y-84455000D03*
X128249684Y-84455000D03*
X128249684Y-79375000D03*
X133329684Y-79375000D03*
%TD*%
D17*
%TO.C,P129*%
X169545000Y-121920000D03*
%TD*%
%TO.C,P21*%
X124460000Y-121920000D03*
%TD*%
D18*
%TO.C,REF\u002A\u002A*%
X88900000Y-76200000D03*
%TD*%
D17*
%TO.C,G7*%
X145415000Y-119380000D03*
%TD*%
%TO.C,G14*%
X169545000Y-119380000D03*
%TD*%
D15*
%TO.C,P18*%
X104140000Y-118110000D03*
D16*
X101600000Y-115570000D03*
X106680000Y-120650000D03*
X106680000Y-115570000D03*
X101600000Y-120650000D03*
%TD*%
D15*
%TO.C,P35*%
X130810000Y-106045000D03*
D16*
X128270000Y-108585000D03*
X128270000Y-103505000D03*
X133350000Y-108585000D03*
X133350000Y-103505000D03*
%TD*%
D17*
%TO.C,G2*%
X124460000Y-119380000D03*
%TD*%
%TO.C,P125*%
X164465000Y-121920000D03*
%TD*%
D15*
%TO.C,P95*%
X156210000Y-93980000D03*
D16*
X153670000Y-91440000D03*
X158750000Y-91440000D03*
X158750000Y-96520000D03*
X153670000Y-96520000D03*
%TD*%
D17*
%TO.C,G4*%
X129540000Y-119380000D03*
%TD*%
%TO.C,P93*%
X145415000Y-121920000D03*
%TD*%
%TO.C,P127*%
X167005000Y-121920000D03*
%TD*%
%TO.C,G13*%
X167005000Y-119380000D03*
%TD*%
%TO.C,P23*%
X127000000Y-121920000D03*
%TD*%
%TO.C,G1*%
X121920000Y-119380000D03*
%TD*%
D18*
%TO.C,REF\u002A\u002A*%
X190500000Y-76200000D03*
%TD*%
D17*
%TO.C,P103*%
X151765000Y-121920000D03*
%TD*%
%TO.C,P105*%
X154305000Y-121920000D03*
%TD*%
%TO.C,P27*%
X132080000Y-121920000D03*
%TD*%
%TO.C,G11*%
X161925000Y-119380000D03*
%TD*%
%TO.C,P19*%
X121920000Y-121920000D03*
%TD*%
D15*
%TO.C,P113*%
X168275000Y-106045000D03*
D16*
X165735000Y-108585000D03*
X170815000Y-108585000D03*
X165735000Y-103505000D03*
X170815000Y-103505000D03*
%TD*%
M02*
