M48
; DRILL file {KiCad (6.0.8)} date Fri Oct 28 14:48:36 2022
; FORMAT={-:-/ absolute / inch / decimal}
; #@! TF.CreationDate,2022-10-28T14:48:36+02:00
; #@! TF.GenerationSoftware,Kicad,Pcbnew,(6.0.8)
; #@! TF.FileFunction,Plated,1,2,PTH
FMAT,2
INCH
; #@! TA.AperFunction,Plated,PTH,ComponentDrill
T1C0.0300
; #@! TA.AperFunction,Plated,PTH,ComponentDrill
T2C0.0591
; #@! TA.AperFunction,Plated,PTH,ComponentDrill
T3C0.0669
%
G90
G05
T1
X4.8Y-4.7
X4.8Y-4.8
X4.9Y-4.7
X4.9Y-4.8
X5.0Y-4.7
X5.0Y-4.8
X5.1Y-4.7
X5.1Y-4.8
X5.2Y-4.7
X5.2Y-4.8
X5.625Y-4.7
X5.625Y-4.8
X5.725Y-4.7
X5.725Y-4.8
X5.975Y-4.7
X5.975Y-4.8
X6.075Y-4.7
X6.075Y-4.8
X6.275Y-4.7
X6.275Y-4.8
X6.375Y-4.7
X6.375Y-4.8
X6.475Y-4.7
X6.475Y-4.8
X6.575Y-4.7
X6.575Y-4.8
X6.675Y-4.7
X6.675Y-4.8
X6.775Y-4.7
X6.775Y-4.8
X6.875Y-4.7
X6.875Y-4.8
X6.975Y-4.7
X6.975Y-4.8
T2
X3.625Y-4.65
X4.1Y-4.65
X4.475Y-4.65
X4.6723Y-4.175
X5.1492Y-3.225
X5.1492Y-3.7
X5.15Y-4.175
X5.6476Y-3.7
X5.65Y-4.175
X6.15Y-3.7
X6.1502Y-4.175
X6.625Y-3.7
X6.625Y-4.175
T3
X3.525Y-4.55
X3.525Y-4.75
X3.725Y-4.55
X3.725Y-4.75
X4.0Y-4.55
X4.0Y-4.75
X4.2Y-4.55
X4.2Y-4.75
X4.375Y-4.55
X4.375Y-4.75
X4.5723Y-4.075
X4.5723Y-4.275
X4.575Y-4.55
X4.575Y-4.75
X4.7723Y-4.075
X4.7723Y-4.275
X5.0492Y-3.125
X5.0492Y-3.325
X5.0492Y-3.6
X5.0492Y-3.8
X5.05Y-4.075
X5.05Y-4.275
X5.2492Y-3.125
X5.2492Y-3.325
X5.2492Y-3.6
X5.2492Y-3.8
X5.25Y-4.075
X5.25Y-4.275
X5.5476Y-3.6
X5.5476Y-3.8
X5.55Y-4.075
X5.55Y-4.275
X5.7476Y-3.6
X5.7476Y-3.8
X5.75Y-4.075
X5.75Y-4.275
X6.05Y-3.6
X6.05Y-3.8
X6.0502Y-4.075
X6.0502Y-4.275
X6.25Y-3.6
X6.25Y-3.8
X6.2502Y-4.075
X6.2502Y-4.275
X6.525Y-3.6
X6.525Y-3.8
X6.525Y-4.075
X6.525Y-4.275
X6.725Y-3.6
X6.725Y-3.8
X6.725Y-4.075
X6.725Y-4.275
T0
M30
