%TF.GenerationSoftware,KiCad,Pcbnew,(6.0.8)*%
%TF.CreationDate,2022-10-28T14:48:27+02:00*%
%TF.ProjectId,XEM8350-BRK-MC1,58454d38-3335-4302-9d42-524b2d4d4331,rev?*%
%TF.SameCoordinates,Original*%
%TF.FileFunction,Paste,Top*%
%TF.FilePolarity,Positive*%
%FSLAX46Y46*%
G04 Gerber Fmt 4.6, Leading zero omitted, Abs format (unit mm)*
G04 Created by KiCad (PCBNEW (6.0.8)) date 2022-10-28 14:48:27*
%MOMM*%
%LPD*%
G01*
G04 APERTURE LIST*
%ADD10R,0.960000X1.130000*%
%ADD11R,0.305000X1.450000*%
%ADD12R,2.540000X0.640000*%
%ADD13R,4.700000X0.640000*%
G04 APERTURE END LIST*
D10*
%TO.C,R1*%
X113665000Y-124431000D03*
X113665000Y-125759000D03*
%TD*%
D11*
%TO.C,MC1*%
X121340000Y-131534000D03*
X121340000Y-137706000D03*
X121840000Y-131534000D03*
X121840000Y-137706000D03*
X122340000Y-131534000D03*
X122340000Y-137706000D03*
X122840000Y-131534000D03*
X122840000Y-137706000D03*
X123340000Y-131534000D03*
X123340000Y-137706000D03*
X123840000Y-131534000D03*
X123840000Y-137706000D03*
X124340000Y-131534000D03*
X124340000Y-137706000D03*
X124840000Y-131534000D03*
X124840000Y-137706000D03*
X125340000Y-131534000D03*
X125340000Y-137706000D03*
X125840000Y-131534000D03*
X125840000Y-137706000D03*
X126340000Y-131534000D03*
X126340000Y-137706000D03*
X126840000Y-131534000D03*
X126840000Y-137706000D03*
X127340000Y-131534000D03*
X127340000Y-137706000D03*
X127840000Y-131534000D03*
X127840000Y-137706000D03*
X128340000Y-131534000D03*
X128340000Y-137706000D03*
X128840000Y-131534000D03*
X128840000Y-137706000D03*
X129340000Y-131534000D03*
X129340000Y-137706000D03*
X129840000Y-131534000D03*
X129840000Y-137706000D03*
X130340000Y-131534000D03*
X130340000Y-137706000D03*
X130840000Y-131534000D03*
X130840000Y-137706000D03*
X131340000Y-131534000D03*
X131340000Y-137706000D03*
X131840000Y-131534000D03*
X131840000Y-137706000D03*
X132340000Y-131534000D03*
X132340000Y-137706000D03*
X132840000Y-131534000D03*
X132840000Y-137706000D03*
X133340000Y-131534000D03*
X133340000Y-137706000D03*
X133840000Y-131534000D03*
X133840000Y-137706000D03*
X134340000Y-131534000D03*
X134340000Y-137706000D03*
X134840000Y-131534000D03*
X134840000Y-137706000D03*
X135340000Y-131534000D03*
X135340000Y-137706000D03*
X135840000Y-131534000D03*
X135840000Y-137706000D03*
D12*
X120145000Y-134620000D03*
X137035000Y-134620000D03*
D13*
X125415000Y-134620000D03*
X131765000Y-134620000D03*
D11*
X141340000Y-131534000D03*
X141340000Y-137706000D03*
X141840000Y-131534000D03*
X141840000Y-137706000D03*
X142340000Y-131534000D03*
X142340000Y-137706000D03*
X142840000Y-131534000D03*
X142840000Y-137706000D03*
X143340000Y-131534000D03*
X143340000Y-137706000D03*
X143840000Y-131534000D03*
X143840000Y-137706000D03*
X144340000Y-131534000D03*
X144340000Y-137706000D03*
X144840000Y-131534000D03*
X144840000Y-137706000D03*
X145340000Y-131534000D03*
X145340000Y-137706000D03*
X145840000Y-131534000D03*
X145840000Y-137706000D03*
X146340000Y-131534000D03*
X146340000Y-137706000D03*
X146840000Y-131534000D03*
X146840000Y-137706000D03*
X147340000Y-131534000D03*
X147340000Y-137706000D03*
X147840000Y-131534000D03*
X147840000Y-137706000D03*
X148340000Y-131534000D03*
X148340000Y-137706000D03*
X148840000Y-131534000D03*
X148840000Y-137706000D03*
X149340000Y-131534000D03*
X149340000Y-137706000D03*
X149840000Y-131534000D03*
X149840000Y-137706000D03*
X150340000Y-131534000D03*
X150340000Y-137706000D03*
X150840000Y-131534000D03*
X150840000Y-137706000D03*
X151340000Y-131534000D03*
X151340000Y-137706000D03*
X151840000Y-131534000D03*
X151840000Y-137706000D03*
X152340000Y-131534000D03*
X152340000Y-137706000D03*
X152840000Y-131534000D03*
X152840000Y-137706000D03*
X153340000Y-131534000D03*
X153340000Y-137706000D03*
X153840000Y-131534000D03*
X153840000Y-137706000D03*
X154340000Y-131534000D03*
X154340000Y-137706000D03*
X154840000Y-131534000D03*
X154840000Y-137706000D03*
X155340000Y-131534000D03*
X155340000Y-137706000D03*
X155840000Y-131534000D03*
X155840000Y-137706000D03*
D12*
X140145000Y-134620000D03*
X157035000Y-134620000D03*
D13*
X145415000Y-134620000D03*
X151765000Y-134620000D03*
D11*
X161340000Y-131534000D03*
X161340000Y-137706000D03*
X161840000Y-131534000D03*
X161840000Y-137706000D03*
X162340000Y-131534000D03*
X162340000Y-137706000D03*
X162840000Y-131534000D03*
X162840000Y-137706000D03*
X163340000Y-131534000D03*
X163340000Y-137706000D03*
X163840000Y-131534000D03*
X163840000Y-137706000D03*
X164340000Y-131534000D03*
X164340000Y-137706000D03*
X164840000Y-131534000D03*
X164840000Y-137706000D03*
X165340000Y-131534000D03*
X165340000Y-137706000D03*
X165840000Y-131534000D03*
X165840000Y-137706000D03*
X166340000Y-131534000D03*
X166340000Y-137706000D03*
X166840000Y-131534000D03*
X166840000Y-137706000D03*
X167340000Y-131534000D03*
X167340000Y-137706000D03*
X167840000Y-131534000D03*
X167840000Y-137706000D03*
X168340000Y-131534000D03*
X168340000Y-137706000D03*
X168840000Y-131534000D03*
X168840000Y-137706000D03*
X169340000Y-131534000D03*
X169340000Y-137706000D03*
X169840000Y-131534000D03*
X169840000Y-137706000D03*
X170340000Y-131534000D03*
X170340000Y-137706000D03*
X170840000Y-131534000D03*
X170840000Y-137706000D03*
X171340000Y-131534000D03*
X171340000Y-137706000D03*
X171840000Y-131534000D03*
X171840000Y-137706000D03*
X172340000Y-131534000D03*
X172340000Y-137706000D03*
X172840000Y-131534000D03*
X172840000Y-137706000D03*
X173340000Y-131534000D03*
X173340000Y-137706000D03*
X173840000Y-131534000D03*
X173840000Y-137706000D03*
X174340000Y-131534000D03*
X174340000Y-137706000D03*
X174840000Y-131534000D03*
X174840000Y-137706000D03*
X175340000Y-131534000D03*
X175340000Y-137706000D03*
X175840000Y-131534000D03*
X175840000Y-137706000D03*
D12*
X160145000Y-134620000D03*
X177035000Y-134620000D03*
D13*
X165415000Y-134620000D03*
X171765000Y-134620000D03*
%TD*%
M02*
